M48
; DRILL file {KiCad (6.0.5)} date Tue Oct  4 19:34:47 2022
; FORMAT={-:-/ absolute / inch / decimal}
; #@! TF.CreationDate,2022-10-04T19:34:47-05:00
; #@! TF.GenerationSoftware,Kicad,Pcbnew,(6.0.5)
; #@! TF.FileFunction,NonPlated,1,2,NPTH
FMAT,2
INCH
; #@! TA.AperFunction,NonPlated,NPTH,ComponentDrill
T1C0.0310
; #@! TA.AperFunction,NonPlated,NPTH,ComponentDrill
T2C0.0315
; #@! TA.AperFunction,NonPlated,NPTH,ComponentDrill
T3C0.0670
; #@! TA.AperFunction,NonPlated,NPTH,ComponentDrill
T4C0.1200
; #@! TA.AperFunction,NonPlated,NPTH,ComponentDrill
T5C0.1570
%
G90
G05
T1
X7.2258Y-6.5922
X7.2258Y-6.6422
X7.2258Y-6.6922
X7.2258Y-6.7422
X7.2258Y-6.7922
X7.2274Y-3.5548
X7.2274Y-3.6048
X7.2274Y-3.6548
X7.2274Y-3.7048
X7.2274Y-3.7548
X7.2274Y-5.154
X7.2274Y-5.204
X7.2274Y-5.254
X7.2274Y-5.304
X7.2274Y-5.354
X7.3238Y-6.5932
X7.3238Y-6.6432
X7.3238Y-6.6932
X7.3238Y-6.7432
X7.3238Y-6.7932
X7.3253Y-3.5545
X7.3253Y-3.6045
X7.3253Y-3.6545
X7.3253Y-3.7045
X7.3253Y-3.7545
X7.3253Y-5.154
X7.3253Y-5.204
X7.3253Y-5.254
X7.3253Y-5.304
X7.3253Y-5.354
X8.0731Y-6.593
X8.0731Y-6.643
X8.0731Y-6.693
X8.0731Y-6.743
X8.0731Y-6.793
X8.075Y-3.5545
X8.075Y-3.6045
X8.075Y-3.6545
X8.075Y-3.7045
X8.075Y-3.7545
X8.075Y-5.154
X8.075Y-5.204
X8.075Y-5.254
X8.075Y-5.304
X8.075Y-5.354
X8.1726Y-3.5547
X8.1726Y-3.6047
X8.1726Y-3.6547
X8.1726Y-3.7047
X8.1726Y-3.7547
X8.1726Y-5.1546
X8.1726Y-5.2046
X8.1726Y-5.2546
X8.1726Y-5.3046
X8.1726Y-5.3546
X8.1738Y-6.593
X8.1738Y-6.643
X8.1738Y-6.693
X8.1738Y-6.743
X8.1738Y-6.793
T2
X2.6636Y-3.2537
X2.9392Y-3.2537
X13.3119Y-3.2537
X13.5875Y-3.2537
T3
X0.8225Y-6.0
X1.01Y-3.75
X1.1975Y-5.25
X1.2225Y-6.0
X1.385Y-4.5
X1.41Y-3.75
X1.5725Y-6.0
X1.5975Y-5.25
X1.76Y-3.75
X1.785Y-4.5
X1.9475Y-5.25
X1.9725Y-6.0
X2.0412Y-6.75
X2.135Y-4.5
X2.16Y-3.75
X2.3225Y-6.0
X2.3475Y-5.25
X2.4413Y-6.75
X2.51Y-3.75
X2.535Y-4.5
X2.6975Y-5.25
X2.7225Y-6.0
X2.885Y-4.5
X2.91Y-3.75
X3.0725Y-6.0
X3.0975Y-5.25
X3.26Y-3.75
X3.285Y-4.5
X3.4475Y-5.25
X3.4725Y-6.0
X3.5412Y-6.75
X3.635Y-4.5
X3.66Y-3.75
X3.8225Y-6.0
X3.8475Y-5.25
X3.9412Y-6.75
X4.01Y-3.75
X4.035Y-4.5
X4.1975Y-5.25
X4.2225Y-6.0
X4.385Y-4.5
X4.41Y-3.75
X4.4787Y-6.75
X4.5725Y-6.0
X4.5975Y-5.25
X4.76Y-3.75
X4.785Y-4.5
X4.8788Y-6.75
X4.9725Y-6.0
X5.0412Y-6.0
X5.16Y-3.75
X5.2287Y-5.25
X5.3225Y-4.5
X5.4162Y-5.25
X5.4162Y-6.0
X5.4162Y-6.75
X5.4413Y-6.0
X5.51Y-3.75
X5.6288Y-5.25
X5.7225Y-4.5
X5.8163Y-5.25
X5.8163Y-6.0
X5.8163Y-6.75
X5.91Y-3.75
X8.8411Y-3.7499
X8.8411Y-4.4999
X8.8411Y-5.2499
X8.8411Y-5.9999
X8.8411Y-6.7499
X9.2411Y-3.7499
X9.2411Y-4.4999
X9.2411Y-5.2499
X9.2411Y-5.9999
X9.2411Y-6.7499
X9.5911Y-3.7499
X9.5911Y-5.9999
X9.5911Y-6.7499
X9.8848Y-4.6749
X9.8848Y-5.0749
X9.9661Y-3.7499
X9.9786Y-4.2999
X9.9786Y-4.6999
X9.9911Y-3.7499
X9.9911Y-5.9999
X9.9911Y-6.7499
X10.2598Y-5.0499
X10.2598Y-5.4499
X10.3411Y-3.7499
X10.3411Y-6.7499
X10.3661Y-3.7499
X10.6223Y-5.9999
X10.7161Y-4.4999
X10.7286Y-5.0499
X10.7286Y-5.4499
X10.7411Y-3.7499
X10.7411Y-6.7499
X11.0223Y-5.9999
X11.0911Y-3.7499
X11.1161Y-4.4999
X11.2786Y-5.2499
X11.4661Y-4.4999
X11.4911Y-3.7499
X11.5598Y-6.7499
X11.6536Y-5.9999
X11.6786Y-5.2499
X11.8411Y-3.7499
X11.8661Y-4.4999
X11.9598Y-6.7499
X12.0286Y-5.2499
X12.0536Y-5.9999
X12.2161Y-4.4999
X12.2411Y-3.7499
X12.4036Y-5.9999
X12.4286Y-5.2499
X12.4973Y-6.7499
X12.5911Y-3.7499
X12.6161Y-4.4999
X12.7786Y-5.2499
X12.8036Y-5.9999
X12.8973Y-6.7499
X12.9661Y-4.4999
X12.9911Y-3.7499
X13.1536Y-5.9999
X13.1786Y-5.2499
X13.3411Y-3.7499
X13.3661Y-4.4999
X13.4348Y-6.7499
X13.5286Y-5.2499
X13.5536Y-5.9999
X13.7161Y-4.4999
X13.7411Y-3.7499
X13.8348Y-6.7499
X13.9036Y-5.9999
X13.9286Y-5.2499
X14.0911Y-3.7499
X14.1161Y-4.4999
X14.2786Y-5.2499
X14.3036Y-5.9999
X14.4661Y-4.4999
X14.4911Y-3.7499
X14.6536Y-5.9999
X14.6786Y-5.2499
X14.7473Y-6.7499
X14.8411Y-3.7499
X14.8661Y-4.4999
X15.0286Y-5.2499
X15.0536Y-5.9999
X15.1473Y-6.7499
X15.2161Y-4.4999
X15.2411Y-3.7499
X15.4286Y-5.2499
X15.6161Y-4.4999
T4
X0.9225Y-5.8
X1.11Y-3.55
X1.1725Y-5.9
X1.2975Y-5.05
X1.36Y-3.65
X1.485Y-4.3
X1.5475Y-5.15
X1.6725Y-5.8
X1.735Y-4.4
X1.7712Y-7.025
X1.86Y-3.55
X1.9225Y-5.9
X2.0475Y-5.05
X2.11Y-3.65
X2.1412Y-6.55
X2.235Y-4.3
X2.2975Y-5.15
X2.3912Y-6.65
X2.4225Y-5.8
X2.485Y-4.4
X2.61Y-3.55
X2.6725Y-5.9
X2.7113Y-7.025
X2.7975Y-5.05
X2.86Y-3.65
X2.985Y-4.3
X3.0475Y-5.15
X3.1725Y-5.8
X3.235Y-4.4
X3.36Y-3.55
X3.4225Y-5.9
X3.5475Y-5.05
X3.61Y-3.65
X3.6412Y-6.55
X3.735Y-4.3
X3.7975Y-5.15
X3.8912Y-6.65
X3.9225Y-5.8
X3.985Y-4.4
X4.11Y-3.55
X4.1725Y-5.9
X4.2975Y-5.05
X4.36Y-3.65
X4.485Y-4.3
X4.5475Y-5.15
X4.5788Y-6.55
X4.6225Y-6.1
X4.735Y-4.4
X4.7713Y-5.725
X4.8288Y-6.65
X4.86Y-3.55
X4.8725Y-6.2
X5.11Y-3.65
X5.1413Y-5.8
X5.3288Y-5.05
X5.3913Y-5.9
X5.4225Y-4.3
X5.4662Y-5.35
X5.4662Y-6.1
X5.5162Y-6.55
X5.5787Y-5.15
X5.61Y-3.55
X5.6725Y-4.4
X5.7112Y-5.725
X5.7162Y-5.45
X5.7162Y-6.2
X5.7662Y-6.65
X5.86Y-3.65
X8.9411Y-3.5499
X8.9411Y-4.2999
X8.9411Y-5.0499
X8.9411Y-5.7999
X8.9411Y-6.5499
X9.1911Y-3.6499
X9.1911Y-4.3999
X9.1911Y-5.1499
X9.1911Y-5.8999
X9.1911Y-6.6499
X9.6098Y-4.4061
X9.6098Y-5.3436
X9.6411Y-3.8499
X9.6911Y-5.7999
X9.6911Y-6.5499
X9.6961Y-3.4749
X9.7786Y-4.5999
X9.7911Y-4.9749
X9.8786Y-4.3499
X9.8911Y-3.9499
X9.9411Y-5.8999
X9.9411Y-6.6499
X9.9848Y-5.0249
X10.0661Y-3.5499
X10.0848Y-4.7749
X10.3161Y-3.6499
X10.3598Y-5.3999
X10.3911Y-3.8499
X10.4411Y-6.5499
X10.4598Y-5.1499
X10.6361Y-3.4749
X10.6411Y-3.9499
X10.6911Y-6.6499
X10.7223Y-5.7999
X10.7286Y-4.9749
X10.8161Y-4.2999
X10.8286Y-5.3999
X10.9286Y-5.1499
X10.9723Y-5.8999
X11.0661Y-4.3999
X11.1911Y-3.5499
X11.3786Y-5.0499
X11.4411Y-3.6499
X11.5661Y-4.2999
X11.6286Y-5.1499
X11.6598Y-6.5499
X11.7536Y-5.7999
X11.8161Y-4.3999
X11.9098Y-6.6499
X11.9411Y-3.5499
X12.0036Y-5.8999
X12.1286Y-5.0499
X12.1911Y-3.6499
X12.3161Y-4.2999
X12.3786Y-5.1499
X12.5036Y-5.7999
X12.5661Y-4.3999
X12.5973Y-6.5499
X12.6911Y-3.5499
X12.7536Y-5.8999
X12.8473Y-6.6499
X12.8786Y-5.0499
X12.9411Y-3.6499
X13.0661Y-4.2999
X13.1286Y-5.1499
X13.2536Y-5.7999
X13.3161Y-4.3999
X13.4411Y-3.5499
X13.5036Y-5.8999
X13.5348Y-6.5499
X13.6286Y-5.0499
X13.6911Y-3.6499
X13.7848Y-6.6499
X13.8161Y-4.2999
X13.8786Y-5.1499
X14.0036Y-5.7999
X14.0661Y-4.3999
X14.1911Y-3.5499
X14.2536Y-5.8999
X14.3786Y-5.0499
X14.4411Y-3.6499
X14.4773Y-7.0249
X14.5661Y-4.2999
X14.6286Y-5.1499
X14.7536Y-5.7999
X14.8161Y-4.3999
X14.8473Y-6.5499
X14.9411Y-3.5499
X15.0036Y-5.8999
X15.0973Y-6.6499
X15.1286Y-5.0499
X15.1911Y-3.6499
X15.3161Y-4.2999
X15.3786Y-5.1499
X15.4173Y-7.0249
X15.5661Y-4.3999
T5
X1.0225Y-6.0
X1.21Y-3.75
X1.3975Y-5.25
X1.585Y-4.5
X1.7712Y-6.425
X1.7725Y-6.0
X1.96Y-3.75
X2.1475Y-5.25
X2.2412Y-6.75
X2.335Y-4.5
X2.5225Y-6.0
X2.71Y-3.75
X2.7113Y-6.425
X2.8975Y-5.25
X3.085Y-4.5
X3.2725Y-6.0
X3.46Y-3.75
X3.6475Y-5.25
X3.7412Y-6.75
X3.835Y-4.5
X4.0225Y-6.0
X4.21Y-3.75
X4.3975Y-5.25
X4.585Y-4.5
X4.6787Y-6.75
X4.7713Y-6.325
X4.7725Y-6.0
X4.96Y-3.75
X5.2412Y-6.0
X5.4287Y-5.25
X5.5225Y-4.5
X5.6162Y-5.25
X5.6162Y-6.0
X5.6162Y-6.75
X5.71Y-3.75
X5.7112Y-6.325
X9.0411Y-3.7499
X9.0411Y-4.4999
X9.0411Y-5.2499
X9.0411Y-5.9999
X9.0411Y-6.7499
X9.6961Y-4.0749
X9.7911Y-3.7499
X9.7911Y-5.5749
X9.7911Y-5.9999
X9.7911Y-6.7499
X9.8848Y-4.8749
X9.9786Y-4.4999
X10.1661Y-3.7499
X10.2098Y-4.4061
X10.2098Y-5.3436
X10.2598Y-5.2499
X10.5411Y-3.7499
X10.5411Y-6.7499
X10.6361Y-4.0749
X10.7286Y-5.2499
X10.7286Y-5.5749
X10.8223Y-5.9999
X10.9161Y-4.4999
X11.2911Y-3.7499
X11.4786Y-5.2499
X11.6661Y-4.4999
X11.7598Y-6.7499
X11.8536Y-5.9999
X12.0411Y-3.7499
X12.2286Y-5.2499
X12.4161Y-4.4999
X12.6036Y-5.9999
X12.6973Y-6.7499
X12.7911Y-3.7499
X12.9786Y-5.2499
X13.1661Y-4.4999
X13.3536Y-5.9999
X13.5411Y-3.7499
X13.6348Y-6.7499
X13.7286Y-5.2499
X13.9161Y-4.4999
X14.1036Y-5.9999
X14.2911Y-3.7499
X14.4773Y-6.4249
X14.4786Y-5.2499
X14.6661Y-4.4999
X14.8536Y-5.9999
X14.9473Y-6.7499
X15.0411Y-3.7499
X15.2286Y-5.2499
X15.4161Y-4.4999
X15.4173Y-6.4249
T0
M30
