G04 #@! TF.GenerationSoftware,KiCad,Pcbnew,(6.0.5)*
G04 #@! TF.CreationDate,2022-10-04T19:34:07-05:00*
G04 #@! TF.ProjectId,kintsugi_v2,6b696e74-7375-4676-995f-76322e6b6963,rev?*
G04 #@! TF.SameCoordinates,Original*
G04 #@! TF.FileFunction,Soldermask,Bot*
G04 #@! TF.FilePolarity,Negative*
%FSLAX46Y46*%
G04 Gerber Fmt 4.6, Leading zero omitted, Abs format (unit mm)*
G04 Created by KiCad (PCBNEW (6.0.5)) date 2022-10-04 19:34:07*
%MOMM*%
%LPD*%
G01*
G04 APERTURE LIST*
%ADD10C,1.701800*%
%ADD11C,3.302000*%
%ADD12C,3.987800*%
%ADD13C,3.048000*%
%ADD14C,0.787400*%
%ADD15R,1.700000X1.700000*%
%ADD16O,1.700000X1.700000*%
%ADD17R,2.000000X2.000000*%
%ADD18C,2.000000*%
%ADD19R,2.000000X3.200000*%
%ADD20C,0.800000*%
%ADD21O,2.000000X1.600000*%
%ADD22R,1.600000X1.600000*%
%ADD23O,1.600000X1.600000*%
%ADD24R,1.752600X1.752600*%
%ADD25C,1.752600*%
G04 APERTURE END LIST*
D10*
X296635856Y-133347222D03*
X286475856Y-133347222D03*
D11*
X289015856Y-128267222D03*
D12*
X291555856Y-133347222D03*
D11*
X295365856Y-130807222D03*
X113919000Y-109220000D03*
D10*
X121539000Y-114300000D03*
X111379000Y-114300000D03*
D11*
X120269000Y-111760000D03*
D12*
X116459000Y-114300000D03*
D10*
X372835856Y-133347222D03*
D11*
X365215856Y-128267222D03*
X371565856Y-130807222D03*
D10*
X362675856Y-133347222D03*
D12*
X367755856Y-133347222D03*
D10*
X89947750Y-171450000D03*
D11*
X98837750Y-168910000D03*
D10*
X100107750Y-171450000D03*
D11*
X92487750Y-166370000D03*
D12*
X95027750Y-171450000D03*
X73596500Y-133350000D03*
D10*
X78676500Y-133350000D03*
X68516500Y-133350000D03*
D11*
X71056500Y-128270000D03*
X77406500Y-130810000D03*
D12*
X343943356Y-95247222D03*
D10*
X349023356Y-95247222D03*
D11*
X347753356Y-92707222D03*
D10*
X338863356Y-95247222D03*
D11*
X341403356Y-90167222D03*
D10*
X329338356Y-114297222D03*
D11*
X331878356Y-109217222D03*
D12*
X334418356Y-114297222D03*
D11*
X338228356Y-111757222D03*
D10*
X339498356Y-114297222D03*
X78041500Y-152400000D03*
D12*
X83121500Y-152400000D03*
D10*
X88201500Y-152400000D03*
D11*
X80581500Y-147320000D03*
X86931500Y-149860000D03*
D12*
X246280356Y-103502222D03*
D11*
X255678356Y-90167222D03*
D12*
X258218356Y-95247222D03*
D11*
X262028356Y-92707222D03*
D13*
X246280356Y-88262222D03*
X270156356Y-88262222D03*
D10*
X263298356Y-95247222D03*
X253138356Y-95247222D03*
D12*
X270156356Y-103502222D03*
D10*
X234723356Y-114297222D03*
X224563356Y-114297222D03*
D11*
X233453356Y-111757222D03*
X227103356Y-109217222D03*
D12*
X229643356Y-114297222D03*
D14*
X207614852Y-171272302D03*
X207614852Y-172542302D03*
X207614852Y-168732302D03*
X207614852Y-170002302D03*
X207614852Y-167462302D03*
D12*
X324893356Y-95247222D03*
D11*
X322353356Y-90167222D03*
D10*
X329973356Y-95247222D03*
D11*
X328703356Y-92707222D03*
D10*
X319813356Y-95247222D03*
X224563356Y-95247222D03*
X234723356Y-95247222D03*
D11*
X227103356Y-90167222D03*
D12*
X229643356Y-95247222D03*
D11*
X233453356Y-92707222D03*
X383472106Y-168907222D03*
D10*
X374582106Y-171447222D03*
X384742106Y-171447222D03*
D13*
X367724106Y-178432222D03*
D11*
X377122106Y-166367222D03*
D12*
X391600106Y-163192222D03*
X379662106Y-171447222D03*
D13*
X391600106Y-178432222D03*
D12*
X367724106Y-163192222D03*
D10*
X58991500Y-152400000D03*
D11*
X61531500Y-147320000D03*
X67881500Y-149860000D03*
D12*
X64071500Y-152400000D03*
D10*
X69151500Y-152400000D03*
X51847750Y-171450000D03*
D12*
X68865750Y-163195000D03*
D10*
X62007750Y-171450000D03*
D11*
X60737750Y-168910000D03*
D13*
X44989750Y-178435000D03*
D12*
X44989750Y-163195000D03*
X56927750Y-171450000D03*
D13*
X68865750Y-178435000D03*
D11*
X54387750Y-166370000D03*
D10*
X391885856Y-133347222D03*
D12*
X386805856Y-133347222D03*
D11*
X384265856Y-128267222D03*
D10*
X381725856Y-133347222D03*
D11*
X390615856Y-130807222D03*
D10*
X315685856Y-133347222D03*
D12*
X310605856Y-133347222D03*
D11*
X314415856Y-130807222D03*
D10*
X305525856Y-133347222D03*
D11*
X308065856Y-128267222D03*
D12*
X102171500Y-152400000D03*
D10*
X107251500Y-152400000D03*
D11*
X105981500Y-149860000D03*
X99631500Y-147320000D03*
D10*
X97091500Y-152400000D03*
X251074606Y-128902222D03*
X251074606Y-118742222D03*
D11*
X256154606Y-121282222D03*
D12*
X251074606Y-123822222D03*
D11*
X253614606Y-127632222D03*
D14*
X186061893Y-92823978D03*
X186061893Y-94093978D03*
X186061893Y-90283978D03*
X186061893Y-91553978D03*
X186061893Y-95363978D03*
D10*
X272505856Y-138427222D03*
D11*
X275045856Y-137157222D03*
D12*
X272505856Y-133347222D03*
D11*
X277585856Y-130807222D03*
D10*
X272505856Y-128267222D03*
D11*
X263139606Y-137157222D03*
X265679606Y-130807222D03*
D10*
X260599606Y-138427222D03*
D12*
X260599606Y-133347222D03*
D10*
X260599606Y-128267222D03*
D11*
X290603356Y-92707222D03*
D10*
X281713356Y-95247222D03*
X291873356Y-95247222D03*
D12*
X286793356Y-95247222D03*
D11*
X284253356Y-90167222D03*
D10*
X262663356Y-95247222D03*
X272823356Y-95247222D03*
D11*
X270283356Y-100327222D03*
D12*
X267743356Y-95247222D03*
D11*
X263933356Y-97787222D03*
D14*
X207584856Y-91558806D03*
X207584856Y-95368806D03*
X207584856Y-90288806D03*
X207584856Y-92828806D03*
X207584856Y-94098806D03*
X205105000Y-132182609D03*
X205105000Y-130912609D03*
X205105000Y-134722609D03*
X205105000Y-135992609D03*
X205105000Y-133452609D03*
D11*
X246153356Y-147317222D03*
X252503356Y-149857222D03*
D12*
X248693356Y-152397222D03*
D10*
X243613356Y-152397222D03*
X253773356Y-152397222D03*
D11*
X110744000Y-92710000D03*
D10*
X101854000Y-95250000D03*
D11*
X104394000Y-90170000D03*
D10*
X112014000Y-95250000D03*
D12*
X106934000Y-95250000D03*
D10*
X54229000Y-114300000D03*
D11*
X56769000Y-109220000D03*
X63119000Y-111760000D03*
D12*
X59309000Y-114300000D03*
D10*
X64389000Y-114300000D03*
D11*
X75819000Y-109220000D03*
X82169000Y-111760000D03*
D10*
X73279000Y-114300000D03*
X83439000Y-114300000D03*
D12*
X78359000Y-114300000D03*
D10*
X35179000Y-114300000D03*
D12*
X40259000Y-114300000D03*
D10*
X45339000Y-114300000D03*
D11*
X37719000Y-109220000D03*
X44069000Y-111760000D03*
D10*
X224563356Y-133347222D03*
X234723356Y-133347222D03*
D11*
X227103356Y-128267222D03*
X233453356Y-130807222D03*
D12*
X229643356Y-133347222D03*
D14*
X186061893Y-135992609D03*
X186061893Y-134722609D03*
X186061893Y-133452609D03*
X186061893Y-132182609D03*
X186061893Y-130912609D03*
D10*
X343625856Y-133347222D03*
X353785856Y-133347222D03*
D11*
X346165856Y-128267222D03*
D12*
X348705856Y-133347222D03*
D11*
X352515856Y-130807222D03*
D10*
X243613356Y-171447222D03*
D12*
X248693356Y-171447222D03*
D11*
X246153356Y-166367222D03*
X252503356Y-168907222D03*
D10*
X253773356Y-171447222D03*
D15*
X210127106Y-113249472D03*
D16*
X212667106Y-113249472D03*
X215207106Y-113249472D03*
X217747106Y-113249472D03*
D11*
X116300250Y-166370000D03*
D10*
X123920250Y-171450000D03*
X113760250Y-171450000D03*
D11*
X122650250Y-168910000D03*
D12*
X118840250Y-171450000D03*
D10*
X353150856Y-152397222D03*
D11*
X355690856Y-147317222D03*
X362040856Y-149857222D03*
D10*
X363310856Y-152397222D03*
D12*
X358230856Y-152397222D03*
D10*
X348388356Y-114297222D03*
X358548356Y-114297222D03*
D12*
X353468356Y-114297222D03*
D11*
X350928356Y-109217222D03*
X357278356Y-111757222D03*
D12*
X30734000Y-95250000D03*
D11*
X34544000Y-92710000D03*
X28194000Y-90170000D03*
D10*
X25654000Y-95250000D03*
X35814000Y-95250000D03*
D11*
X302509606Y-168907222D03*
D10*
X293619606Y-171447222D03*
D11*
X296159606Y-166367222D03*
D10*
X303779606Y-171447222D03*
D12*
X298699606Y-171447222D03*
X377280856Y-152397222D03*
D10*
X372200856Y-152397222D03*
D11*
X381090856Y-149857222D03*
X374740856Y-147317222D03*
D10*
X382360856Y-152397222D03*
D11*
X278697106Y-149857222D03*
D12*
X274887106Y-152397222D03*
D11*
X272347106Y-147317222D03*
D10*
X279967106Y-152397222D03*
X269807106Y-152397222D03*
D11*
X312828356Y-109217222D03*
D12*
X315368356Y-114297222D03*
D10*
X310288356Y-114297222D03*
X320448356Y-114297222D03*
D11*
X319178356Y-111757222D03*
D14*
X183535299Y-172522250D03*
X183535299Y-167442250D03*
X183535299Y-168712250D03*
X183535299Y-171252250D03*
X183535299Y-169982250D03*
D10*
X87566500Y-133350000D03*
D12*
X92646500Y-133350000D03*
D11*
X90106500Y-128270000D03*
D10*
X97726500Y-133350000D03*
D11*
X96456500Y-130810000D03*
X265203356Y-166367222D03*
D10*
X272823356Y-171447222D03*
D12*
X267743356Y-171447222D03*
D10*
X262663356Y-171447222D03*
D11*
X271553356Y-168907222D03*
X327115856Y-128267222D03*
D10*
X334735856Y-133347222D03*
X324575856Y-133347222D03*
D11*
X333465856Y-130807222D03*
D12*
X329655856Y-133347222D03*
D11*
X123761500Y-157480000D03*
D10*
X116141500Y-152400000D03*
D12*
X121221500Y-152400000D03*
D11*
X117411500Y-154940000D03*
D10*
X126301500Y-152400000D03*
D12*
X229643356Y-171447222D03*
D11*
X227103356Y-166367222D03*
D10*
X234723356Y-171447222D03*
D11*
X233453356Y-168907222D03*
D10*
X224563356Y-171447222D03*
D14*
X207585294Y-134736905D03*
X207585294Y-133466905D03*
X207585294Y-132196905D03*
X207585294Y-136006905D03*
X207585294Y-130926905D03*
D11*
X141700250Y-130810000D03*
D10*
X132810250Y-133350000D03*
X142970250Y-133350000D03*
D11*
X135350250Y-128270000D03*
D12*
X137890250Y-133350000D03*
D11*
X138842750Y-154940000D03*
D12*
X142652750Y-152400000D03*
D11*
X145192750Y-157480000D03*
D10*
X137572750Y-152400000D03*
X147732750Y-152400000D03*
D11*
X138842750Y-135890000D03*
D12*
X142652750Y-133350000D03*
D10*
X137572750Y-133350000D03*
X147732750Y-133350000D03*
D11*
X145192750Y-138430000D03*
D10*
X49466500Y-133350000D03*
X59626500Y-133350000D03*
D11*
X52006500Y-128270000D03*
X58356500Y-130810000D03*
D12*
X54546500Y-133350000D03*
D11*
X244883356Y-97787222D03*
D10*
X253773356Y-95247222D03*
X243613356Y-95247222D03*
D11*
X251233356Y-100327222D03*
D12*
X248693356Y-95247222D03*
X391568356Y-114297222D03*
D11*
X389028356Y-109217222D03*
D10*
X396648356Y-114297222D03*
D11*
X395378356Y-111757222D03*
D10*
X386488356Y-114297222D03*
X20891500Y-152400000D03*
D11*
X29781500Y-149860000D03*
D12*
X25971500Y-152400000D03*
D11*
X23431500Y-147320000D03*
D10*
X31051500Y-152400000D03*
X30416500Y-133350000D03*
D11*
X39306500Y-130810000D03*
D10*
X40576500Y-133350000D03*
D12*
X35496500Y-133350000D03*
D11*
X32956500Y-128270000D03*
X317590856Y-147317222D03*
X323940856Y-149857222D03*
D10*
X325210856Y-152397222D03*
D12*
X320130856Y-152397222D03*
D10*
X315050856Y-152397222D03*
X116776500Y-133350000D03*
D11*
X109156500Y-128270000D03*
D12*
X111696500Y-133350000D03*
D10*
X106616500Y-133350000D03*
D11*
X115506500Y-130810000D03*
D12*
X49784000Y-95250000D03*
D11*
X47244000Y-90170000D03*
D10*
X44704000Y-95250000D03*
D11*
X53594000Y-92710000D03*
D10*
X54864000Y-95250000D03*
D12*
X339180856Y-152397222D03*
D11*
X342990856Y-149857222D03*
D10*
X344260856Y-152397222D03*
X334100856Y-152397222D03*
D11*
X336640856Y-147317222D03*
D10*
X317432106Y-171447222D03*
X327592106Y-171447222D03*
D11*
X319972106Y-166367222D03*
D12*
X322512106Y-171447222D03*
D11*
X326322106Y-168907222D03*
D10*
X63754000Y-95250000D03*
D11*
X72644000Y-92710000D03*
D12*
X68834000Y-95250000D03*
D10*
X73914000Y-95250000D03*
D11*
X66294000Y-90170000D03*
D14*
X205057154Y-167462302D03*
X205057154Y-172542302D03*
X205057154Y-171272302D03*
X205057154Y-170002302D03*
X205057154Y-168732302D03*
X183577043Y-132182609D03*
X183577043Y-135992609D03*
X183577043Y-130912609D03*
X183577043Y-133452609D03*
X183577043Y-134722609D03*
D11*
X91694000Y-92710000D03*
D12*
X87884000Y-95250000D03*
D10*
X82804000Y-95250000D03*
D11*
X85344000Y-90170000D03*
D10*
X92964000Y-95250000D03*
D14*
X186023797Y-167468326D03*
X186023797Y-172548326D03*
X186023797Y-168738326D03*
X186023797Y-170008326D03*
X186023797Y-171278326D03*
D12*
X97409000Y-114300000D03*
D11*
X101219000Y-111760000D03*
X94869000Y-109220000D03*
D10*
X92329000Y-114300000D03*
X102489000Y-114300000D03*
D12*
X362993356Y-95247222D03*
D10*
X368073356Y-95247222D03*
D11*
X360453356Y-90167222D03*
X366803356Y-92707222D03*
D10*
X357913356Y-95247222D03*
D12*
X382043356Y-95247222D03*
D11*
X385853356Y-92707222D03*
D10*
X387123356Y-95247222D03*
X376963356Y-95247222D03*
D11*
X379503356Y-90167222D03*
D14*
X205105000Y-92823978D03*
X205105000Y-90283978D03*
X205105000Y-95363978D03*
X205105000Y-94093978D03*
X205105000Y-91553978D03*
X183577043Y-94100873D03*
X183577043Y-91560873D03*
X183577043Y-92830873D03*
X183577043Y-95370873D03*
X183577043Y-90290873D03*
D12*
X140271500Y-114300000D03*
D10*
X145351500Y-114300000D03*
D11*
X137731500Y-109220000D03*
D10*
X135191500Y-114300000D03*
D11*
X144081500Y-111760000D03*
D12*
X296318356Y-114297222D03*
D10*
X291238356Y-114297222D03*
D11*
X293778356Y-109217222D03*
X300128356Y-111757222D03*
D10*
X301398356Y-114297222D03*
D11*
X130587750Y-147320000D03*
D13*
X121189750Y-145415000D03*
D10*
X138207750Y-152400000D03*
X128047750Y-152400000D03*
D12*
X121189750Y-160655000D03*
X133127750Y-152400000D03*
X145065750Y-160655000D03*
D13*
X145065750Y-145415000D03*
D11*
X136937750Y-149860000D03*
D10*
X296000856Y-152397222D03*
X306160856Y-152397222D03*
D11*
X304890856Y-149857222D03*
D12*
X301080856Y-152397222D03*
D11*
X298540856Y-147317222D03*
X129794000Y-92710000D03*
D12*
X125984000Y-95250000D03*
D10*
X120904000Y-95250000D03*
X131064000Y-95250000D03*
D11*
X123444000Y-90170000D03*
D10*
X224563356Y-152397222D03*
D12*
X229643356Y-152397222D03*
D11*
X233453356Y-149857222D03*
D10*
X234723356Y-152397222D03*
D11*
X227103356Y-147317222D03*
D10*
X341244606Y-171447222D03*
X351404606Y-171447222D03*
D11*
X350134606Y-168907222D03*
D12*
X346324606Y-171447222D03*
D11*
X343784606Y-166367222D03*
D12*
X253455856Y-114297222D03*
D11*
X248375856Y-116837222D03*
D10*
X253455856Y-119377222D03*
D11*
X250915856Y-110487222D03*
D10*
X253455856Y-109217222D03*
D11*
X369978356Y-109217222D03*
D12*
X372518356Y-114297222D03*
D10*
X367438356Y-114297222D03*
X377598356Y-114297222D03*
D11*
X376328356Y-111757222D03*
D10*
X272188356Y-114297222D03*
D11*
X274728356Y-109217222D03*
D10*
X282348356Y-114297222D03*
D11*
X281078356Y-111757222D03*
D12*
X277268356Y-114297222D03*
D11*
X42481500Y-147320000D03*
X48831500Y-149860000D03*
D12*
X45021500Y-152400000D03*
D10*
X50101500Y-152400000D03*
X39941500Y-152400000D03*
D11*
X148844000Y-92710000D03*
D10*
X139954000Y-95250000D03*
D11*
X142494000Y-90170000D03*
D12*
X145034000Y-95250000D03*
D10*
X150114000Y-95250000D03*
D11*
X303303356Y-90167222D03*
X309653356Y-92707222D03*
D12*
X305843356Y-95247222D03*
D10*
X300763356Y-95247222D03*
X310923356Y-95247222D03*
D11*
X140112750Y-166370000D03*
X146462750Y-168910000D03*
D10*
X147732750Y-171450000D03*
X137572750Y-171450000D03*
D12*
X142652750Y-171450000D03*
D15*
X172868750Y-122237500D03*
D16*
X170328750Y-122237500D03*
X167788750Y-122237500D03*
X165248750Y-122237500D03*
D17*
X166568750Y-154389250D03*
D18*
X171568750Y-154389250D03*
X169068750Y-154389250D03*
D19*
X163468750Y-161889250D03*
X174668750Y-161889250D03*
D18*
X171568750Y-168889250D03*
X166568750Y-168889250D03*
D20*
X67655125Y-82645042D03*
X74655125Y-82645042D03*
D21*
X72255125Y-84945042D03*
X69255125Y-84945042D03*
X77355125Y-80345042D03*
X76255125Y-84945042D03*
D22*
X217727106Y-116815472D03*
D23*
X217727106Y-119355472D03*
X217727106Y-121895472D03*
X217727106Y-124435472D03*
X217727106Y-126975472D03*
X217727106Y-129515472D03*
X217727106Y-132055472D03*
X217727106Y-134595472D03*
X217727106Y-137135472D03*
X217727106Y-139675472D03*
X217727106Y-142215472D03*
X217727106Y-144755472D03*
X217727106Y-147295472D03*
X217727106Y-149835472D03*
X210107106Y-149835472D03*
X210107106Y-147295472D03*
X210107106Y-144755472D03*
X210107106Y-142215472D03*
X210107106Y-139675472D03*
X210107106Y-137135472D03*
X210107106Y-134595472D03*
X210107106Y-132055472D03*
X210107106Y-129515472D03*
X210107106Y-126975472D03*
X210107106Y-124435472D03*
X210107106Y-121895472D03*
X210107106Y-119355472D03*
X210107106Y-116815472D03*
D20*
X345122618Y-82643819D03*
X338122618Y-82643819D03*
D21*
X340522618Y-80343819D03*
X343522618Y-80343819D03*
X335422618Y-84943819D03*
X336522618Y-80343819D03*
D24*
X176688750Y-89757250D03*
D25*
X176688750Y-92297250D03*
X176688750Y-94837250D03*
X176688750Y-97377250D03*
X176688750Y-99917250D03*
X176688750Y-102457250D03*
X176688750Y-104997250D03*
X176688750Y-107537250D03*
X176688750Y-110077250D03*
X176688750Y-112617250D03*
X176688750Y-115157250D03*
X176688750Y-117697250D03*
X161448750Y-117697250D03*
X161448750Y-115157250D03*
X161448750Y-112617250D03*
X161448750Y-110077250D03*
X161448750Y-107537250D03*
X161448750Y-104997250D03*
X161448750Y-102457250D03*
X161448750Y-99917250D03*
X161448750Y-97377250D03*
X161448750Y-94837250D03*
X161448750Y-92297250D03*
X161448750Y-89757250D03*
D13*
X248693356Y-126362222D03*
X272505856Y-126362222D03*
D12*
X272505856Y-141602222D03*
X248693356Y-141602222D03*
X259329606Y-111915972D03*
X259329606Y-135728472D03*
D13*
X244089606Y-111915972D03*
X244089606Y-135728472D03*
M02*
