M48
; DRILL file {KiCad (6.0.5)} date Sun Nov  6 21:59:18 2022
; FORMAT={-:-/ absolute / inch / decimal}
; #@! TF.CreationDate,2022-11-06T21:59:18-06:00
; #@! TF.GenerationSoftware,Kicad,Pcbnew,(6.0.5)
; #@! TF.FileFunction,NonPlated,1,2,NPTH
FMAT,2
INCH
; #@! TA.AperFunction,NonPlated,NPTH,ComponentDrill
T1C0.0310
; #@! TA.AperFunction,NonPlated,NPTH,ComponentDrill
T2C0.0315
; #@! TA.AperFunction,NonPlated,NPTH,ComponentDrill
T3C0.0670
; #@! TA.AperFunction,NonPlated,NPTH,ComponentDrill
T4C0.1200
; #@! TA.AperFunction,NonPlated,NPTH,ComponentDrill
T5C0.1570
%
G90
G05
T1
X7.3097Y-6.4361
X7.3097Y-6.4861
X7.3097Y-6.5361
X7.3097Y-6.5861
X7.3097Y-6.6361
X7.3114Y-3.3986
X7.3114Y-3.4486
X7.3114Y-3.4986
X7.3114Y-3.5486
X7.3114Y-3.5986
X7.3114Y-4.9979
X7.3114Y-5.0479
X7.3114Y-5.0979
X7.3114Y-5.1479
X7.3114Y-5.1979
X7.4077Y-6.4371
X7.4077Y-6.4871
X7.4077Y-6.5371
X7.4077Y-6.5871
X7.4077Y-6.6371
X7.4092Y-3.3983
X7.4092Y-3.4483
X7.4092Y-3.4983
X7.4092Y-3.5483
X7.4092Y-3.5983
X7.4092Y-4.9979
X7.4092Y-5.0479
X7.4092Y-5.0979
X7.4092Y-5.1479
X7.4092Y-5.1979
X8.157Y-6.4369
X8.157Y-6.4869
X8.157Y-6.5369
X8.157Y-6.5869
X8.157Y-6.6369
X8.1589Y-3.3983
X8.1589Y-3.4483
X8.1589Y-3.4983
X8.1589Y-3.5483
X8.1589Y-3.5983
X8.1589Y-4.9979
X8.1589Y-5.0479
X8.1589Y-5.0979
X8.1589Y-5.1479
X8.1589Y-5.1979
X8.2566Y-3.3985
X8.2566Y-3.4485
X8.2566Y-3.4985
X8.2566Y-3.5485
X8.2566Y-3.5985
X8.2566Y-4.9985
X8.2566Y-5.0485
X8.2566Y-5.0985
X8.2566Y-5.1485
X8.2566Y-5.1985
X8.2577Y-6.4369
X8.2577Y-6.4869
X8.2577Y-6.5369
X8.2577Y-6.5869
X8.2577Y-6.6369
T2
X2.7475Y-3.0976
X3.0231Y-3.0976
X13.3958Y-3.0976
X13.6714Y-3.0976
T3
X0.9064Y-5.8439
X1.0939Y-3.5939
X1.2814Y-5.0939
X1.3064Y-5.8439
X1.4689Y-4.3439
X1.4939Y-3.5939
X1.6564Y-5.8439
X1.6814Y-5.0939
X1.8439Y-3.5939
X1.8689Y-4.3439
X2.0314Y-5.0939
X2.0564Y-5.8439
X2.1252Y-6.5939
X2.2189Y-4.3439
X2.2439Y-3.5939
X2.4064Y-5.8439
X2.4314Y-5.0939
X2.5252Y-6.5939
X2.5939Y-3.5939
X2.6189Y-4.3439
X2.7814Y-5.0939
X2.8064Y-5.8439
X2.9689Y-4.3439
X2.9939Y-3.5939
X3.1564Y-5.8439
X3.1814Y-5.0939
X3.3439Y-3.5939
X3.3689Y-4.3439
X3.5314Y-5.0939
X3.5564Y-5.8439
X3.6252Y-6.5939
X3.7189Y-4.3439
X3.7439Y-3.5939
X3.9064Y-5.8439
X3.9314Y-5.0939
X4.0252Y-6.5939
X4.0939Y-3.5939
X4.1189Y-4.3439
X4.2814Y-5.0939
X4.3064Y-5.8439
X4.4689Y-4.3439
X4.4939Y-3.5939
X4.5627Y-6.5939
X4.6564Y-5.8439
X4.6814Y-5.0939
X4.8439Y-3.5939
X4.8689Y-4.3439
X4.9627Y-6.5939
X5.0564Y-5.8439
X5.1252Y-5.8439
X5.2439Y-3.5939
X5.3127Y-5.0939
X5.4064Y-4.3439
X5.5002Y-5.0939
X5.5002Y-5.8439
X5.5002Y-6.5939
X5.5252Y-5.8439
X5.5939Y-3.5939
X5.7127Y-5.0939
X5.8064Y-4.3439
X5.9002Y-5.0939
X5.9002Y-5.8439
X5.9002Y-6.5939
X5.9939Y-3.5939
X8.925Y-3.5938
X8.925Y-4.3438
X8.925Y-5.0938
X8.925Y-5.8438
X8.925Y-6.5938
X9.325Y-3.5938
X9.325Y-4.3438
X9.325Y-5.0938
X9.325Y-5.8438
X9.325Y-6.5938
X9.675Y-3.5938
X9.675Y-5.8438
X9.675Y-6.5938
X9.9688Y-4.5187
X9.9688Y-4.9188
X10.05Y-3.5938
X10.0625Y-4.1437
X10.0625Y-4.5438
X10.075Y-3.5938
X10.075Y-5.8438
X10.075Y-6.5938
X10.3438Y-4.8937
X10.3438Y-5.2938
X10.425Y-3.5938
X10.425Y-6.5938
X10.45Y-3.5938
X10.7062Y-5.8438
X10.8Y-4.3438
X10.8125Y-4.8937
X10.8125Y-5.2938
X10.825Y-3.5938
X10.825Y-6.5938
X11.1062Y-5.8438
X11.175Y-3.5938
X11.2Y-4.3438
X11.3625Y-5.0938
X11.55Y-4.3438
X11.575Y-3.5938
X11.6437Y-6.5938
X11.7375Y-5.8438
X11.7625Y-5.0938
X11.925Y-3.5938
X11.95Y-4.3438
X12.0437Y-6.5938
X12.1125Y-5.0938
X12.1375Y-5.8438
X12.3Y-4.3438
X12.325Y-3.5938
X12.4875Y-5.8438
X12.5125Y-5.0938
X12.5812Y-6.5938
X12.675Y-3.5938
X12.7Y-4.3438
X12.8625Y-5.0938
X12.8875Y-5.8438
X12.9812Y-6.5938
X13.05Y-4.3438
X13.075Y-3.5938
X13.2375Y-5.8438
X13.2625Y-5.0938
X13.425Y-3.5938
X13.45Y-4.3438
X13.5187Y-6.5938
X13.6125Y-5.0938
X13.6375Y-5.8438
X13.8Y-4.3438
X13.825Y-3.5938
X13.9187Y-6.5938
X13.9875Y-5.8438
X14.0125Y-5.0938
X14.175Y-3.5938
X14.2Y-4.3438
X14.3625Y-5.0938
X14.3875Y-5.8438
X14.55Y-4.3438
X14.575Y-3.5938
X14.7375Y-5.8438
X14.7625Y-5.0938
X14.8312Y-6.5938
X14.925Y-3.5938
X14.95Y-4.3438
X15.1125Y-5.0938
X15.1375Y-5.8438
X15.2312Y-6.5938
X15.3Y-4.3438
X15.325Y-3.5938
X15.5125Y-5.0938
X15.7Y-4.3438
T4
X1.0064Y-5.6439
X1.1939Y-3.3939
X1.2564Y-5.7439
X1.3814Y-4.8939
X1.4439Y-3.4939
X1.5689Y-4.1439
X1.6314Y-4.9939
X1.7564Y-5.6439
X1.8189Y-4.2439
X1.8552Y-6.8689
X1.9439Y-3.3939
X2.0064Y-5.7439
X2.1314Y-4.8939
X2.1939Y-3.4939
X2.2252Y-6.3939
X2.3189Y-4.1439
X2.3814Y-4.9939
X2.4752Y-6.4939
X2.5064Y-5.6439
X2.5689Y-4.2439
X2.6939Y-3.3939
X2.7564Y-5.7439
X2.7952Y-6.8689
X2.8814Y-4.8939
X2.9439Y-3.4939
X3.0689Y-4.1439
X3.1314Y-4.9939
X3.2564Y-5.6439
X3.3189Y-4.2439
X3.4439Y-3.3939
X3.5064Y-5.7439
X3.6314Y-4.8939
X3.6939Y-3.4939
X3.7252Y-6.3939
X3.8189Y-4.1439
X3.8814Y-4.9939
X3.9752Y-6.4939
X4.0064Y-5.6439
X4.0689Y-4.2439
X4.1939Y-3.3939
X4.2564Y-5.7439
X4.3814Y-4.8939
X4.4439Y-3.4939
X4.5689Y-4.1439
X4.6314Y-4.9939
X4.6627Y-6.3939
X4.7064Y-5.9439
X4.8189Y-4.2439
X4.8552Y-5.5689
X4.9127Y-6.4939
X4.9439Y-3.3939
X4.9564Y-6.0439
X5.1939Y-3.4939
X5.2252Y-5.6439
X5.3627Y-5.1939
X5.4752Y-5.7439
X5.5064Y-4.1439
X5.5502Y-5.9439
X5.6002Y-4.8939
X5.6002Y-6.3939
X5.6127Y-5.2939
X5.6939Y-3.3939
X5.7564Y-4.2439
X5.7952Y-5.5689
X5.8002Y-6.0439
X5.8502Y-4.9939
X5.8502Y-6.4939
X5.9439Y-3.4939
X9.025Y-3.3937
X9.025Y-4.1437
X9.025Y-4.8937
X9.025Y-5.6437
X9.025Y-6.3937
X9.275Y-3.4937
X9.275Y-4.2437
X9.275Y-4.9937
X9.275Y-5.7437
X9.275Y-6.4937
X9.6937Y-4.25
X9.6937Y-5.1875
X9.725Y-3.6938
X9.775Y-5.6437
X9.775Y-6.3937
X9.78Y-3.3188
X9.8625Y-4.4437
X9.875Y-5.3687
X9.9625Y-4.1937
X9.975Y-3.7937
X10.025Y-5.7437
X10.025Y-6.4937
X10.0687Y-4.8687
X10.15Y-3.3937
X10.1687Y-4.6187
X10.4Y-3.4937
X10.4437Y-5.2437
X10.475Y-3.6938
X10.525Y-6.3937
X10.5437Y-4.9937
X10.72Y-3.3188
X10.725Y-3.7937
X10.775Y-6.4937
X10.8063Y-5.6437
X10.8125Y-5.3687
X10.9Y-4.1437
X10.9125Y-5.2437
X11.0125Y-4.9937
X11.0563Y-5.7437
X11.15Y-4.2437
X11.275Y-3.3937
X11.4625Y-4.8937
X11.525Y-3.4937
X11.65Y-4.1437
X11.7125Y-4.9937
X11.7438Y-6.3937
X11.8375Y-5.6437
X11.9Y-4.2437
X11.9938Y-6.4937
X12.025Y-3.3937
X12.0875Y-5.7437
X12.2125Y-4.8937
X12.275Y-3.4937
X12.4Y-4.1437
X12.4625Y-4.9937
X12.5875Y-5.6437
X12.65Y-4.2437
X12.6813Y-6.3937
X12.775Y-3.3937
X12.8375Y-5.7437
X12.9313Y-6.4937
X12.9625Y-4.8937
X13.025Y-3.4937
X13.15Y-4.1437
X13.2125Y-4.9937
X13.3375Y-5.6437
X13.4Y-4.2437
X13.525Y-3.3937
X13.5875Y-5.7437
X13.6188Y-6.3937
X13.7125Y-4.8937
X13.775Y-3.4937
X13.8688Y-6.4937
X13.9Y-4.1437
X13.9625Y-4.9937
X14.0875Y-5.6437
X14.15Y-4.2437
X14.275Y-3.3937
X14.3375Y-5.7437
X14.4625Y-4.8937
X14.525Y-3.4937
X14.5612Y-6.8687
X14.65Y-4.1437
X14.7125Y-4.9937
X14.8375Y-5.6437
X14.9Y-4.2437
X14.9313Y-6.3937
X15.025Y-3.3937
X15.0875Y-5.7437
X15.1813Y-6.4937
X15.2125Y-4.8937
X15.275Y-3.4937
X15.4Y-4.1437
X15.4625Y-4.9937
X15.5012Y-6.8687
X15.65Y-4.2437
T5
X1.1064Y-5.8439
X1.2939Y-3.5939
X1.4814Y-5.0939
X1.6689Y-4.3439
X1.8552Y-6.2689
X1.8564Y-5.8439
X2.0439Y-3.5939
X2.2314Y-5.0939
X2.3252Y-6.5939
X2.4189Y-4.3439
X2.6064Y-5.8439
X2.7939Y-3.5939
X2.7952Y-6.2689
X2.9814Y-5.0939
X3.1689Y-4.3439
X3.3564Y-5.8439
X3.5439Y-3.5939
X3.7314Y-5.0939
X3.8252Y-6.5939
X3.9189Y-4.3439
X4.1064Y-5.8439
X4.2939Y-3.5939
X4.4814Y-5.0939
X4.6689Y-4.3439
X4.7627Y-6.5939
X4.8552Y-6.1689
X4.8564Y-5.8439
X5.0439Y-3.5939
X5.3252Y-5.8439
X5.5127Y-5.0939
X5.6064Y-4.3439
X5.7002Y-5.0939
X5.7002Y-5.8439
X5.7002Y-6.5939
X5.7939Y-3.5939
X5.7952Y-6.1689
X9.125Y-3.5938
X9.125Y-4.3438
X9.125Y-5.0938
X9.125Y-5.8438
X9.125Y-6.5938
X9.78Y-3.9187
X9.875Y-3.5938
X9.875Y-4.7687
X9.875Y-5.8438
X9.875Y-6.5938
X9.9688Y-4.7188
X10.0625Y-4.3438
X10.25Y-3.5938
X10.2937Y-4.25
X10.2937Y-5.1875
X10.3438Y-5.0938
X10.625Y-3.5938
X10.625Y-6.5938
X10.72Y-3.9187
X10.8125Y-4.7687
X10.8125Y-5.0938
X10.9062Y-5.8438
X11.0Y-4.3438
X11.375Y-3.5938
X11.5625Y-5.0938
X11.75Y-4.3438
X11.8438Y-6.5938
X11.9375Y-5.8438
X12.125Y-3.5938
X12.3125Y-5.0938
X12.5Y-4.3438
X12.6875Y-5.8438
X12.7812Y-6.5938
X12.875Y-3.5938
X13.0625Y-5.0938
X13.25Y-4.3438
X13.4375Y-5.8438
X13.625Y-3.5938
X13.7188Y-6.5938
X13.8125Y-5.0938
X14.0Y-4.3438
X14.1875Y-5.8438
X14.375Y-3.5938
X14.5612Y-6.2687
X14.5625Y-5.0938
X14.75Y-4.3438
X14.9375Y-5.8438
X15.0312Y-6.5938
X15.125Y-3.5938
X15.3125Y-5.0938
X15.5Y-4.3438
X15.5012Y-6.2687
T0
M30
