M48
; DRILL file {KiCad (6.0.5)} date Sun Nov  6 21:59:18 2022
; FORMAT={-:-/ absolute / inch / decimal}
; #@! TF.CreationDate,2022-11-06T21:59:18-06:00
; #@! TF.GenerationSoftware,Kicad,Pcbnew,(6.0.5)
; #@! TF.FileFunction,Plated,1,2,PTH
FMAT,2
INCH
; #@! TA.AperFunction,Plated,PTH,ViaDrill
T1C0.0157
; #@! TA.AperFunction,Plated,PTH,ComponentDrill
T2C0.0315
; #@! TA.AperFunction,Plated,PTH,ComponentDrill
T3C0.0354
; #@! TA.AperFunction,Plated,PTH,ComponentDrill
T4C0.0394
; #@! TA.AperFunction,Plated,PTH,ComponentDrill
T5C0.0430
; #@! TA.AperFunction,Plated,PTH,ComponentDrill
T6C0.0591
; #@! TA.AperFunction,Plated,PTH,ComponentDrill
T7C0.0866
%
G90
G05
T1
X0.7789Y-5.5389
X0.8639Y-5.7439
X1.0539Y-3.4739
X1.0939Y-3.7389
X1.2439Y-4.9839
X1.3439Y-3.9889
X1.3489Y-4.4839
X1.4289Y-4.0439
X1.4689Y-3.8289
X1.5102Y-5.6426
X1.6308Y-3.7876
X1.7289Y-3.7839
X1.8052Y-3.5226
X1.8952Y-4.8926
X2.0802Y-4.1426
X2.0852Y-6.2826
X2.2702Y-5.6426
X2.4502Y-3.3926
X2.6352Y-4.8926
X2.8302Y-4.1476
X3.0102Y-5.6476
X3.2052Y-3.3926
X3.2889Y-6.9189
X3.3902Y-4.8926
X3.5802Y-4.1426
X3.5852Y-6.2626
X3.6902Y-6.7926
X3.7552Y-5.6464
X3.7602Y-6.9076
X3.9602Y-3.3926
X4.1452Y-4.8926
X4.3302Y-4.1426
X4.4189Y-6.0739
X4.4302Y-6.3926
X4.5239Y-5.8239
X4.7102Y-3.3926
X4.7539Y-3.7389
X4.9887Y-5.6426
X5.0952Y-5.9426
X5.1089Y-4.9739
X5.1837Y-4.8926
X5.2452Y-4.1426
X5.3039Y-6.0339
X5.3552Y-6.3926
X5.3652Y-4.0276
X5.4602Y-3.3926
X5.5889Y-5.8389
X5.9402Y-6.1776
X5.9739Y-4.0739
X6.0339Y-4.7339
X6.0702Y-4.8126
X6.0789Y-6.3689
X6.1102Y-4.7676
X6.1189Y-6.2089
X6.1452Y-4.7276
X6.1739Y-4.6944
X6.197Y-4.6626
X6.3539Y-4.4139
X6.3637Y-3.8491
X6.3689Y-3.9289
X6.3689Y-4.0489
X6.3689Y-4.1689
X6.6839Y-3.3839
X6.6839Y-6.0039
X6.8939Y-3.8089
X8.3639Y-4.2139
X8.4089Y-4.8989
X8.415Y-4.6539
X8.4389Y-5.0889
X8.4439Y-4.9489
X8.4439Y-5.0144
X8.4539Y-4.7939
X8.455Y-4.485
X8.505Y-4.395
X8.5089Y-4.2289
X8.5139Y-5.5139
X8.5239Y-4.7339
X8.5239Y-4.8389
X8.5289Y-5.0139
X8.5312Y-5.2425
X8.7212Y-5.0925
X8.7263Y-4.9925
X8.7263Y-5.1875
X8.7389Y-4.9189
X8.7389Y-5.0439
X8.7439Y-5.1389
X8.7613Y-5.2375
X8.8089Y-4.7739
X8.8439Y-5.4489
X8.8513Y-4.9925
X8.8513Y-5.0425
X8.8589Y-5.1389
X8.8763Y-4.2525
X8.8789Y-3.4689
X8.8863Y-4.0175
X8.8863Y-5.7375
X8.8863Y-6.2975
X8.9135Y-5.5339
X8.9189Y-3.6689
X8.9289Y-4.7739
X8.9889Y-5.4489
X8.9989Y-4.3189
X9.2489Y-4.3489
X9.2489Y-5.0989
X9.3439Y-3.6689
X9.3461Y-4.5373
X9.3789Y-5.8989
X9.3989Y-3.3639
X9.4112Y-3.9075
X9.4112Y-3.9575
X9.4262Y-4.8375
X9.4313Y-4.7068
X9.4389Y-5.3389
X9.4612Y-4.4575
X9.4677Y-4.8475
X9.4812Y-6.0375
X9.4839Y-5.6039
X9.4839Y-6.7889
X9.5412Y-5.6425
X9.5412Y-6.3925
X9.5425Y-4.6725
X9.5463Y-4.4575
X9.5639Y-3.8589
X9.5663Y-4.8125
X9.5762Y-6.141
X9.5939Y-3.3639
X9.6039Y-3.5739
X9.6039Y-5.8489
X9.6089Y-5.3089
X9.62Y-3.87
X9.625Y-4.405
X9.625Y-4.53
X9.66Y-5.725
X9.6612Y-5.056
X9.8739Y-5.6289
X9.875Y-4.14
X9.8939Y-4.9189
X9.9062Y-3.4875
X9.9189Y-5.7289
X9.9362Y-3.9425
X9.9663Y-4.5875
X9.9689Y-3.6789
X9.9739Y-4.8439
X10.0214Y-3.5314
X10.0439Y-4.0739
X10.0589Y-4.4689
X10.0612Y-3.5125
X10.0762Y-4.2325
X10.1263Y-3.7025
X10.1339Y-4.1439
X10.1363Y-4.0875
X10.1489Y-3.5239
X10.1689Y-3.7039
X10.1762Y-4.3625
X10.1889Y-4.7239
X10.2189Y-3.9289
X10.2189Y-4.1539
X10.2862Y-6.3925
X10.3639Y-3.6089
X10.4389Y-5.4789
X10.4889Y-4.1589
X10.5139Y-3.5839
X10.5412Y-4.7225
X10.5563Y-5.6425
X10.5989Y-5.5789
X10.5989Y-5.9439
X10.6189Y-3.2589
X10.6612Y-4.1425
X10.6739Y-3.7039
X10.8089Y-3.2589
X10.9589Y-5.7139
X10.9612Y-3.7925
X11.0362Y-3.3925
X11.1312Y-4.8575
X11.1339Y-5.6739
X11.2212Y-4.8925
X11.4112Y-4.1425
X11.4539Y-4.5289
X11.4962Y-6.3975
X11.5962Y-5.6425
X11.7862Y-3.3925
X11.9763Y-4.8925
X12.1612Y-4.1375
X12.3513Y-5.6425
X12.4313Y-6.3925
X12.5362Y-3.3925
X12.7312Y-4.8925
X12.9112Y-4.1425
X13.1013Y-5.6425
X13.2862Y-3.3875
X13.3513Y-6.3925
X13.4139Y-3.0139
X13.4763Y-4.8925
X13.5139Y-3.1839
X13.6662Y-4.1425
X13.8513Y-5.6425
X14.0312Y-3.3925
X14.2212Y-4.8975
X14.4112Y-4.1425
X14.6013Y-5.6425
X14.6913Y-6.3925
X14.7912Y-3.3925
X14.9712Y-4.8925
X15.1612Y-4.1425
T2
X8.3559Y-4.4429
X8.3559Y-4.5429
X8.3559Y-4.6429
X8.3559Y-4.7429
X8.3559Y-4.8429
X8.3559Y-4.9429
X8.3559Y-5.0429
X8.3559Y-5.1429
X8.3559Y-5.2429
X8.3559Y-5.3429
X8.3559Y-5.4429
X8.3559Y-5.5429
X8.3559Y-5.6429
X8.3559Y-5.7429
X8.6559Y-4.4429
X8.6559Y-4.5429
X8.6559Y-4.6429
X8.6559Y-4.7429
X8.6559Y-4.8429
X8.6559Y-4.9429
X8.6559Y-5.0429
X8.6559Y-5.1429
X8.6559Y-5.2429
X8.6559Y-5.3429
X8.6559Y-5.4429
X8.6559Y-5.5429
X8.6559Y-5.6429
X8.6559Y-5.7429
T4
X6.5898Y-4.6564
X6.6417Y-5.9222
X6.6417Y-6.493
X6.6898Y-4.6564
X6.7402Y-5.9222
X6.7898Y-4.6564
X6.8386Y-5.9222
X6.8386Y-6.493
X6.8898Y-4.6564
X8.3566Y-4.3025
X8.4566Y-4.3025
X8.5566Y-4.3025
X8.6566Y-4.3025
T5
X6.4402Y-3.3776
X6.4402Y-3.4776
X6.4402Y-3.5776
X6.4402Y-3.6776
X6.4402Y-3.7776
X6.4402Y-3.8776
X6.4402Y-3.9776
X6.4402Y-4.0776
X6.4402Y-4.1776
X6.4402Y-4.2776
X6.4402Y-4.3776
X6.4402Y-4.4776
X7.0402Y-3.3776
X7.0402Y-3.4776
X7.0402Y-3.5776
X7.0402Y-3.6776
X7.0402Y-3.7776
X7.0402Y-3.8776
X7.0402Y-3.9776
X7.0402Y-4.0776
X7.0402Y-4.1776
X7.0402Y-4.2776
X7.0402Y-4.3776
X7.0402Y-4.4776
T7
X1.55Y-6.24
X1.67Y-3.97
X6.065Y-4.16
X6.065Y-6.675
X9.3999Y-6.218
X9.55Y-4.1
X15.105Y-6.18
X15.2802Y-3.9669
T3
G00X2.8184Y-3.1882
M15
G01X2.8026Y-3.1882
M16
G05
G00X2.9365Y-3.1882
M15
G01X2.9207Y-3.1882
M16
G05
G00X3.094Y-3.1882
M15
G01X3.0782Y-3.1882
M16
G05
G00X3.1373Y-3.0071
M15
G01X3.1215Y-3.0071
M16
G05
G00X13.2817Y-3.1881
M15
G01X13.2974Y-3.1881
M16
G05
G00X13.325Y-3.007
M15
G01X13.3407Y-3.007
M16
G05
G00X13.4825Y-3.007
M15
G01X13.4982Y-3.007
M16
G05
G00X13.6006Y-3.007
M15
G01X13.6163Y-3.007
M16
G05
T6
G00X6.5197Y-6.1919
M15
G01X6.5197Y-6.243
M16
G05
G00X6.9606Y-6.1919
M15
G01X6.9606Y-6.243
M16
G05
T0
M30
