G04 #@! TF.GenerationSoftware,KiCad,Pcbnew,(6.0.5)*
G04 #@! TF.CreationDate,2022-10-04T19:33:22-05:00*
G04 #@! TF.ProjectId,kintsugi_v2,6b696e74-7375-4676-995f-76322e6b6963,rev?*
G04 #@! TF.SameCoordinates,Original*
G04 #@! TF.FileFunction,Legend,Top*
G04 #@! TF.FilePolarity,Positive*
%FSLAX46Y46*%
G04 Gerber Fmt 4.6, Leading zero omitted, Abs format (unit mm)*
G04 Created by KiCad (PCBNEW (6.0.5)) date 2022-10-04 19:33:22*
%MOMM*%
%LPD*%
G01*
G04 APERTURE LIST*
%ADD10C,0.150000*%
%ADD11C,0.100000*%
%ADD12C,0.120000*%
%ADD13C,0.381000*%
%ADD14R,1.752600X1.752600*%
%ADD15C,1.752600*%
G04 APERTURE END LIST*
D10*
X125277654Y-98750630D02*
X125277654Y-97750630D01*
X125515750Y-97750630D01*
X125658607Y-97798250D01*
X125753845Y-97893488D01*
X125801464Y-97988726D01*
X125849083Y-98179202D01*
X125849083Y-98322059D01*
X125801464Y-98512535D01*
X125753845Y-98607773D01*
X125658607Y-98703011D01*
X125515750Y-98750630D01*
X125277654Y-98750630D01*
X126230035Y-97845869D02*
X126277654Y-97798250D01*
X126372892Y-97750630D01*
X126610988Y-97750630D01*
X126706226Y-97798250D01*
X126753845Y-97845869D01*
X126801464Y-97941107D01*
X126801464Y-98036345D01*
X126753845Y-98179202D01*
X126182416Y-98750630D01*
X126801464Y-98750630D01*
X228460820Y-174947852D02*
X228460820Y-173947852D01*
X228698915Y-173947852D01*
X228841772Y-173995472D01*
X228937010Y-174090710D01*
X228984629Y-174185948D01*
X229032248Y-174376424D01*
X229032248Y-174519281D01*
X228984629Y-174709757D01*
X228937010Y-174804995D01*
X228841772Y-174900233D01*
X228698915Y-174947852D01*
X228460820Y-174947852D01*
X229889391Y-173947852D02*
X229698915Y-173947852D01*
X229603677Y-173995472D01*
X229556058Y-174043091D01*
X229460820Y-174185948D01*
X229413201Y-174376424D01*
X229413201Y-174757376D01*
X229460820Y-174852614D01*
X229508439Y-174900233D01*
X229603677Y-174947852D01*
X229794153Y-174947852D01*
X229889391Y-174900233D01*
X229937010Y-174852614D01*
X229984629Y-174757376D01*
X229984629Y-174519281D01*
X229937010Y-174424043D01*
X229889391Y-174376424D01*
X229794153Y-174328805D01*
X229603677Y-174328805D01*
X229508439Y-174376424D01*
X229460820Y-174424043D01*
X229413201Y-174519281D01*
X230556058Y-174376424D02*
X230460820Y-174328805D01*
X230413201Y-174281186D01*
X230365582Y-174185948D01*
X230365582Y-174138329D01*
X230413201Y-174043091D01*
X230460820Y-173995472D01*
X230556058Y-173947852D01*
X230746534Y-173947852D01*
X230841772Y-173995472D01*
X230889391Y-174043091D01*
X230937010Y-174138329D01*
X230937010Y-174185948D01*
X230889391Y-174281186D01*
X230841772Y-174328805D01*
X230746534Y-174376424D01*
X230556058Y-174376424D01*
X230460820Y-174424043D01*
X230413201Y-174471662D01*
X230365582Y-174566900D01*
X230365582Y-174757376D01*
X230413201Y-174852614D01*
X230460820Y-174900233D01*
X230556058Y-174947852D01*
X230746534Y-174947852D01*
X230841772Y-174900233D01*
X230889391Y-174852614D01*
X230937010Y-174757376D01*
X230937010Y-174566900D01*
X230889391Y-174471662D01*
X230841772Y-174424043D01*
X230746534Y-174376424D01*
X290309820Y-136847852D02*
X290309820Y-135847852D01*
X290547915Y-135847852D01*
X290690772Y-135895472D01*
X290786010Y-135990710D01*
X290833629Y-136085948D01*
X290881248Y-136276424D01*
X290881248Y-136419281D01*
X290833629Y-136609757D01*
X290786010Y-136704995D01*
X290690772Y-136800233D01*
X290547915Y-136847852D01*
X290309820Y-136847852D01*
X291738391Y-136181186D02*
X291738391Y-136847852D01*
X291500296Y-135800233D02*
X291262201Y-136514519D01*
X291881248Y-136514519D01*
X292214582Y-135943091D02*
X292262201Y-135895472D01*
X292357439Y-135847852D01*
X292595534Y-135847852D01*
X292690772Y-135895472D01*
X292738391Y-135943091D01*
X292786010Y-136038329D01*
X292786010Y-136133567D01*
X292738391Y-136276424D01*
X292166963Y-136847852D01*
X292786010Y-136847852D01*
X106227654Y-98750630D02*
X106227654Y-97750630D01*
X106465750Y-97750630D01*
X106608607Y-97798250D01*
X106703845Y-97893488D01*
X106751464Y-97988726D01*
X106799083Y-98179202D01*
X106799083Y-98322059D01*
X106751464Y-98512535D01*
X106703845Y-98607773D01*
X106608607Y-98703011D01*
X106465750Y-98750630D01*
X106227654Y-98750630D01*
X107132416Y-97750630D02*
X107751464Y-97750630D01*
X107418130Y-98131583D01*
X107560988Y-98131583D01*
X107656226Y-98179202D01*
X107703845Y-98226821D01*
X107751464Y-98322059D01*
X107751464Y-98560154D01*
X107703845Y-98655392D01*
X107656226Y-98703011D01*
X107560988Y-98750630D01*
X107275273Y-98750630D01*
X107180035Y-98703011D01*
X107132416Y-98655392D01*
X342760820Y-98747852D02*
X342760820Y-97747852D01*
X342998915Y-97747852D01*
X343141772Y-97795472D01*
X343237010Y-97890710D01*
X343284629Y-97985948D01*
X343332248Y-98176424D01*
X343332248Y-98319281D01*
X343284629Y-98509757D01*
X343237010Y-98604995D01*
X343141772Y-98700233D01*
X342998915Y-98747852D01*
X342760820Y-98747852D01*
X344284629Y-98747852D02*
X343713201Y-98747852D01*
X343998915Y-98747852D02*
X343998915Y-97747852D01*
X343903677Y-97890710D01*
X343808439Y-97985948D01*
X343713201Y-98033567D01*
X344903677Y-97747852D02*
X344998915Y-97747852D01*
X345094153Y-97795472D01*
X345141772Y-97843091D01*
X345189391Y-97938329D01*
X345237010Y-98128805D01*
X345237010Y-98366900D01*
X345189391Y-98557376D01*
X345141772Y-98652614D01*
X345094153Y-98700233D01*
X344998915Y-98747852D01*
X344903677Y-98747852D01*
X344808439Y-98700233D01*
X344760820Y-98652614D01*
X344713201Y-98557376D01*
X344665582Y-98366900D01*
X344665582Y-98128805D01*
X344713201Y-97938329D01*
X344760820Y-97843091D01*
X344808439Y-97795472D01*
X344903677Y-97747852D01*
X160980130Y-163107535D02*
X159980130Y-163107535D01*
X159980130Y-162869440D01*
X160027750Y-162726583D01*
X160122988Y-162631345D01*
X160218226Y-162583726D01*
X160408702Y-162536107D01*
X160551559Y-162536107D01*
X160742035Y-162583726D01*
X160837273Y-162631345D01*
X160932511Y-162726583D01*
X160980130Y-162869440D01*
X160980130Y-163107535D01*
X159980130Y-162202773D02*
X159980130Y-161583726D01*
X160361083Y-161917059D01*
X160361083Y-161774202D01*
X160408702Y-161678964D01*
X160456321Y-161631345D01*
X160551559Y-161583726D01*
X160789654Y-161583726D01*
X160884892Y-161631345D01*
X160932511Y-161678964D01*
X160980130Y-161774202D01*
X160980130Y-162059916D01*
X160932511Y-162155154D01*
X160884892Y-162202773D01*
X159980130Y-160964678D02*
X159980130Y-160869440D01*
X160027750Y-160774202D01*
X160075369Y-160726583D01*
X160170607Y-160678964D01*
X160361083Y-160631345D01*
X160599178Y-160631345D01*
X160789654Y-160678964D01*
X160884892Y-160726583D01*
X160932511Y-160774202D01*
X160980130Y-160869440D01*
X160980130Y-160964678D01*
X160932511Y-161059916D01*
X160884892Y-161107535D01*
X160789654Y-161155154D01*
X160599178Y-161202773D01*
X160361083Y-161202773D01*
X160170607Y-161155154D01*
X160075369Y-161107535D01*
X160027750Y-161059916D01*
X159980130Y-160964678D01*
X117689464Y-174950630D02*
X117689464Y-173950630D01*
X117927559Y-173950630D01*
X118070416Y-173998250D01*
X118165654Y-174093488D01*
X118213273Y-174188726D01*
X118260892Y-174379202D01*
X118260892Y-174522059D01*
X118213273Y-174712535D01*
X118165654Y-174807773D01*
X118070416Y-174903011D01*
X117927559Y-174950630D01*
X117689464Y-174950630D01*
X119118035Y-173950630D02*
X118927559Y-173950630D01*
X118832321Y-173998250D01*
X118784702Y-174045869D01*
X118689464Y-174188726D01*
X118641845Y-174379202D01*
X118641845Y-174760154D01*
X118689464Y-174855392D01*
X118737083Y-174903011D01*
X118832321Y-174950630D01*
X119022797Y-174950630D01*
X119118035Y-174903011D01*
X119165654Y-174855392D01*
X119213273Y-174760154D01*
X119213273Y-174522059D01*
X119165654Y-174426821D01*
X119118035Y-174379202D01*
X119022797Y-174331583D01*
X118832321Y-174331583D01*
X118737083Y-174379202D01*
X118689464Y-174426821D01*
X118641845Y-174522059D01*
X119689464Y-174950630D02*
X119879940Y-174950630D01*
X119975178Y-174903011D01*
X120022797Y-174855392D01*
X120118035Y-174712535D01*
X120165654Y-174522059D01*
X120165654Y-174141107D01*
X120118035Y-174045869D01*
X120070416Y-173998250D01*
X119975178Y-173950630D01*
X119784702Y-173950630D01*
X119689464Y-173998250D01*
X119641845Y-174045869D01*
X119594226Y-174141107D01*
X119594226Y-174379202D01*
X119641845Y-174474440D01*
X119689464Y-174522059D01*
X119784702Y-174569678D01*
X119975178Y-174569678D01*
X120070416Y-174522059D01*
X120118035Y-174474440D01*
X120165654Y-174379202D01*
X149741130Y-134532535D02*
X148741130Y-134532535D01*
X148741130Y-134294440D01*
X148788750Y-134151583D01*
X148883988Y-134056345D01*
X148979226Y-134008726D01*
X149169702Y-133961107D01*
X149312559Y-133961107D01*
X149503035Y-134008726D01*
X149598273Y-134056345D01*
X149693511Y-134151583D01*
X149741130Y-134294440D01*
X149741130Y-134532535D01*
X148741130Y-133627773D02*
X148741130Y-133008726D01*
X149122083Y-133342059D01*
X149122083Y-133199202D01*
X149169702Y-133103964D01*
X149217321Y-133056345D01*
X149312559Y-133008726D01*
X149550654Y-133008726D01*
X149645892Y-133056345D01*
X149693511Y-133103964D01*
X149741130Y-133199202D01*
X149741130Y-133484916D01*
X149693511Y-133580154D01*
X149645892Y-133627773D01*
X149741130Y-132056345D02*
X149741130Y-132627773D01*
X149741130Y-132342059D02*
X148741130Y-132342059D01*
X148883988Y-132437297D01*
X148979226Y-132532535D01*
X149026845Y-132627773D01*
X385559820Y-136847852D02*
X385559820Y-135847852D01*
X385797915Y-135847852D01*
X385940772Y-135895472D01*
X386036010Y-135990710D01*
X386083629Y-136085948D01*
X386131248Y-136276424D01*
X386131248Y-136419281D01*
X386083629Y-136609757D01*
X386036010Y-136704995D01*
X385940772Y-136800233D01*
X385797915Y-136847852D01*
X385559820Y-136847852D01*
X386464582Y-135847852D02*
X387083629Y-135847852D01*
X386750296Y-136228805D01*
X386893153Y-136228805D01*
X386988391Y-136276424D01*
X387036010Y-136324043D01*
X387083629Y-136419281D01*
X387083629Y-136657376D01*
X387036010Y-136752614D01*
X386988391Y-136800233D01*
X386893153Y-136847852D01*
X386607439Y-136847852D01*
X386512201Y-136800233D01*
X386464582Y-136752614D01*
X387416963Y-135847852D02*
X388083629Y-135847852D01*
X387655058Y-136847852D01*
X295135820Y-117797852D02*
X295135820Y-116797852D01*
X295373915Y-116797852D01*
X295516772Y-116845472D01*
X295612010Y-116940710D01*
X295659629Y-117035948D01*
X295707248Y-117226424D01*
X295707248Y-117369281D01*
X295659629Y-117559757D01*
X295612010Y-117654995D01*
X295516772Y-117750233D01*
X295373915Y-117797852D01*
X295135820Y-117797852D01*
X296088201Y-116893091D02*
X296135820Y-116845472D01*
X296231058Y-116797852D01*
X296469153Y-116797852D01*
X296564391Y-116845472D01*
X296612010Y-116893091D01*
X296659629Y-116988329D01*
X296659629Y-117083567D01*
X296612010Y-117226424D01*
X296040582Y-117797852D01*
X296659629Y-117797852D01*
X296992963Y-116797852D02*
X297659629Y-116797852D01*
X297231058Y-117797852D01*
X273672820Y-155897852D02*
X273672820Y-154897852D01*
X273910915Y-154897852D01*
X274053772Y-154945472D01*
X274149010Y-155040710D01*
X274196629Y-155135948D01*
X274244248Y-155326424D01*
X274244248Y-155469281D01*
X274196629Y-155659757D01*
X274149010Y-155754995D01*
X274053772Y-155850233D01*
X273910915Y-155897852D01*
X273672820Y-155897852D01*
X275149010Y-154897852D02*
X274672820Y-154897852D01*
X274625201Y-155374043D01*
X274672820Y-155326424D01*
X274768058Y-155278805D01*
X275006153Y-155278805D01*
X275101391Y-155326424D01*
X275149010Y-155374043D01*
X275196629Y-155469281D01*
X275196629Y-155707376D01*
X275149010Y-155802614D01*
X275101391Y-155850233D01*
X275006153Y-155897852D01*
X274768058Y-155897852D01*
X274672820Y-155850233D01*
X274625201Y-155802614D01*
X275529963Y-154897852D02*
X276196629Y-154897852D01*
X275768058Y-155897852D01*
X87177654Y-98750630D02*
X87177654Y-97750630D01*
X87415750Y-97750630D01*
X87558607Y-97798250D01*
X87653845Y-97893488D01*
X87701464Y-97988726D01*
X87749083Y-98179202D01*
X87749083Y-98322059D01*
X87701464Y-98512535D01*
X87653845Y-98607773D01*
X87558607Y-98703011D01*
X87415750Y-98750630D01*
X87177654Y-98750630D01*
X88606226Y-98083964D02*
X88606226Y-98750630D01*
X88368130Y-97703011D02*
X88130035Y-98417297D01*
X88749083Y-98417297D01*
X216395820Y-153722852D02*
X216491058Y-153722852D01*
X216586296Y-153770472D01*
X216633915Y-153818091D01*
X216681534Y-153913329D01*
X216729153Y-154103805D01*
X216729153Y-154341900D01*
X216681534Y-154532376D01*
X216633915Y-154627614D01*
X216586296Y-154675233D01*
X216491058Y-154722852D01*
X216395820Y-154722852D01*
X216300582Y-154675233D01*
X216252963Y-154627614D01*
X216205344Y-154532376D01*
X216157725Y-154341900D01*
X216157725Y-154103805D01*
X216205344Y-153913329D01*
X216252963Y-153818091D01*
X216300582Y-153770472D01*
X216395820Y-153722852D01*
X217157725Y-154627614D02*
X217205344Y-154675233D01*
X217157725Y-154722852D01*
X217110106Y-154675233D01*
X217157725Y-154627614D01*
X217157725Y-154722852D01*
X218157725Y-154722852D02*
X217586296Y-154722852D01*
X217872010Y-154722852D02*
X217872010Y-153722852D01*
X217776772Y-153865710D01*
X217681534Y-153960948D01*
X217586296Y-154008567D01*
X219014867Y-154056186D02*
X219014867Y-154722852D01*
X218586296Y-154056186D02*
X218586296Y-154579995D01*
X218633915Y-154675233D01*
X218729153Y-154722852D01*
X218872010Y-154722852D01*
X218967248Y-154675233D01*
X219014867Y-154627614D01*
X100925464Y-155900630D02*
X100925464Y-154900630D01*
X101163559Y-154900630D01*
X101306416Y-154948250D01*
X101401654Y-155043488D01*
X101449273Y-155138726D01*
X101496892Y-155329202D01*
X101496892Y-155472059D01*
X101449273Y-155662535D01*
X101401654Y-155757773D01*
X101306416Y-155853011D01*
X101163559Y-155900630D01*
X100925464Y-155900630D01*
X102354035Y-155233964D02*
X102354035Y-155900630D01*
X102115940Y-154853011D02*
X101877845Y-155567297D01*
X102496892Y-155567297D01*
X102782607Y-154900630D02*
X103449273Y-154900630D01*
X103020702Y-155900630D01*
X252463820Y-102557852D02*
X252463820Y-101557852D01*
X252701915Y-101557852D01*
X252844772Y-101605472D01*
X252940010Y-101700710D01*
X252987629Y-101795948D01*
X253035248Y-101986424D01*
X253035248Y-102129281D01*
X252987629Y-102319757D01*
X252940010Y-102414995D01*
X252844772Y-102510233D01*
X252701915Y-102557852D01*
X252463820Y-102557852D01*
X253987629Y-102557852D02*
X253416201Y-102557852D01*
X253701915Y-102557852D02*
X253701915Y-101557852D01*
X253606677Y-101700710D01*
X253511439Y-101795948D01*
X253416201Y-101843567D01*
X254892391Y-101557852D02*
X254416201Y-101557852D01*
X254368582Y-102034043D01*
X254416201Y-101986424D01*
X254511439Y-101938805D01*
X254749534Y-101938805D01*
X254844772Y-101986424D01*
X254892391Y-102034043D01*
X254940010Y-102129281D01*
X254940010Y-102367376D01*
X254892391Y-102462614D01*
X254844772Y-102510233D01*
X254749534Y-102557852D01*
X254511439Y-102557852D01*
X254416201Y-102510233D01*
X254368582Y-102462614D01*
X53300464Y-136850630D02*
X53300464Y-135850630D01*
X53538559Y-135850630D01*
X53681416Y-135898250D01*
X53776654Y-135993488D01*
X53824273Y-136088726D01*
X53871892Y-136279202D01*
X53871892Y-136422059D01*
X53824273Y-136612535D01*
X53776654Y-136707773D01*
X53681416Y-136803011D01*
X53538559Y-136850630D01*
X53300464Y-136850630D01*
X54205226Y-135850630D02*
X54824273Y-135850630D01*
X54490940Y-136231583D01*
X54633797Y-136231583D01*
X54729035Y-136279202D01*
X54776654Y-136326821D01*
X54824273Y-136422059D01*
X54824273Y-136660154D01*
X54776654Y-136755392D01*
X54729035Y-136803011D01*
X54633797Y-136850630D01*
X54348083Y-136850630D01*
X54252845Y-136803011D01*
X54205226Y-136755392D01*
X55729035Y-135850630D02*
X55252845Y-135850630D01*
X55205226Y-136326821D01*
X55252845Y-136279202D01*
X55348083Y-136231583D01*
X55586178Y-136231583D01*
X55681416Y-136279202D01*
X55729035Y-136326821D01*
X55776654Y-136422059D01*
X55776654Y-136660154D01*
X55729035Y-136755392D01*
X55681416Y-136803011D01*
X55586178Y-136850630D01*
X55348083Y-136850630D01*
X55252845Y-136803011D01*
X55205226Y-136755392D01*
X24725464Y-155900630D02*
X24725464Y-154900630D01*
X24963559Y-154900630D01*
X25106416Y-154948250D01*
X25201654Y-155043488D01*
X25249273Y-155138726D01*
X25296892Y-155329202D01*
X25296892Y-155472059D01*
X25249273Y-155662535D01*
X25201654Y-155757773D01*
X25106416Y-155853011D01*
X24963559Y-155900630D01*
X24725464Y-155900630D01*
X26201654Y-154900630D02*
X25725464Y-154900630D01*
X25677845Y-155376821D01*
X25725464Y-155329202D01*
X25820702Y-155281583D01*
X26058797Y-155281583D01*
X26154035Y-155329202D01*
X26201654Y-155376821D01*
X26249273Y-155472059D01*
X26249273Y-155710154D01*
X26201654Y-155805392D01*
X26154035Y-155853011D01*
X26058797Y-155900630D01*
X25820702Y-155900630D01*
X25725464Y-155853011D01*
X25677845Y-155805392D01*
X27201654Y-155900630D02*
X26630226Y-155900630D01*
X26915940Y-155900630D02*
X26915940Y-154900630D01*
X26820702Y-155043488D01*
X26725464Y-155138726D01*
X26630226Y-155186345D01*
X62825464Y-155900630D02*
X62825464Y-154900630D01*
X63063559Y-154900630D01*
X63206416Y-154948250D01*
X63301654Y-155043488D01*
X63349273Y-155138726D01*
X63396892Y-155329202D01*
X63396892Y-155472059D01*
X63349273Y-155662535D01*
X63301654Y-155757773D01*
X63206416Y-155853011D01*
X63063559Y-155900630D01*
X62825464Y-155900630D01*
X64254035Y-155233964D02*
X64254035Y-155900630D01*
X64015940Y-154853011D02*
X63777845Y-155567297D01*
X64396892Y-155567297D01*
X64825464Y-155900630D02*
X65015940Y-155900630D01*
X65111178Y-155853011D01*
X65158797Y-155805392D01*
X65254035Y-155662535D01*
X65301654Y-155472059D01*
X65301654Y-155091107D01*
X65254035Y-154995869D01*
X65206416Y-154948250D01*
X65111178Y-154900630D01*
X64920702Y-154900630D01*
X64825464Y-154948250D01*
X64777845Y-154995869D01*
X64730226Y-155091107D01*
X64730226Y-155329202D01*
X64777845Y-155424440D01*
X64825464Y-155472059D01*
X64920702Y-155519678D01*
X65111178Y-155519678D01*
X65206416Y-155472059D01*
X65254035Y-155424440D01*
X65301654Y-155329202D01*
X247510820Y-155897852D02*
X247510820Y-154897852D01*
X247748915Y-154897852D01*
X247891772Y-154945472D01*
X247987010Y-155040710D01*
X248034629Y-155135948D01*
X248082248Y-155326424D01*
X248082248Y-155469281D01*
X248034629Y-155659757D01*
X247987010Y-155754995D01*
X247891772Y-155850233D01*
X247748915Y-155897852D01*
X247510820Y-155897852D01*
X248987010Y-154897852D02*
X248510820Y-154897852D01*
X248463201Y-155374043D01*
X248510820Y-155326424D01*
X248606058Y-155278805D01*
X248844153Y-155278805D01*
X248939391Y-155326424D01*
X248987010Y-155374043D01*
X249034629Y-155469281D01*
X249034629Y-155707376D01*
X248987010Y-155802614D01*
X248939391Y-155850233D01*
X248844153Y-155897852D01*
X248606058Y-155897852D01*
X248510820Y-155850233D01*
X248463201Y-155802614D01*
X249606058Y-155326424D02*
X249510820Y-155278805D01*
X249463201Y-155231186D01*
X249415582Y-155135948D01*
X249415582Y-155088329D01*
X249463201Y-154993091D01*
X249510820Y-154945472D01*
X249606058Y-154897852D01*
X249796534Y-154897852D01*
X249891772Y-154945472D01*
X249939391Y-154993091D01*
X249987010Y-155088329D01*
X249987010Y-155135948D01*
X249939391Y-155231186D01*
X249891772Y-155278805D01*
X249796534Y-155326424D01*
X249606058Y-155326424D01*
X249510820Y-155374043D01*
X249463201Y-155421662D01*
X249415582Y-155516900D01*
X249415582Y-155707376D01*
X249463201Y-155802614D01*
X249510820Y-155850233D01*
X249606058Y-155897852D01*
X249796534Y-155897852D01*
X249891772Y-155850233D01*
X249939391Y-155802614D01*
X249987010Y-155707376D01*
X249987010Y-155516900D01*
X249939391Y-155421662D01*
X249891772Y-155374043D01*
X249796534Y-155326424D01*
X263052486Y-115511507D02*
X262052486Y-115511507D01*
X262052486Y-115273412D01*
X262100106Y-115130555D01*
X262195344Y-115035317D01*
X262290582Y-114987698D01*
X262481058Y-114940079D01*
X262623915Y-114940079D01*
X262814391Y-114987698D01*
X262909629Y-115035317D01*
X263004867Y-115130555D01*
X263052486Y-115273412D01*
X263052486Y-115511507D01*
X262147725Y-114559126D02*
X262100106Y-114511507D01*
X262052486Y-114416269D01*
X262052486Y-114178174D01*
X262100106Y-114082936D01*
X262147725Y-114035317D01*
X262242963Y-113987698D01*
X262338201Y-113987698D01*
X262481058Y-114035317D01*
X263052486Y-114606745D01*
X263052486Y-113987698D01*
X263052486Y-113511507D02*
X263052486Y-113321031D01*
X263004867Y-113225793D01*
X262957248Y-113178174D01*
X262814391Y-113082936D01*
X262623915Y-113035317D01*
X262242963Y-113035317D01*
X262147725Y-113082936D01*
X262100106Y-113130555D01*
X262052486Y-113225793D01*
X262052486Y-113416269D01*
X262100106Y-113511507D01*
X262147725Y-113559126D01*
X262242963Y-113606745D01*
X262481058Y-113606745D01*
X262576296Y-113559126D01*
X262623915Y-113511507D01*
X262671534Y-113416269D01*
X262671534Y-113225793D01*
X262623915Y-113130555D01*
X262576296Y-113082936D01*
X262481058Y-113035317D01*
X213321867Y-154636602D02*
X212750439Y-154636602D01*
X213036153Y-154636602D02*
X213036153Y-153636602D01*
X212940915Y-153779460D01*
X212845677Y-153874698D01*
X212750439Y-153922317D01*
X213940915Y-153636602D02*
X214036153Y-153636602D01*
X214131391Y-153684222D01*
X214179010Y-153731841D01*
X214226629Y-153827079D01*
X214274248Y-154017555D01*
X214274248Y-154255650D01*
X214226629Y-154446126D01*
X214179010Y-154541364D01*
X214131391Y-154588983D01*
X214036153Y-154636602D01*
X213940915Y-154636602D01*
X213845677Y-154588983D01*
X213798058Y-154541364D01*
X213750439Y-154446126D01*
X213702820Y-154255650D01*
X213702820Y-154017555D01*
X213750439Y-153827079D01*
X213798058Y-153731841D01*
X213845677Y-153684222D01*
X213940915Y-153636602D01*
X214702820Y-154636602D02*
X214702820Y-153636602D01*
X214798058Y-154255650D02*
X215083772Y-154636602D01*
X215083772Y-153969936D02*
X214702820Y-154350888D01*
X49077654Y-98750630D02*
X49077654Y-97750630D01*
X49315750Y-97750630D01*
X49458607Y-97798250D01*
X49553845Y-97893488D01*
X49601464Y-97988726D01*
X49649083Y-98179202D01*
X49649083Y-98322059D01*
X49601464Y-98512535D01*
X49553845Y-98607773D01*
X49458607Y-98703011D01*
X49315750Y-98750630D01*
X49077654Y-98750630D01*
X50506226Y-97750630D02*
X50315750Y-97750630D01*
X50220511Y-97798250D01*
X50172892Y-97845869D01*
X50077654Y-97988726D01*
X50030035Y-98179202D01*
X50030035Y-98560154D01*
X50077654Y-98655392D01*
X50125273Y-98703011D01*
X50220511Y-98750630D01*
X50410988Y-98750630D01*
X50506226Y-98703011D01*
X50553845Y-98655392D01*
X50601464Y-98560154D01*
X50601464Y-98322059D01*
X50553845Y-98226821D01*
X50506226Y-98179202D01*
X50410988Y-98131583D01*
X50220511Y-98131583D01*
X50125273Y-98179202D01*
X50077654Y-98226821D01*
X50030035Y-98322059D01*
X228460820Y-155897852D02*
X228460820Y-154897852D01*
X228698915Y-154897852D01*
X228841772Y-154945472D01*
X228937010Y-155040710D01*
X228984629Y-155135948D01*
X229032248Y-155326424D01*
X229032248Y-155469281D01*
X228984629Y-155659757D01*
X228937010Y-155754995D01*
X228841772Y-155850233D01*
X228698915Y-155897852D01*
X228460820Y-155897852D01*
X229937010Y-154897852D02*
X229460820Y-154897852D01*
X229413201Y-155374043D01*
X229460820Y-155326424D01*
X229556058Y-155278805D01*
X229794153Y-155278805D01*
X229889391Y-155326424D01*
X229937010Y-155374043D01*
X229984629Y-155469281D01*
X229984629Y-155707376D01*
X229937010Y-155802614D01*
X229889391Y-155850233D01*
X229794153Y-155897852D01*
X229556058Y-155897852D01*
X229460820Y-155850233D01*
X229413201Y-155802614D01*
X230460820Y-155897852D02*
X230651296Y-155897852D01*
X230746534Y-155850233D01*
X230794153Y-155802614D01*
X230889391Y-155659757D01*
X230937010Y-155469281D01*
X230937010Y-155088329D01*
X230889391Y-154993091D01*
X230841772Y-154945472D01*
X230746534Y-154897852D01*
X230556058Y-154897852D01*
X230460820Y-154945472D01*
X230413201Y-154993091D01*
X230365582Y-155088329D01*
X230365582Y-155326424D01*
X230413201Y-155421662D01*
X230460820Y-155469281D01*
X230556058Y-155516900D01*
X230746534Y-155516900D01*
X230841772Y-155469281D01*
X230889391Y-155421662D01*
X230937010Y-155326424D01*
X337934820Y-155897852D02*
X337934820Y-154897852D01*
X338172915Y-154897852D01*
X338315772Y-154945472D01*
X338411010Y-155040710D01*
X338458629Y-155135948D01*
X338506248Y-155326424D01*
X338506248Y-155469281D01*
X338458629Y-155659757D01*
X338411010Y-155754995D01*
X338315772Y-155850233D01*
X338172915Y-155897852D01*
X337934820Y-155897852D01*
X339411010Y-154897852D02*
X338934820Y-154897852D01*
X338887201Y-155374043D01*
X338934820Y-155326424D01*
X339030058Y-155278805D01*
X339268153Y-155278805D01*
X339363391Y-155326424D01*
X339411010Y-155374043D01*
X339458629Y-155469281D01*
X339458629Y-155707376D01*
X339411010Y-155802614D01*
X339363391Y-155850233D01*
X339268153Y-155897852D01*
X339030058Y-155897852D01*
X338934820Y-155850233D01*
X338887201Y-155802614D01*
X340315772Y-155231186D02*
X340315772Y-155897852D01*
X340077677Y-154850233D02*
X339839582Y-155564519D01*
X340458629Y-155564519D01*
X43775464Y-155900630D02*
X43775464Y-154900630D01*
X44013559Y-154900630D01*
X44156416Y-154948250D01*
X44251654Y-155043488D01*
X44299273Y-155138726D01*
X44346892Y-155329202D01*
X44346892Y-155472059D01*
X44299273Y-155662535D01*
X44251654Y-155757773D01*
X44156416Y-155853011D01*
X44013559Y-155900630D01*
X43775464Y-155900630D01*
X45251654Y-154900630D02*
X44775464Y-154900630D01*
X44727845Y-155376821D01*
X44775464Y-155329202D01*
X44870702Y-155281583D01*
X45108797Y-155281583D01*
X45204035Y-155329202D01*
X45251654Y-155376821D01*
X45299273Y-155472059D01*
X45299273Y-155710154D01*
X45251654Y-155805392D01*
X45204035Y-155853011D01*
X45108797Y-155900630D01*
X44870702Y-155900630D01*
X44775464Y-155853011D01*
X44727845Y-155805392D01*
X45918321Y-154900630D02*
X46013559Y-154900630D01*
X46108797Y-154948250D01*
X46156416Y-154995869D01*
X46204035Y-155091107D01*
X46251654Y-155281583D01*
X46251654Y-155519678D01*
X46204035Y-155710154D01*
X46156416Y-155805392D01*
X46108797Y-155853011D01*
X46013559Y-155900630D01*
X45918321Y-155900630D01*
X45823083Y-155853011D01*
X45775464Y-155805392D01*
X45727845Y-155710154D01*
X45680226Y-155519678D01*
X45680226Y-155281583D01*
X45727845Y-155091107D01*
X45775464Y-154995869D01*
X45823083Y-154948250D01*
X45918321Y-154900630D01*
X352285820Y-117797852D02*
X352285820Y-116797852D01*
X352523915Y-116797852D01*
X352666772Y-116845472D01*
X352762010Y-116940710D01*
X352809629Y-117035948D01*
X352857248Y-117226424D01*
X352857248Y-117369281D01*
X352809629Y-117559757D01*
X352762010Y-117654995D01*
X352666772Y-117750233D01*
X352523915Y-117797852D01*
X352285820Y-117797852D01*
X353238201Y-116893091D02*
X353285820Y-116845472D01*
X353381058Y-116797852D01*
X353619153Y-116797852D01*
X353714391Y-116845472D01*
X353762010Y-116893091D01*
X353809629Y-116988329D01*
X353809629Y-117083567D01*
X353762010Y-117226424D01*
X353190582Y-117797852D01*
X353809629Y-117797852D01*
X354666772Y-117131186D02*
X354666772Y-117797852D01*
X354428677Y-116750233D02*
X354190582Y-117464519D01*
X354809629Y-117464519D01*
X115276464Y-117800630D02*
X115276464Y-116800630D01*
X115514559Y-116800630D01*
X115657416Y-116848250D01*
X115752654Y-116943488D01*
X115800273Y-117038726D01*
X115847892Y-117229202D01*
X115847892Y-117372059D01*
X115800273Y-117562535D01*
X115752654Y-117657773D01*
X115657416Y-117753011D01*
X115514559Y-117800630D01*
X115276464Y-117800630D01*
X116800273Y-117800630D02*
X116228845Y-117800630D01*
X116514559Y-117800630D02*
X116514559Y-116800630D01*
X116419321Y-116943488D01*
X116324083Y-117038726D01*
X116228845Y-117086345D01*
X117133607Y-116800630D02*
X117800273Y-116800630D01*
X117371702Y-117800630D01*
X77176464Y-117800630D02*
X77176464Y-116800630D01*
X77414559Y-116800630D01*
X77557416Y-116848250D01*
X77652654Y-116943488D01*
X77700273Y-117038726D01*
X77747892Y-117229202D01*
X77747892Y-117372059D01*
X77700273Y-117562535D01*
X77652654Y-117657773D01*
X77557416Y-117753011D01*
X77414559Y-117800630D01*
X77176464Y-117800630D01*
X78700273Y-117800630D02*
X78128845Y-117800630D01*
X78414559Y-117800630D02*
X78414559Y-116800630D01*
X78319321Y-116943488D01*
X78224083Y-117038726D01*
X78128845Y-117086345D01*
X79176464Y-117800630D02*
X79366940Y-117800630D01*
X79462178Y-117753011D01*
X79509797Y-117705392D01*
X79605035Y-117562535D01*
X79652654Y-117372059D01*
X79652654Y-116991107D01*
X79605035Y-116895869D01*
X79557416Y-116848250D01*
X79462178Y-116800630D01*
X79271702Y-116800630D01*
X79176464Y-116848250D01*
X79128845Y-116895869D01*
X79081226Y-116991107D01*
X79081226Y-117229202D01*
X79128845Y-117324440D01*
X79176464Y-117372059D01*
X79271702Y-117419678D01*
X79462178Y-117419678D01*
X79557416Y-117372059D01*
X79605035Y-117324440D01*
X79652654Y-117229202D01*
X299834820Y-155897852D02*
X299834820Y-154897852D01*
X300072915Y-154897852D01*
X300215772Y-154945472D01*
X300311010Y-155040710D01*
X300358629Y-155135948D01*
X300406248Y-155326424D01*
X300406248Y-155469281D01*
X300358629Y-155659757D01*
X300311010Y-155754995D01*
X300215772Y-155850233D01*
X300072915Y-155897852D01*
X299834820Y-155897852D01*
X301311010Y-154897852D02*
X300834820Y-154897852D01*
X300787201Y-155374043D01*
X300834820Y-155326424D01*
X300930058Y-155278805D01*
X301168153Y-155278805D01*
X301263391Y-155326424D01*
X301311010Y-155374043D01*
X301358629Y-155469281D01*
X301358629Y-155707376D01*
X301311010Y-155802614D01*
X301263391Y-155850233D01*
X301168153Y-155897852D01*
X300930058Y-155897852D01*
X300834820Y-155850233D01*
X300787201Y-155802614D01*
X302215772Y-154897852D02*
X302025296Y-154897852D01*
X301930058Y-154945472D01*
X301882439Y-154993091D01*
X301787201Y-155135948D01*
X301739582Y-155326424D01*
X301739582Y-155707376D01*
X301787201Y-155802614D01*
X301834820Y-155850233D01*
X301930058Y-155897852D01*
X302120534Y-155897852D01*
X302215772Y-155850233D01*
X302263391Y-155802614D01*
X302311010Y-155707376D01*
X302311010Y-155469281D01*
X302263391Y-155374043D01*
X302215772Y-155326424D01*
X302120534Y-155278805D01*
X301930058Y-155278805D01*
X301834820Y-155326424D01*
X301787201Y-155374043D01*
X301739582Y-155469281D01*
X68127654Y-98750630D02*
X68127654Y-97750630D01*
X68365750Y-97750630D01*
X68508607Y-97798250D01*
X68603845Y-97893488D01*
X68651464Y-97988726D01*
X68699083Y-98179202D01*
X68699083Y-98322059D01*
X68651464Y-98512535D01*
X68603845Y-98607773D01*
X68508607Y-98703011D01*
X68365750Y-98750630D01*
X68127654Y-98750630D01*
X69603845Y-97750630D02*
X69127654Y-97750630D01*
X69080035Y-98226821D01*
X69127654Y-98179202D01*
X69222892Y-98131583D01*
X69460988Y-98131583D01*
X69556226Y-98179202D01*
X69603845Y-98226821D01*
X69651464Y-98322059D01*
X69651464Y-98560154D01*
X69603845Y-98655392D01*
X69556226Y-98703011D01*
X69460988Y-98750630D01*
X69222892Y-98750630D01*
X69127654Y-98703011D01*
X69080035Y-98655392D01*
X345173820Y-174947852D02*
X345173820Y-173947852D01*
X345411915Y-173947852D01*
X345554772Y-173995472D01*
X345650010Y-174090710D01*
X345697629Y-174185948D01*
X345745248Y-174376424D01*
X345745248Y-174519281D01*
X345697629Y-174709757D01*
X345650010Y-174804995D01*
X345554772Y-174900233D01*
X345411915Y-174947852D01*
X345173820Y-174947852D01*
X346602391Y-173947852D02*
X346411915Y-173947852D01*
X346316677Y-173995472D01*
X346269058Y-174043091D01*
X346173820Y-174185948D01*
X346126201Y-174376424D01*
X346126201Y-174757376D01*
X346173820Y-174852614D01*
X346221439Y-174900233D01*
X346316677Y-174947852D01*
X346507153Y-174947852D01*
X346602391Y-174900233D01*
X346650010Y-174852614D01*
X346697629Y-174757376D01*
X346697629Y-174519281D01*
X346650010Y-174424043D01*
X346602391Y-174376424D01*
X346507153Y-174328805D01*
X346316677Y-174328805D01*
X346221439Y-174376424D01*
X346173820Y-174424043D01*
X346126201Y-174519281D01*
X347030963Y-173947852D02*
X347650010Y-173947852D01*
X347316677Y-174328805D01*
X347459534Y-174328805D01*
X347554772Y-174376424D01*
X347602391Y-174424043D01*
X347650010Y-174519281D01*
X347650010Y-174757376D01*
X347602391Y-174852614D01*
X347554772Y-174900233D01*
X347459534Y-174947852D01*
X347173820Y-174947852D01*
X347078582Y-174900233D01*
X347030963Y-174852614D01*
X110450464Y-136850630D02*
X110450464Y-135850630D01*
X110688559Y-135850630D01*
X110831416Y-135898250D01*
X110926654Y-135993488D01*
X110974273Y-136088726D01*
X111021892Y-136279202D01*
X111021892Y-136422059D01*
X110974273Y-136612535D01*
X110926654Y-136707773D01*
X110831416Y-136803011D01*
X110688559Y-136850630D01*
X110450464Y-136850630D01*
X111355226Y-135850630D02*
X111974273Y-135850630D01*
X111640940Y-136231583D01*
X111783797Y-136231583D01*
X111879035Y-136279202D01*
X111926654Y-136326821D01*
X111974273Y-136422059D01*
X111974273Y-136660154D01*
X111926654Y-136755392D01*
X111879035Y-136803011D01*
X111783797Y-136850630D01*
X111498083Y-136850630D01*
X111402845Y-136803011D01*
X111355226Y-136755392D01*
X112355226Y-135945869D02*
X112402845Y-135898250D01*
X112498083Y-135850630D01*
X112736178Y-135850630D01*
X112831416Y-135898250D01*
X112879035Y-135945869D01*
X112926654Y-136041107D01*
X112926654Y-136136345D01*
X112879035Y-136279202D01*
X112307607Y-136850630D01*
X112926654Y-136850630D01*
X93813464Y-174950630D02*
X93813464Y-173950630D01*
X94051559Y-173950630D01*
X94194416Y-173998250D01*
X94289654Y-174093488D01*
X94337273Y-174188726D01*
X94384892Y-174379202D01*
X94384892Y-174522059D01*
X94337273Y-174712535D01*
X94289654Y-174807773D01*
X94194416Y-174903011D01*
X94051559Y-174950630D01*
X93813464Y-174950630D01*
X95242035Y-173950630D02*
X95051559Y-173950630D01*
X94956321Y-173998250D01*
X94908702Y-174045869D01*
X94813464Y-174188726D01*
X94765845Y-174379202D01*
X94765845Y-174760154D01*
X94813464Y-174855392D01*
X94861083Y-174903011D01*
X94956321Y-174950630D01*
X95146797Y-174950630D01*
X95242035Y-174903011D01*
X95289654Y-174855392D01*
X95337273Y-174760154D01*
X95337273Y-174522059D01*
X95289654Y-174426821D01*
X95242035Y-174379202D01*
X95146797Y-174331583D01*
X94956321Y-174331583D01*
X94861083Y-174379202D01*
X94813464Y-174426821D01*
X94765845Y-174522059D01*
X96289654Y-174950630D02*
X95718226Y-174950630D01*
X96003940Y-174950630D02*
X96003940Y-173950630D01*
X95908702Y-174093488D01*
X95813464Y-174188726D01*
X95718226Y-174236345D01*
X141438464Y-174950630D02*
X141438464Y-173950630D01*
X141676559Y-173950630D01*
X141819416Y-173998250D01*
X141914654Y-174093488D01*
X141962273Y-174188726D01*
X142009892Y-174379202D01*
X142009892Y-174522059D01*
X141962273Y-174712535D01*
X141914654Y-174807773D01*
X141819416Y-174903011D01*
X141676559Y-174950630D01*
X141438464Y-174950630D01*
X142867035Y-173950630D02*
X142676559Y-173950630D01*
X142581321Y-173998250D01*
X142533702Y-174045869D01*
X142438464Y-174188726D01*
X142390845Y-174379202D01*
X142390845Y-174760154D01*
X142438464Y-174855392D01*
X142486083Y-174903011D01*
X142581321Y-174950630D01*
X142771797Y-174950630D01*
X142867035Y-174903011D01*
X142914654Y-174855392D01*
X142962273Y-174760154D01*
X142962273Y-174522059D01*
X142914654Y-174426821D01*
X142867035Y-174379202D01*
X142771797Y-174331583D01*
X142581321Y-174331583D01*
X142486083Y-174379202D01*
X142438464Y-174426821D01*
X142390845Y-174522059D01*
X143581321Y-173950630D02*
X143676559Y-173950630D01*
X143771797Y-173998250D01*
X143819416Y-174045869D01*
X143867035Y-174141107D01*
X143914654Y-174331583D01*
X143914654Y-174569678D01*
X143867035Y-174760154D01*
X143819416Y-174855392D01*
X143771797Y-174903011D01*
X143676559Y-174950630D01*
X143581321Y-174950630D01*
X143486083Y-174903011D01*
X143438464Y-174855392D01*
X143390845Y-174760154D01*
X143343226Y-174569678D01*
X143343226Y-174331583D01*
X143390845Y-174141107D01*
X143438464Y-174045869D01*
X143486083Y-173998250D01*
X143581321Y-173950630D01*
X81875464Y-155900630D02*
X81875464Y-154900630D01*
X82113559Y-154900630D01*
X82256416Y-154948250D01*
X82351654Y-155043488D01*
X82399273Y-155138726D01*
X82446892Y-155329202D01*
X82446892Y-155472059D01*
X82399273Y-155662535D01*
X82351654Y-155757773D01*
X82256416Y-155853011D01*
X82113559Y-155900630D01*
X81875464Y-155900630D01*
X83304035Y-155233964D02*
X83304035Y-155900630D01*
X83065940Y-154853011D02*
X82827845Y-155567297D01*
X83446892Y-155567297D01*
X83970702Y-155329202D02*
X83875464Y-155281583D01*
X83827845Y-155233964D01*
X83780226Y-155138726D01*
X83780226Y-155091107D01*
X83827845Y-154995869D01*
X83875464Y-154948250D01*
X83970702Y-154900630D01*
X84161178Y-154900630D01*
X84256416Y-154948250D01*
X84304035Y-154995869D01*
X84351654Y-155091107D01*
X84351654Y-155138726D01*
X84304035Y-155233964D01*
X84256416Y-155281583D01*
X84161178Y-155329202D01*
X83970702Y-155329202D01*
X83875464Y-155376821D01*
X83827845Y-155424440D01*
X83780226Y-155519678D01*
X83780226Y-155710154D01*
X83827845Y-155805392D01*
X83875464Y-155853011D01*
X83970702Y-155900630D01*
X84161178Y-155900630D01*
X84256416Y-155853011D01*
X84304035Y-155805392D01*
X84351654Y-155710154D01*
X84351654Y-155519678D01*
X84304035Y-155424440D01*
X84256416Y-155376821D01*
X84161178Y-155329202D01*
X72350464Y-136850630D02*
X72350464Y-135850630D01*
X72588559Y-135850630D01*
X72731416Y-135898250D01*
X72826654Y-135993488D01*
X72874273Y-136088726D01*
X72921892Y-136279202D01*
X72921892Y-136422059D01*
X72874273Y-136612535D01*
X72826654Y-136707773D01*
X72731416Y-136803011D01*
X72588559Y-136850630D01*
X72350464Y-136850630D01*
X73255226Y-135850630D02*
X73874273Y-135850630D01*
X73540940Y-136231583D01*
X73683797Y-136231583D01*
X73779035Y-136279202D01*
X73826654Y-136326821D01*
X73874273Y-136422059D01*
X73874273Y-136660154D01*
X73826654Y-136755392D01*
X73779035Y-136803011D01*
X73683797Y-136850630D01*
X73398083Y-136850630D01*
X73302845Y-136803011D01*
X73255226Y-136755392D01*
X74731416Y-136183964D02*
X74731416Y-136850630D01*
X74493321Y-135803011D02*
X74255226Y-136517297D01*
X74874273Y-136517297D01*
X390385820Y-117797852D02*
X390385820Y-116797852D01*
X390623915Y-116797852D01*
X390766772Y-116845472D01*
X390862010Y-116940710D01*
X390909629Y-117035948D01*
X390957248Y-117226424D01*
X390957248Y-117369281D01*
X390909629Y-117559757D01*
X390862010Y-117654995D01*
X390766772Y-117750233D01*
X390623915Y-117797852D01*
X390385820Y-117797852D01*
X391338201Y-116893091D02*
X391385820Y-116845472D01*
X391481058Y-116797852D01*
X391719153Y-116797852D01*
X391814391Y-116845472D01*
X391862010Y-116893091D01*
X391909629Y-116988329D01*
X391909629Y-117083567D01*
X391862010Y-117226424D01*
X391290582Y-117797852D01*
X391909629Y-117797852D01*
X392290582Y-116893091D02*
X392338201Y-116845472D01*
X392433439Y-116797852D01*
X392671534Y-116797852D01*
X392766772Y-116845472D01*
X392814391Y-116893091D01*
X392862010Y-116988329D01*
X392862010Y-117083567D01*
X392814391Y-117226424D01*
X392242963Y-117797852D01*
X392862010Y-117797852D01*
X255003820Y-140911852D02*
X255003820Y-139911852D01*
X255241915Y-139911852D01*
X255384772Y-139959472D01*
X255480010Y-140054710D01*
X255527629Y-140149948D01*
X255575248Y-140340424D01*
X255575248Y-140483281D01*
X255527629Y-140673757D01*
X255480010Y-140768995D01*
X255384772Y-140864233D01*
X255241915Y-140911852D01*
X255003820Y-140911852D01*
X256432391Y-140245186D02*
X256432391Y-140911852D01*
X256194296Y-139864233D02*
X255956201Y-140578519D01*
X256575248Y-140578519D01*
X257384772Y-140245186D02*
X257384772Y-140911852D01*
X257146677Y-139864233D02*
X256908582Y-140578519D01*
X257527629Y-140578519D01*
X328409820Y-136847852D02*
X328409820Y-135847852D01*
X328647915Y-135847852D01*
X328790772Y-135895472D01*
X328886010Y-135990710D01*
X328933629Y-136085948D01*
X328981248Y-136276424D01*
X328981248Y-136419281D01*
X328933629Y-136609757D01*
X328886010Y-136704995D01*
X328790772Y-136800233D01*
X328647915Y-136847852D01*
X328409820Y-136847852D01*
X329838391Y-136181186D02*
X329838391Y-136847852D01*
X329600296Y-135800233D02*
X329362201Y-136514519D01*
X329981248Y-136514519D01*
X330552677Y-135847852D02*
X330647915Y-135847852D01*
X330743153Y-135895472D01*
X330790772Y-135943091D01*
X330838391Y-136038329D01*
X330886010Y-136228805D01*
X330886010Y-136466900D01*
X330838391Y-136657376D01*
X330790772Y-136752614D01*
X330743153Y-136800233D01*
X330647915Y-136847852D01*
X330552677Y-136847852D01*
X330457439Y-136800233D01*
X330409820Y-136752614D01*
X330362201Y-136657376D01*
X330314582Y-136466900D01*
X330314582Y-136228805D01*
X330362201Y-136038329D01*
X330409820Y-135943091D01*
X330457439Y-135895472D01*
X330552677Y-135847852D01*
X96226464Y-117800630D02*
X96226464Y-116800630D01*
X96464559Y-116800630D01*
X96607416Y-116848250D01*
X96702654Y-116943488D01*
X96750273Y-117038726D01*
X96797892Y-117229202D01*
X96797892Y-117372059D01*
X96750273Y-117562535D01*
X96702654Y-117657773D01*
X96607416Y-117753011D01*
X96464559Y-117800630D01*
X96226464Y-117800630D01*
X97750273Y-117800630D02*
X97178845Y-117800630D01*
X97464559Y-117800630D02*
X97464559Y-116800630D01*
X97369321Y-116943488D01*
X97274083Y-117038726D01*
X97178845Y-117086345D01*
X98321702Y-117229202D02*
X98226464Y-117181583D01*
X98178845Y-117133964D01*
X98131226Y-117038726D01*
X98131226Y-116991107D01*
X98178845Y-116895869D01*
X98226464Y-116848250D01*
X98321702Y-116800630D01*
X98512178Y-116800630D01*
X98607416Y-116848250D01*
X98655035Y-116895869D01*
X98702654Y-116991107D01*
X98702654Y-117038726D01*
X98655035Y-117133964D01*
X98607416Y-117181583D01*
X98512178Y-117229202D01*
X98321702Y-117229202D01*
X98226464Y-117276821D01*
X98178845Y-117324440D01*
X98131226Y-117419678D01*
X98131226Y-117610154D01*
X98178845Y-117705392D01*
X98226464Y-117753011D01*
X98321702Y-117800630D01*
X98512178Y-117800630D01*
X98607416Y-117753011D01*
X98655035Y-117705392D01*
X98702654Y-117610154D01*
X98702654Y-117419678D01*
X98655035Y-117324440D01*
X98607416Y-117276821D01*
X98512178Y-117229202D01*
X321297820Y-174947852D02*
X321297820Y-173947852D01*
X321535915Y-173947852D01*
X321678772Y-173995472D01*
X321774010Y-174090710D01*
X321821629Y-174185948D01*
X321869248Y-174376424D01*
X321869248Y-174519281D01*
X321821629Y-174709757D01*
X321774010Y-174804995D01*
X321678772Y-174900233D01*
X321535915Y-174947852D01*
X321297820Y-174947852D01*
X322726391Y-173947852D02*
X322535915Y-173947852D01*
X322440677Y-173995472D01*
X322393058Y-174043091D01*
X322297820Y-174185948D01*
X322250201Y-174376424D01*
X322250201Y-174757376D01*
X322297820Y-174852614D01*
X322345439Y-174900233D01*
X322440677Y-174947852D01*
X322631153Y-174947852D01*
X322726391Y-174900233D01*
X322774010Y-174852614D01*
X322821629Y-174757376D01*
X322821629Y-174519281D01*
X322774010Y-174424043D01*
X322726391Y-174376424D01*
X322631153Y-174328805D01*
X322440677Y-174328805D01*
X322345439Y-174376424D01*
X322297820Y-174424043D01*
X322250201Y-174519281D01*
X323678772Y-174281186D02*
X323678772Y-174947852D01*
X323440677Y-173900233D02*
X323202582Y-174614519D01*
X323821629Y-174614519D01*
X304660820Y-98747852D02*
X304660820Y-97747852D01*
X304898915Y-97747852D01*
X305041772Y-97795472D01*
X305137010Y-97890710D01*
X305184629Y-97985948D01*
X305232248Y-98176424D01*
X305232248Y-98319281D01*
X305184629Y-98509757D01*
X305137010Y-98604995D01*
X305041772Y-98700233D01*
X304898915Y-98747852D01*
X304660820Y-98747852D01*
X306184629Y-98747852D02*
X305613201Y-98747852D01*
X305898915Y-98747852D02*
X305898915Y-97747852D01*
X305803677Y-97890710D01*
X305708439Y-97985948D01*
X305613201Y-98033567D01*
X306565582Y-97843091D02*
X306613201Y-97795472D01*
X306708439Y-97747852D01*
X306946534Y-97747852D01*
X307041772Y-97795472D01*
X307089391Y-97843091D01*
X307137010Y-97938329D01*
X307137010Y-98033567D01*
X307089391Y-98176424D01*
X306517963Y-98747852D01*
X307137010Y-98747852D01*
X333235820Y-117797852D02*
X333235820Y-116797852D01*
X333473915Y-116797852D01*
X333616772Y-116845472D01*
X333712010Y-116940710D01*
X333759629Y-117035948D01*
X333807248Y-117226424D01*
X333807248Y-117369281D01*
X333759629Y-117559757D01*
X333712010Y-117654995D01*
X333616772Y-117750233D01*
X333473915Y-117797852D01*
X333235820Y-117797852D01*
X334188201Y-116893091D02*
X334235820Y-116845472D01*
X334331058Y-116797852D01*
X334569153Y-116797852D01*
X334664391Y-116845472D01*
X334712010Y-116893091D01*
X334759629Y-116988329D01*
X334759629Y-117083567D01*
X334712010Y-117226424D01*
X334140582Y-117797852D01*
X334759629Y-117797852D01*
X335664391Y-116797852D02*
X335188201Y-116797852D01*
X335140582Y-117274043D01*
X335188201Y-117226424D01*
X335283439Y-117178805D01*
X335521534Y-117178805D01*
X335616772Y-117226424D01*
X335664391Y-117274043D01*
X335712010Y-117369281D01*
X335712010Y-117607376D01*
X335664391Y-117702614D01*
X335616772Y-117750233D01*
X335521534Y-117797852D01*
X335283439Y-117797852D01*
X335188201Y-117750233D01*
X335140582Y-117702614D01*
X91400464Y-136850630D02*
X91400464Y-135850630D01*
X91638559Y-135850630D01*
X91781416Y-135898250D01*
X91876654Y-135993488D01*
X91924273Y-136088726D01*
X91971892Y-136279202D01*
X91971892Y-136422059D01*
X91924273Y-136612535D01*
X91876654Y-136707773D01*
X91781416Y-136803011D01*
X91638559Y-136850630D01*
X91400464Y-136850630D01*
X92305226Y-135850630D02*
X92924273Y-135850630D01*
X92590940Y-136231583D01*
X92733797Y-136231583D01*
X92829035Y-136279202D01*
X92876654Y-136326821D01*
X92924273Y-136422059D01*
X92924273Y-136660154D01*
X92876654Y-136755392D01*
X92829035Y-136803011D01*
X92733797Y-136850630D01*
X92448083Y-136850630D01*
X92352845Y-136803011D01*
X92305226Y-136755392D01*
X93257607Y-135850630D02*
X93876654Y-135850630D01*
X93543321Y-136231583D01*
X93686178Y-136231583D01*
X93781416Y-136279202D01*
X93829035Y-136326821D01*
X93876654Y-136422059D01*
X93876654Y-136660154D01*
X93829035Y-136755392D01*
X93781416Y-136803011D01*
X93686178Y-136850630D01*
X93400464Y-136850630D01*
X93305226Y-136803011D01*
X93257607Y-136755392D01*
X34250464Y-136850630D02*
X34250464Y-135850630D01*
X34488559Y-135850630D01*
X34631416Y-135898250D01*
X34726654Y-135993488D01*
X34774273Y-136088726D01*
X34821892Y-136279202D01*
X34821892Y-136422059D01*
X34774273Y-136612535D01*
X34726654Y-136707773D01*
X34631416Y-136803011D01*
X34488559Y-136850630D01*
X34250464Y-136850630D01*
X35155226Y-135850630D02*
X35774273Y-135850630D01*
X35440940Y-136231583D01*
X35583797Y-136231583D01*
X35679035Y-136279202D01*
X35726654Y-136326821D01*
X35774273Y-136422059D01*
X35774273Y-136660154D01*
X35726654Y-136755392D01*
X35679035Y-136803011D01*
X35583797Y-136850630D01*
X35298083Y-136850630D01*
X35202845Y-136803011D01*
X35155226Y-136755392D01*
X36631416Y-135850630D02*
X36440940Y-135850630D01*
X36345702Y-135898250D01*
X36298083Y-135945869D01*
X36202845Y-136088726D01*
X36155226Y-136279202D01*
X36155226Y-136660154D01*
X36202845Y-136755392D01*
X36250464Y-136803011D01*
X36345702Y-136850630D01*
X36536178Y-136850630D01*
X36631416Y-136803011D01*
X36679035Y-136755392D01*
X36726654Y-136660154D01*
X36726654Y-136422059D01*
X36679035Y-136326821D01*
X36631416Y-136279202D01*
X36536178Y-136231583D01*
X36345702Y-136231583D01*
X36250464Y-136279202D01*
X36202845Y-136326821D01*
X36155226Y-136422059D01*
X285610820Y-98747852D02*
X285610820Y-97747852D01*
X285848915Y-97747852D01*
X285991772Y-97795472D01*
X286087010Y-97890710D01*
X286134629Y-97985948D01*
X286182248Y-98176424D01*
X286182248Y-98319281D01*
X286134629Y-98509757D01*
X286087010Y-98604995D01*
X285991772Y-98700233D01*
X285848915Y-98747852D01*
X285610820Y-98747852D01*
X287134629Y-98747852D02*
X286563201Y-98747852D01*
X286848915Y-98747852D02*
X286848915Y-97747852D01*
X286753677Y-97890710D01*
X286658439Y-97985948D01*
X286563201Y-98033567D01*
X287467963Y-97747852D02*
X288087010Y-97747852D01*
X287753677Y-98128805D01*
X287896534Y-98128805D01*
X287991772Y-98176424D01*
X288039391Y-98224043D01*
X288087010Y-98319281D01*
X288087010Y-98557376D01*
X288039391Y-98652614D01*
X287991772Y-98700233D01*
X287896534Y-98747852D01*
X287610820Y-98747852D01*
X287515582Y-98700233D01*
X287467963Y-98652614D01*
X309359820Y-136847852D02*
X309359820Y-135847852D01*
X309597915Y-135847852D01*
X309740772Y-135895472D01*
X309836010Y-135990710D01*
X309883629Y-136085948D01*
X309931248Y-136276424D01*
X309931248Y-136419281D01*
X309883629Y-136609757D01*
X309836010Y-136704995D01*
X309740772Y-136800233D01*
X309597915Y-136847852D01*
X309359820Y-136847852D01*
X310788391Y-136181186D02*
X310788391Y-136847852D01*
X310550296Y-135800233D02*
X310312201Y-136514519D01*
X310931248Y-136514519D01*
X311836010Y-136847852D02*
X311264582Y-136847852D01*
X311550296Y-136847852D02*
X311550296Y-135847852D01*
X311455058Y-135990710D01*
X311359820Y-136085948D01*
X311264582Y-136133567D01*
X55713464Y-174950630D02*
X55713464Y-173950630D01*
X55951559Y-173950630D01*
X56094416Y-173998250D01*
X56189654Y-174093488D01*
X56237273Y-174188726D01*
X56284892Y-174379202D01*
X56284892Y-174522059D01*
X56237273Y-174712535D01*
X56189654Y-174807773D01*
X56094416Y-174903011D01*
X55951559Y-174950630D01*
X55713464Y-174950630D01*
X56618226Y-173950630D02*
X57284892Y-173950630D01*
X56856321Y-174950630D01*
X57856321Y-173950630D02*
X57951559Y-173950630D01*
X58046797Y-173998250D01*
X58094416Y-174045869D01*
X58142035Y-174141107D01*
X58189654Y-174331583D01*
X58189654Y-174569678D01*
X58142035Y-174760154D01*
X58094416Y-174855392D01*
X58046797Y-174903011D01*
X57951559Y-174950630D01*
X57856321Y-174950630D01*
X57761083Y-174903011D01*
X57713464Y-174855392D01*
X57665845Y-174760154D01*
X57618226Y-174569678D01*
X57618226Y-174331583D01*
X57665845Y-174141107D01*
X57713464Y-174045869D01*
X57761083Y-173998250D01*
X57856321Y-173950630D01*
X41521005Y-97670708D02*
X41044815Y-98004042D01*
X41521005Y-98242137D02*
X40521005Y-98242137D01*
X40521005Y-97861184D01*
X40568625Y-97765946D01*
X40616244Y-97718327D01*
X40711482Y-97670708D01*
X40854339Y-97670708D01*
X40949577Y-97718327D01*
X40997196Y-97765946D01*
X41044815Y-97861184D01*
X41044815Y-98242137D01*
X40616244Y-97289756D02*
X40568625Y-97242137D01*
X40521005Y-97146899D01*
X40521005Y-96908803D01*
X40568625Y-96813565D01*
X40616244Y-96765946D01*
X40711482Y-96718327D01*
X40806720Y-96718327D01*
X40949577Y-96765946D01*
X41521005Y-97337375D01*
X41521005Y-96718327D01*
X30027654Y-98750630D02*
X30027654Y-97750630D01*
X30265750Y-97750630D01*
X30408607Y-97798250D01*
X30503845Y-97893488D01*
X30551464Y-97988726D01*
X30599083Y-98179202D01*
X30599083Y-98322059D01*
X30551464Y-98512535D01*
X30503845Y-98607773D01*
X30408607Y-98703011D01*
X30265750Y-98750630D01*
X30027654Y-98750630D01*
X30932416Y-97750630D02*
X31599083Y-97750630D01*
X31170511Y-98750630D01*
X228460820Y-117797852D02*
X228460820Y-116797852D01*
X228698915Y-116797852D01*
X228841772Y-116845472D01*
X228937010Y-116940710D01*
X228984629Y-117035948D01*
X229032248Y-117226424D01*
X229032248Y-117369281D01*
X228984629Y-117559757D01*
X228937010Y-117654995D01*
X228841772Y-117750233D01*
X228698915Y-117797852D01*
X228460820Y-117797852D01*
X229365582Y-116797852D02*
X230032248Y-116797852D01*
X229603677Y-117797852D01*
X230365582Y-116893091D02*
X230413201Y-116845472D01*
X230508439Y-116797852D01*
X230746534Y-116797852D01*
X230841772Y-116845472D01*
X230889391Y-116893091D01*
X230937010Y-116988329D01*
X230937010Y-117083567D01*
X230889391Y-117226424D01*
X230317963Y-117797852D01*
X230937010Y-117797852D01*
X362287010Y-98747852D02*
X362287010Y-97747852D01*
X362525106Y-97747852D01*
X362667963Y-97795472D01*
X362763201Y-97890710D01*
X362810820Y-97985948D01*
X362858439Y-98176424D01*
X362858439Y-98319281D01*
X362810820Y-98509757D01*
X362763201Y-98604995D01*
X362667963Y-98700233D01*
X362525106Y-98747852D01*
X362287010Y-98747852D01*
X363334629Y-98747852D02*
X363525106Y-98747852D01*
X363620344Y-98700233D01*
X363667963Y-98652614D01*
X363763201Y-98509757D01*
X363810820Y-98319281D01*
X363810820Y-97938329D01*
X363763201Y-97843091D01*
X363715582Y-97795472D01*
X363620344Y-97747852D01*
X363429867Y-97747852D01*
X363334629Y-97795472D01*
X363287010Y-97843091D01*
X363239391Y-97938329D01*
X363239391Y-98176424D01*
X363287010Y-98271662D01*
X363334629Y-98319281D01*
X363429867Y-98366900D01*
X363620344Y-98366900D01*
X363715582Y-98319281D01*
X363763201Y-98271662D01*
X363810820Y-98176424D01*
X228460820Y-98747852D02*
X228460820Y-97747852D01*
X228698915Y-97747852D01*
X228841772Y-97795472D01*
X228937010Y-97890710D01*
X228984629Y-97985948D01*
X229032248Y-98176424D01*
X229032248Y-98319281D01*
X228984629Y-98509757D01*
X228937010Y-98604995D01*
X228841772Y-98700233D01*
X228698915Y-98747852D01*
X228460820Y-98747852D01*
X229365582Y-97747852D02*
X230032248Y-97747852D01*
X229603677Y-98747852D01*
X230937010Y-98747852D02*
X230365582Y-98747852D01*
X230651296Y-98747852D02*
X230651296Y-97747852D01*
X230556058Y-97890710D01*
X230460820Y-97985948D01*
X230365582Y-98033567D01*
X228460820Y-136847852D02*
X228460820Y-135847852D01*
X228698915Y-135847852D01*
X228841772Y-135895472D01*
X228937010Y-135990710D01*
X228984629Y-136085948D01*
X229032248Y-136276424D01*
X229032248Y-136419281D01*
X228984629Y-136609757D01*
X228937010Y-136704995D01*
X228841772Y-136800233D01*
X228698915Y-136847852D01*
X228460820Y-136847852D01*
X229365582Y-135847852D02*
X230032248Y-135847852D01*
X229603677Y-136847852D01*
X230317963Y-135847852D02*
X230937010Y-135847852D01*
X230603677Y-136228805D01*
X230746534Y-136228805D01*
X230841772Y-136276424D01*
X230889391Y-136324043D01*
X230937010Y-136419281D01*
X230937010Y-136657376D01*
X230889391Y-136752614D01*
X230841772Y-136800233D01*
X230746534Y-136847852D01*
X230460820Y-136847852D01*
X230365582Y-136800233D01*
X230317963Y-136752614D01*
X247510820Y-174947852D02*
X247510820Y-173947852D01*
X247748915Y-173947852D01*
X247891772Y-173995472D01*
X247987010Y-174090710D01*
X248034629Y-174185948D01*
X248082248Y-174376424D01*
X248082248Y-174519281D01*
X248034629Y-174709757D01*
X247987010Y-174804995D01*
X247891772Y-174900233D01*
X247748915Y-174947852D01*
X247510820Y-174947852D01*
X248939391Y-173947852D02*
X248748915Y-173947852D01*
X248653677Y-173995472D01*
X248606058Y-174043091D01*
X248510820Y-174185948D01*
X248463201Y-174376424D01*
X248463201Y-174757376D01*
X248510820Y-174852614D01*
X248558439Y-174900233D01*
X248653677Y-174947852D01*
X248844153Y-174947852D01*
X248939391Y-174900233D01*
X248987010Y-174852614D01*
X249034629Y-174757376D01*
X249034629Y-174519281D01*
X248987010Y-174424043D01*
X248939391Y-174376424D01*
X248844153Y-174328805D01*
X248653677Y-174328805D01*
X248558439Y-174376424D01*
X248510820Y-174424043D01*
X248463201Y-174519281D01*
X249367963Y-173947852D02*
X250034629Y-173947852D01*
X249606058Y-174947852D01*
X144327654Y-98750630D02*
X144327654Y-97750630D01*
X144565750Y-97750630D01*
X144708607Y-97798250D01*
X144803845Y-97893488D01*
X144851464Y-97988726D01*
X144899083Y-98179202D01*
X144899083Y-98322059D01*
X144851464Y-98512535D01*
X144803845Y-98607773D01*
X144708607Y-98703011D01*
X144565750Y-98750630D01*
X144327654Y-98750630D01*
X145851464Y-98750630D02*
X145280035Y-98750630D01*
X145565750Y-98750630D02*
X145565750Y-97750630D01*
X145470511Y-97893488D01*
X145375273Y-97988726D01*
X145280035Y-98036345D01*
X276085820Y-117797852D02*
X276085820Y-116797852D01*
X276323915Y-116797852D01*
X276466772Y-116845472D01*
X276562010Y-116940710D01*
X276609629Y-117035948D01*
X276657248Y-117226424D01*
X276657248Y-117369281D01*
X276609629Y-117559757D01*
X276562010Y-117654995D01*
X276466772Y-117750233D01*
X276323915Y-117797852D01*
X276085820Y-117797852D01*
X277038201Y-116893091D02*
X277085820Y-116845472D01*
X277181058Y-116797852D01*
X277419153Y-116797852D01*
X277514391Y-116845472D01*
X277562010Y-116893091D01*
X277609629Y-116988329D01*
X277609629Y-117083567D01*
X277562010Y-117226424D01*
X276990582Y-117797852D01*
X277609629Y-117797852D01*
X278181058Y-117226424D02*
X278085820Y-117178805D01*
X278038201Y-117131186D01*
X277990582Y-117035948D01*
X277990582Y-116988329D01*
X278038201Y-116893091D01*
X278085820Y-116845472D01*
X278181058Y-116797852D01*
X278371534Y-116797852D01*
X278466772Y-116845472D01*
X278514391Y-116893091D01*
X278562010Y-116988329D01*
X278562010Y-117035948D01*
X278514391Y-117131186D01*
X278466772Y-117178805D01*
X278371534Y-117226424D01*
X278181058Y-117226424D01*
X278085820Y-117274043D01*
X278038201Y-117321662D01*
X277990582Y-117416900D01*
X277990582Y-117607376D01*
X278038201Y-117702614D01*
X278085820Y-117750233D01*
X278181058Y-117797852D01*
X278371534Y-117797852D01*
X278466772Y-117750233D01*
X278514391Y-117702614D01*
X278562010Y-117607376D01*
X278562010Y-117416900D01*
X278514391Y-117321662D01*
X278466772Y-117274043D01*
X278371534Y-117226424D01*
X167752279Y-91007011D02*
X167895136Y-91054630D01*
X168133232Y-91054630D01*
X168228470Y-91007011D01*
X168276089Y-90959392D01*
X168323708Y-90864154D01*
X168323708Y-90768916D01*
X168276089Y-90673678D01*
X168228470Y-90626059D01*
X168133232Y-90578440D01*
X167942755Y-90530821D01*
X167847517Y-90483202D01*
X167799898Y-90435583D01*
X167752279Y-90340345D01*
X167752279Y-90245107D01*
X167799898Y-90149869D01*
X167847517Y-90102250D01*
X167942755Y-90054630D01*
X168180851Y-90054630D01*
X168323708Y-90102250D01*
X168657041Y-90054630D02*
X168895136Y-91054630D01*
X169085613Y-90340345D01*
X169276089Y-91054630D01*
X169514184Y-90054630D01*
X169847517Y-90149869D02*
X169895136Y-90102250D01*
X169990374Y-90054630D01*
X170228470Y-90054630D01*
X170323708Y-90102250D01*
X170371327Y-90149869D01*
X170418946Y-90245107D01*
X170418946Y-90340345D01*
X170371327Y-90483202D01*
X169799898Y-91054630D01*
X170418946Y-91054630D01*
X208914320Y-153722852D02*
X209009558Y-153722852D01*
X209104796Y-153770472D01*
X209152415Y-153818091D01*
X209200034Y-153913329D01*
X209247653Y-154103805D01*
X209247653Y-154341900D01*
X209200034Y-154532376D01*
X209152415Y-154627614D01*
X209104796Y-154675233D01*
X209009558Y-154722852D01*
X208914320Y-154722852D01*
X208819082Y-154675233D01*
X208771463Y-154627614D01*
X208723844Y-154532376D01*
X208676225Y-154341900D01*
X208676225Y-154103805D01*
X208723844Y-153913329D01*
X208771463Y-153818091D01*
X208819082Y-153770472D01*
X208914320Y-153722852D01*
X209676225Y-154627614D02*
X209723844Y-154675233D01*
X209676225Y-154722852D01*
X209628606Y-154675233D01*
X209676225Y-154627614D01*
X209676225Y-154722852D01*
X210676225Y-154722852D02*
X210104796Y-154722852D01*
X210390510Y-154722852D02*
X210390510Y-153722852D01*
X210295272Y-153865710D01*
X210200034Y-153960948D01*
X210104796Y-154008567D01*
X211533367Y-154056186D02*
X211533367Y-154722852D01*
X211104796Y-154056186D02*
X211104796Y-154579995D01*
X211152415Y-154675233D01*
X211247653Y-154722852D01*
X211390510Y-154722852D01*
X211485748Y-154675233D01*
X211533367Y-154627614D01*
X58126464Y-117800630D02*
X58126464Y-116800630D01*
X58364559Y-116800630D01*
X58507416Y-116848250D01*
X58602654Y-116943488D01*
X58650273Y-117038726D01*
X58697892Y-117229202D01*
X58697892Y-117372059D01*
X58650273Y-117562535D01*
X58602654Y-117657773D01*
X58507416Y-117753011D01*
X58364559Y-117800630D01*
X58126464Y-117800630D01*
X59078845Y-116895869D02*
X59126464Y-116848250D01*
X59221702Y-116800630D01*
X59459797Y-116800630D01*
X59555035Y-116848250D01*
X59602654Y-116895869D01*
X59650273Y-116991107D01*
X59650273Y-117086345D01*
X59602654Y-117229202D01*
X59031226Y-117800630D01*
X59650273Y-117800630D01*
X60269321Y-116800630D02*
X60364559Y-116800630D01*
X60459797Y-116848250D01*
X60507416Y-116895869D01*
X60555035Y-116991107D01*
X60602654Y-117181583D01*
X60602654Y-117419678D01*
X60555035Y-117610154D01*
X60507416Y-117705392D01*
X60459797Y-117753011D01*
X60364559Y-117800630D01*
X60269321Y-117800630D01*
X60174083Y-117753011D01*
X60126464Y-117705392D01*
X60078845Y-117610154D01*
X60031226Y-117419678D01*
X60031226Y-117181583D01*
X60078845Y-116991107D01*
X60126464Y-116895869D01*
X60174083Y-116848250D01*
X60269321Y-116800630D01*
X139025464Y-117800630D02*
X139025464Y-116800630D01*
X139263559Y-116800630D01*
X139406416Y-116848250D01*
X139501654Y-116943488D01*
X139549273Y-117038726D01*
X139596892Y-117229202D01*
X139596892Y-117372059D01*
X139549273Y-117562535D01*
X139501654Y-117657773D01*
X139406416Y-117753011D01*
X139263559Y-117800630D01*
X139025464Y-117800630D01*
X140549273Y-117800630D02*
X139977845Y-117800630D01*
X140263559Y-117800630D02*
X140263559Y-116800630D01*
X140168321Y-116943488D01*
X140073083Y-117038726D01*
X139977845Y-117086345D01*
X141406416Y-116800630D02*
X141215940Y-116800630D01*
X141120702Y-116848250D01*
X141073083Y-116895869D01*
X140977845Y-117038726D01*
X140930226Y-117229202D01*
X140930226Y-117610154D01*
X140977845Y-117705392D01*
X141025464Y-117753011D01*
X141120702Y-117800630D01*
X141311178Y-117800630D01*
X141406416Y-117753011D01*
X141454035Y-117705392D01*
X141501654Y-117610154D01*
X141501654Y-117372059D01*
X141454035Y-117276821D01*
X141406416Y-117229202D01*
X141311178Y-117181583D01*
X141120702Y-117181583D01*
X141025464Y-117229202D01*
X140977845Y-117276821D01*
X140930226Y-117372059D01*
X39076464Y-117800630D02*
X39076464Y-116800630D01*
X39314559Y-116800630D01*
X39457416Y-116848250D01*
X39552654Y-116943488D01*
X39600273Y-117038726D01*
X39647892Y-117229202D01*
X39647892Y-117372059D01*
X39600273Y-117562535D01*
X39552654Y-117657773D01*
X39457416Y-117753011D01*
X39314559Y-117800630D01*
X39076464Y-117800630D01*
X40028845Y-116895869D02*
X40076464Y-116848250D01*
X40171702Y-116800630D01*
X40409797Y-116800630D01*
X40505035Y-116848250D01*
X40552654Y-116895869D01*
X40600273Y-116991107D01*
X40600273Y-117086345D01*
X40552654Y-117229202D01*
X39981226Y-117800630D01*
X40600273Y-117800630D01*
X41552654Y-117800630D02*
X40981226Y-117800630D01*
X41266940Y-117800630D02*
X41266940Y-116800630D01*
X41171702Y-116943488D01*
X41076464Y-117038726D01*
X40981226Y-117086345D01*
X116276130Y-149645535D02*
X115276130Y-149645535D01*
X115276130Y-149407440D01*
X115323750Y-149264583D01*
X115418988Y-149169345D01*
X115514226Y-149121726D01*
X115704702Y-149074107D01*
X115847559Y-149074107D01*
X116038035Y-149121726D01*
X116133273Y-149169345D01*
X116228511Y-149264583D01*
X116276130Y-149407440D01*
X116276130Y-149645535D01*
X115609464Y-148216964D02*
X116276130Y-148216964D01*
X115228511Y-148455059D02*
X115942797Y-148693154D01*
X115942797Y-148074107D01*
X115276130Y-147264583D02*
X115276130Y-147455059D01*
X115323750Y-147550297D01*
X115371369Y-147597916D01*
X115514226Y-147693154D01*
X115704702Y-147740773D01*
X116085654Y-147740773D01*
X116180892Y-147693154D01*
X116228511Y-147645535D01*
X116276130Y-147550297D01*
X116276130Y-147359821D01*
X116228511Y-147264583D01*
X116180892Y-147216964D01*
X116085654Y-147169345D01*
X115847559Y-147169345D01*
X115752321Y-147216964D01*
X115704702Y-147264583D01*
X115657083Y-147359821D01*
X115657083Y-147550297D01*
X115704702Y-147645535D01*
X115752321Y-147693154D01*
X115847559Y-147740773D01*
X266179820Y-140911852D02*
X266179820Y-139911852D01*
X266417915Y-139911852D01*
X266560772Y-139959472D01*
X266656010Y-140054710D01*
X266703629Y-140149948D01*
X266751248Y-140340424D01*
X266751248Y-140483281D01*
X266703629Y-140673757D01*
X266656010Y-140768995D01*
X266560772Y-140864233D01*
X266417915Y-140911852D01*
X266179820Y-140911852D01*
X267608391Y-140245186D02*
X267608391Y-140911852D01*
X267370296Y-139864233D02*
X267132201Y-140578519D01*
X267751248Y-140578519D01*
X268036963Y-139911852D02*
X268656010Y-139911852D01*
X268322677Y-140292805D01*
X268465534Y-140292805D01*
X268560772Y-140340424D01*
X268608391Y-140388043D01*
X268656010Y-140483281D01*
X268656010Y-140721376D01*
X268608391Y-140816614D01*
X268560772Y-140864233D01*
X268465534Y-140911852D01*
X268179820Y-140911852D01*
X268084582Y-140864233D01*
X268036963Y-140816614D01*
X371335820Y-117797852D02*
X371335820Y-116797852D01*
X371573915Y-116797852D01*
X371716772Y-116845472D01*
X371812010Y-116940710D01*
X371859629Y-117035948D01*
X371907248Y-117226424D01*
X371907248Y-117369281D01*
X371859629Y-117559757D01*
X371812010Y-117654995D01*
X371716772Y-117750233D01*
X371573915Y-117797852D01*
X371335820Y-117797852D01*
X372288201Y-116893091D02*
X372335820Y-116845472D01*
X372431058Y-116797852D01*
X372669153Y-116797852D01*
X372764391Y-116845472D01*
X372812010Y-116893091D01*
X372859629Y-116988329D01*
X372859629Y-117083567D01*
X372812010Y-117226424D01*
X372240582Y-117797852D01*
X372859629Y-117797852D01*
X373192963Y-116797852D02*
X373812010Y-116797852D01*
X373478677Y-117178805D01*
X373621534Y-117178805D01*
X373716772Y-117226424D01*
X373764391Y-117274043D01*
X373812010Y-117369281D01*
X373812010Y-117607376D01*
X373764391Y-117702614D01*
X373716772Y-117750233D01*
X373621534Y-117797852D01*
X373335820Y-117797852D01*
X373240582Y-117750233D01*
X373192963Y-117702614D01*
X366509820Y-136847852D02*
X366509820Y-135847852D01*
X366747915Y-135847852D01*
X366890772Y-135895472D01*
X366986010Y-135990710D01*
X367033629Y-136085948D01*
X367081248Y-136276424D01*
X367081248Y-136419281D01*
X367033629Y-136609757D01*
X366986010Y-136704995D01*
X366890772Y-136800233D01*
X366747915Y-136847852D01*
X366509820Y-136847852D01*
X367414582Y-135847852D02*
X368033629Y-135847852D01*
X367700296Y-136228805D01*
X367843153Y-136228805D01*
X367938391Y-136276424D01*
X367986010Y-136324043D01*
X368033629Y-136419281D01*
X368033629Y-136657376D01*
X367986010Y-136752614D01*
X367938391Y-136800233D01*
X367843153Y-136847852D01*
X367557439Y-136847852D01*
X367462201Y-136800233D01*
X367414582Y-136752614D01*
X368605058Y-136276424D02*
X368509820Y-136228805D01*
X368462201Y-136181186D01*
X368414582Y-136085948D01*
X368414582Y-136038329D01*
X368462201Y-135943091D01*
X368509820Y-135895472D01*
X368605058Y-135847852D01*
X368795534Y-135847852D01*
X368890772Y-135895472D01*
X368938391Y-135943091D01*
X368986010Y-136038329D01*
X368986010Y-136085948D01*
X368938391Y-136181186D01*
X368890772Y-136228805D01*
X368795534Y-136276424D01*
X368605058Y-136276424D01*
X368509820Y-136324043D01*
X368462201Y-136371662D01*
X368414582Y-136466900D01*
X368414582Y-136657376D01*
X368462201Y-136752614D01*
X368509820Y-136800233D01*
X368605058Y-136847852D01*
X368795534Y-136847852D01*
X368890772Y-136800233D01*
X368938391Y-136752614D01*
X368986010Y-136657376D01*
X368986010Y-136466900D01*
X368938391Y-136371662D01*
X368890772Y-136324043D01*
X368795534Y-136276424D01*
X356984820Y-155897852D02*
X356984820Y-154897852D01*
X357222915Y-154897852D01*
X357365772Y-154945472D01*
X357461010Y-155040710D01*
X357508629Y-155135948D01*
X357556248Y-155326424D01*
X357556248Y-155469281D01*
X357508629Y-155659757D01*
X357461010Y-155754995D01*
X357365772Y-155850233D01*
X357222915Y-155897852D01*
X356984820Y-155897852D01*
X358461010Y-154897852D02*
X357984820Y-154897852D01*
X357937201Y-155374043D01*
X357984820Y-155326424D01*
X358080058Y-155278805D01*
X358318153Y-155278805D01*
X358413391Y-155326424D01*
X358461010Y-155374043D01*
X358508629Y-155469281D01*
X358508629Y-155707376D01*
X358461010Y-155802614D01*
X358413391Y-155850233D01*
X358318153Y-155897852D01*
X358080058Y-155897852D01*
X357984820Y-155850233D01*
X357937201Y-155802614D01*
X358841963Y-154897852D02*
X359461010Y-154897852D01*
X359127677Y-155278805D01*
X359270534Y-155278805D01*
X359365772Y-155326424D01*
X359413391Y-155374043D01*
X359461010Y-155469281D01*
X359461010Y-155707376D01*
X359413391Y-155802614D01*
X359365772Y-155850233D01*
X359270534Y-155897852D01*
X358984820Y-155897852D01*
X358889582Y-155850233D01*
X358841963Y-155802614D01*
X347459820Y-136847852D02*
X347459820Y-135847852D01*
X347697915Y-135847852D01*
X347840772Y-135895472D01*
X347936010Y-135990710D01*
X347983629Y-136085948D01*
X348031248Y-136276424D01*
X348031248Y-136419281D01*
X347983629Y-136609757D01*
X347936010Y-136704995D01*
X347840772Y-136800233D01*
X347697915Y-136847852D01*
X347459820Y-136847852D01*
X348364582Y-135847852D02*
X348983629Y-135847852D01*
X348650296Y-136228805D01*
X348793153Y-136228805D01*
X348888391Y-136276424D01*
X348936010Y-136324043D01*
X348983629Y-136419281D01*
X348983629Y-136657376D01*
X348936010Y-136752614D01*
X348888391Y-136800233D01*
X348793153Y-136847852D01*
X348507439Y-136847852D01*
X348412201Y-136800233D01*
X348364582Y-136752614D01*
X349459820Y-136847852D02*
X349650296Y-136847852D01*
X349745534Y-136800233D01*
X349793153Y-136752614D01*
X349888391Y-136609757D01*
X349936010Y-136419281D01*
X349936010Y-136038329D01*
X349888391Y-135943091D01*
X349840772Y-135895472D01*
X349745534Y-135847852D01*
X349555058Y-135847852D01*
X349459820Y-135895472D01*
X349412201Y-135943091D01*
X349364582Y-136038329D01*
X349364582Y-136276424D01*
X349412201Y-136371662D01*
X349459820Y-136419281D01*
X349555058Y-136466900D01*
X349745534Y-136466900D01*
X349840772Y-136419281D01*
X349888391Y-136371662D01*
X349936010Y-136276424D01*
X261734820Y-102557852D02*
X261734820Y-101557852D01*
X261972915Y-101557852D01*
X262115772Y-101605472D01*
X262211010Y-101700710D01*
X262258629Y-101795948D01*
X262306248Y-101986424D01*
X262306248Y-102129281D01*
X262258629Y-102319757D01*
X262211010Y-102414995D01*
X262115772Y-102510233D01*
X261972915Y-102557852D01*
X261734820Y-102557852D01*
X263258629Y-102557852D02*
X262687201Y-102557852D01*
X262972915Y-102557852D02*
X262972915Y-101557852D01*
X262877677Y-101700710D01*
X262782439Y-101795948D01*
X262687201Y-101843567D01*
X264115772Y-101891186D02*
X264115772Y-102557852D01*
X263877677Y-101510233D02*
X263639582Y-102224519D01*
X264258629Y-102224519D01*
X266560820Y-174947852D02*
X266560820Y-173947852D01*
X266798915Y-173947852D01*
X266941772Y-173995472D01*
X267037010Y-174090710D01*
X267084629Y-174185948D01*
X267132248Y-174376424D01*
X267132248Y-174519281D01*
X267084629Y-174709757D01*
X267037010Y-174804995D01*
X266941772Y-174900233D01*
X266798915Y-174947852D01*
X266560820Y-174947852D01*
X267989391Y-173947852D02*
X267798915Y-173947852D01*
X267703677Y-173995472D01*
X267656058Y-174043091D01*
X267560820Y-174185948D01*
X267513201Y-174376424D01*
X267513201Y-174757376D01*
X267560820Y-174852614D01*
X267608439Y-174900233D01*
X267703677Y-174947852D01*
X267894153Y-174947852D01*
X267989391Y-174900233D01*
X268037010Y-174852614D01*
X268084629Y-174757376D01*
X268084629Y-174519281D01*
X268037010Y-174424043D01*
X267989391Y-174376424D01*
X267894153Y-174328805D01*
X267703677Y-174328805D01*
X267608439Y-174376424D01*
X267560820Y-174424043D01*
X267513201Y-174519281D01*
X268941772Y-173947852D02*
X268751296Y-173947852D01*
X268656058Y-173995472D01*
X268608439Y-174043091D01*
X268513201Y-174185948D01*
X268465582Y-174376424D01*
X268465582Y-174757376D01*
X268513201Y-174852614D01*
X268560820Y-174900233D01*
X268656058Y-174947852D01*
X268846534Y-174947852D01*
X268941772Y-174900233D01*
X268989391Y-174852614D01*
X269037010Y-174757376D01*
X269037010Y-174519281D01*
X268989391Y-174424043D01*
X268941772Y-174376424D01*
X268846534Y-174328805D01*
X268656058Y-174328805D01*
X268560820Y-174376424D01*
X268513201Y-174424043D01*
X268465582Y-174519281D01*
X297421820Y-174947852D02*
X297421820Y-173947852D01*
X297659915Y-173947852D01*
X297802772Y-173995472D01*
X297898010Y-174090710D01*
X297945629Y-174185948D01*
X297993248Y-174376424D01*
X297993248Y-174519281D01*
X297945629Y-174709757D01*
X297898010Y-174804995D01*
X297802772Y-174900233D01*
X297659915Y-174947852D01*
X297421820Y-174947852D01*
X298850391Y-173947852D02*
X298659915Y-173947852D01*
X298564677Y-173995472D01*
X298517058Y-174043091D01*
X298421820Y-174185948D01*
X298374201Y-174376424D01*
X298374201Y-174757376D01*
X298421820Y-174852614D01*
X298469439Y-174900233D01*
X298564677Y-174947852D01*
X298755153Y-174947852D01*
X298850391Y-174900233D01*
X298898010Y-174852614D01*
X298945629Y-174757376D01*
X298945629Y-174519281D01*
X298898010Y-174424043D01*
X298850391Y-174376424D01*
X298755153Y-174328805D01*
X298564677Y-174328805D01*
X298469439Y-174376424D01*
X298421820Y-174424043D01*
X298374201Y-174519281D01*
X299850391Y-173947852D02*
X299374201Y-173947852D01*
X299326582Y-174424043D01*
X299374201Y-174376424D01*
X299469439Y-174328805D01*
X299707534Y-174328805D01*
X299802772Y-174376424D01*
X299850391Y-174424043D01*
X299898010Y-174519281D01*
X299898010Y-174757376D01*
X299850391Y-174852614D01*
X299802772Y-174900233D01*
X299707534Y-174947852D01*
X299469439Y-174947852D01*
X299374201Y-174900233D01*
X299326582Y-174852614D01*
X381337010Y-98747852D02*
X381337010Y-97747852D01*
X381575106Y-97747852D01*
X381717963Y-97795472D01*
X381813201Y-97890710D01*
X381860820Y-97985948D01*
X381908439Y-98176424D01*
X381908439Y-98319281D01*
X381860820Y-98509757D01*
X381813201Y-98604995D01*
X381717963Y-98700233D01*
X381575106Y-98747852D01*
X381337010Y-98747852D01*
X382479867Y-98176424D02*
X382384629Y-98128805D01*
X382337010Y-98081186D01*
X382289391Y-97985948D01*
X382289391Y-97938329D01*
X382337010Y-97843091D01*
X382384629Y-97795472D01*
X382479867Y-97747852D01*
X382670344Y-97747852D01*
X382765582Y-97795472D01*
X382813201Y-97843091D01*
X382860820Y-97938329D01*
X382860820Y-97985948D01*
X382813201Y-98081186D01*
X382765582Y-98128805D01*
X382670344Y-98176424D01*
X382479867Y-98176424D01*
X382384629Y-98224043D01*
X382337010Y-98271662D01*
X382289391Y-98366900D01*
X382289391Y-98557376D01*
X382337010Y-98652614D01*
X382384629Y-98700233D01*
X382479867Y-98747852D01*
X382670344Y-98747852D01*
X382765582Y-98700233D01*
X382813201Y-98652614D01*
X382860820Y-98557376D01*
X382860820Y-98366900D01*
X382813201Y-98271662D01*
X382765582Y-98224043D01*
X382670344Y-98176424D01*
X39997005Y-97797708D02*
X39520815Y-98131042D01*
X39997005Y-98369137D02*
X38997005Y-98369137D01*
X38997005Y-97988184D01*
X39044625Y-97892946D01*
X39092244Y-97845327D01*
X39187482Y-97797708D01*
X39330339Y-97797708D01*
X39425577Y-97845327D01*
X39473196Y-97892946D01*
X39520815Y-97988184D01*
X39520815Y-98369137D01*
X38997005Y-97464375D02*
X38997005Y-96845327D01*
X39377958Y-97178661D01*
X39377958Y-97035803D01*
X39425577Y-96940565D01*
X39473196Y-96892946D01*
X39568434Y-96845327D01*
X39806529Y-96845327D01*
X39901767Y-96892946D01*
X39949386Y-96940565D01*
X39997005Y-97035803D01*
X39997005Y-97321518D01*
X39949386Y-97416756D01*
X39901767Y-97464375D01*
X314185820Y-117797852D02*
X314185820Y-116797852D01*
X314423915Y-116797852D01*
X314566772Y-116845472D01*
X314662010Y-116940710D01*
X314709629Y-117035948D01*
X314757248Y-117226424D01*
X314757248Y-117369281D01*
X314709629Y-117559757D01*
X314662010Y-117654995D01*
X314566772Y-117750233D01*
X314423915Y-117797852D01*
X314185820Y-117797852D01*
X315138201Y-116893091D02*
X315185820Y-116845472D01*
X315281058Y-116797852D01*
X315519153Y-116797852D01*
X315614391Y-116845472D01*
X315662010Y-116893091D01*
X315709629Y-116988329D01*
X315709629Y-117083567D01*
X315662010Y-117226424D01*
X315090582Y-117797852D01*
X315709629Y-117797852D01*
X316566772Y-116797852D02*
X316376296Y-116797852D01*
X316281058Y-116845472D01*
X316233439Y-116893091D01*
X316138201Y-117035948D01*
X316090582Y-117226424D01*
X316090582Y-117607376D01*
X316138201Y-117702614D01*
X316185820Y-117750233D01*
X316281058Y-117797852D01*
X316471534Y-117797852D01*
X316566772Y-117750233D01*
X316614391Y-117702614D01*
X316662010Y-117607376D01*
X316662010Y-117369281D01*
X316614391Y-117274043D01*
X316566772Y-117226424D01*
X316471534Y-117178805D01*
X316281058Y-117178805D01*
X316185820Y-117226424D01*
X316138201Y-117274043D01*
X316090582Y-117369281D01*
X378447820Y-174947852D02*
X378447820Y-173947852D01*
X378685915Y-173947852D01*
X378828772Y-173995472D01*
X378924010Y-174090710D01*
X378971629Y-174185948D01*
X379019248Y-174376424D01*
X379019248Y-174519281D01*
X378971629Y-174709757D01*
X378924010Y-174804995D01*
X378828772Y-174900233D01*
X378685915Y-174947852D01*
X378447820Y-174947852D01*
X379876391Y-173947852D02*
X379685915Y-173947852D01*
X379590677Y-173995472D01*
X379543058Y-174043091D01*
X379447820Y-174185948D01*
X379400201Y-174376424D01*
X379400201Y-174757376D01*
X379447820Y-174852614D01*
X379495439Y-174900233D01*
X379590677Y-174947852D01*
X379781153Y-174947852D01*
X379876391Y-174900233D01*
X379924010Y-174852614D01*
X379971629Y-174757376D01*
X379971629Y-174519281D01*
X379924010Y-174424043D01*
X379876391Y-174376424D01*
X379781153Y-174328805D01*
X379590677Y-174328805D01*
X379495439Y-174376424D01*
X379447820Y-174424043D01*
X379400201Y-174519281D01*
X380352582Y-174043091D02*
X380400201Y-173995472D01*
X380495439Y-173947852D01*
X380733534Y-173947852D01*
X380828772Y-173995472D01*
X380876391Y-174043091D01*
X380924010Y-174138329D01*
X380924010Y-174233567D01*
X380876391Y-174376424D01*
X380304963Y-174947852D01*
X380924010Y-174947852D01*
X376034820Y-155897852D02*
X376034820Y-154897852D01*
X376272915Y-154897852D01*
X376415772Y-154945472D01*
X376511010Y-155040710D01*
X376558629Y-155135948D01*
X376606248Y-155326424D01*
X376606248Y-155469281D01*
X376558629Y-155659757D01*
X376511010Y-155754995D01*
X376415772Y-155850233D01*
X376272915Y-155897852D01*
X376034820Y-155897852D01*
X377511010Y-154897852D02*
X377034820Y-154897852D01*
X376987201Y-155374043D01*
X377034820Y-155326424D01*
X377130058Y-155278805D01*
X377368153Y-155278805D01*
X377463391Y-155326424D01*
X377511010Y-155374043D01*
X377558629Y-155469281D01*
X377558629Y-155707376D01*
X377511010Y-155802614D01*
X377463391Y-155850233D01*
X377368153Y-155897852D01*
X377130058Y-155897852D01*
X377034820Y-155850233D01*
X376987201Y-155802614D01*
X377939582Y-154993091D02*
X377987201Y-154945472D01*
X378082439Y-154897852D01*
X378320534Y-154897852D01*
X378415772Y-154945472D01*
X378463391Y-154993091D01*
X378511010Y-155088329D01*
X378511010Y-155183567D01*
X378463391Y-155326424D01*
X377891963Y-155897852D01*
X378511010Y-155897852D01*
X323710820Y-98747852D02*
X323710820Y-97747852D01*
X323948915Y-97747852D01*
X324091772Y-97795472D01*
X324187010Y-97890710D01*
X324234629Y-97985948D01*
X324282248Y-98176424D01*
X324282248Y-98319281D01*
X324234629Y-98509757D01*
X324187010Y-98604995D01*
X324091772Y-98700233D01*
X323948915Y-98747852D01*
X323710820Y-98747852D01*
X325234629Y-98747852D02*
X324663201Y-98747852D01*
X324948915Y-98747852D02*
X324948915Y-97747852D01*
X324853677Y-97890710D01*
X324758439Y-97985948D01*
X324663201Y-98033567D01*
X326187010Y-98747852D02*
X325615582Y-98747852D01*
X325901296Y-98747852D02*
X325901296Y-97747852D01*
X325806058Y-97890710D01*
X325710820Y-97985948D01*
X325615582Y-98033567D01*
X318884820Y-155897852D02*
X318884820Y-154897852D01*
X319122915Y-154897852D01*
X319265772Y-154945472D01*
X319361010Y-155040710D01*
X319408629Y-155135948D01*
X319456248Y-155326424D01*
X319456248Y-155469281D01*
X319408629Y-155659757D01*
X319361010Y-155754995D01*
X319265772Y-155850233D01*
X319122915Y-155897852D01*
X318884820Y-155897852D01*
X320361010Y-154897852D02*
X319884820Y-154897852D01*
X319837201Y-155374043D01*
X319884820Y-155326424D01*
X319980058Y-155278805D01*
X320218153Y-155278805D01*
X320313391Y-155326424D01*
X320361010Y-155374043D01*
X320408629Y-155469281D01*
X320408629Y-155707376D01*
X320361010Y-155802614D01*
X320313391Y-155850233D01*
X320218153Y-155897852D01*
X319980058Y-155897852D01*
X319884820Y-155850233D01*
X319837201Y-155802614D01*
X321313391Y-154897852D02*
X320837201Y-154897852D01*
X320789582Y-155374043D01*
X320837201Y-155326424D01*
X320932439Y-155278805D01*
X321170534Y-155278805D01*
X321265772Y-155326424D01*
X321313391Y-155374043D01*
X321361010Y-155469281D01*
X321361010Y-155707376D01*
X321313391Y-155802614D01*
X321265772Y-155850233D01*
X321170534Y-155897852D01*
X320932439Y-155897852D01*
X320837201Y-155850233D01*
X320789582Y-155802614D01*
X131278464Y-159583630D02*
X131278464Y-158583630D01*
X131516559Y-158583630D01*
X131659416Y-158631250D01*
X131754654Y-158726488D01*
X131802273Y-158821726D01*
X131849892Y-159012202D01*
X131849892Y-159155059D01*
X131802273Y-159345535D01*
X131754654Y-159440773D01*
X131659416Y-159536011D01*
X131516559Y-159583630D01*
X131278464Y-159583630D01*
X132707035Y-158916964D02*
X132707035Y-159583630D01*
X132468940Y-158536011D02*
X132230845Y-159250297D01*
X132849892Y-159250297D01*
X133707035Y-158583630D02*
X133230845Y-158583630D01*
X133183226Y-159059821D01*
X133230845Y-159012202D01*
X133326083Y-158964583D01*
X133564178Y-158964583D01*
X133659416Y-159012202D01*
X133707035Y-159059821D01*
X133754654Y-159155059D01*
X133754654Y-159393154D01*
X133707035Y-159488392D01*
X133659416Y-159536011D01*
X133564178Y-159583630D01*
X133326083Y-159583630D01*
X133230845Y-159536011D01*
X133183226Y-159488392D01*
X163341083Y-102400107D02*
X163074416Y-102400107D01*
X163074416Y-102819154D02*
X163074416Y-102019154D01*
X163455369Y-102019154D01*
X164141083Y-102019154D02*
X163760130Y-102019154D01*
X163722035Y-102400107D01*
X163760130Y-102362011D01*
X163836321Y-102323916D01*
X164026797Y-102323916D01*
X164102988Y-102362011D01*
X164141083Y-102400107D01*
X164179178Y-102476297D01*
X164179178Y-102666773D01*
X164141083Y-102742964D01*
X164102988Y-102781059D01*
X164026797Y-102819154D01*
X163836321Y-102819154D01*
X163760130Y-102781059D01*
X163722035Y-102742964D01*
X173920226Y-96977250D02*
X173844035Y-96939154D01*
X173729750Y-96939154D01*
X173615464Y-96977250D01*
X173539273Y-97053440D01*
X173501178Y-97129630D01*
X173463083Y-97282011D01*
X173463083Y-97396297D01*
X173501178Y-97548678D01*
X173539273Y-97624869D01*
X173615464Y-97701059D01*
X173729750Y-97739154D01*
X173805940Y-97739154D01*
X173920226Y-97701059D01*
X173958321Y-97662964D01*
X173958321Y-97396297D01*
X173805940Y-97396297D01*
X174301178Y-97739154D02*
X174301178Y-96939154D01*
X174758321Y-97739154D01*
X174758321Y-96939154D01*
X175139273Y-97739154D02*
X175139273Y-96939154D01*
X175329750Y-96939154D01*
X175444035Y-96977250D01*
X175520226Y-97053440D01*
X175558321Y-97129630D01*
X175596416Y-97282011D01*
X175596416Y-97396297D01*
X175558321Y-97548678D01*
X175520226Y-97624869D01*
X175444035Y-97701059D01*
X175329750Y-97739154D01*
X175139273Y-97739154D01*
X173977369Y-112560107D02*
X174244035Y-112560107D01*
X174358321Y-112979154D02*
X173977369Y-112979154D01*
X173977369Y-112179154D01*
X174358321Y-112179154D01*
X175044035Y-112179154D02*
X174891654Y-112179154D01*
X174815464Y-112217250D01*
X174777369Y-112255345D01*
X174701178Y-112369630D01*
X174663083Y-112522011D01*
X174663083Y-112826773D01*
X174701178Y-112902964D01*
X174739273Y-112941059D01*
X174815464Y-112979154D01*
X174967845Y-112979154D01*
X175044035Y-112941059D01*
X175082130Y-112902964D01*
X175120226Y-112826773D01*
X175120226Y-112636297D01*
X175082130Y-112560107D01*
X175044035Y-112522011D01*
X174967845Y-112483916D01*
X174815464Y-112483916D01*
X174739273Y-112522011D01*
X174701178Y-112560107D01*
X174663083Y-112636297D01*
X163341083Y-104940107D02*
X163074416Y-104940107D01*
X163074416Y-105359154D02*
X163074416Y-104559154D01*
X163455369Y-104559154D01*
X164102988Y-104559154D02*
X163950607Y-104559154D01*
X163874416Y-104597250D01*
X163836321Y-104635345D01*
X163760130Y-104749630D01*
X163722035Y-104902011D01*
X163722035Y-105206773D01*
X163760130Y-105282964D01*
X163798226Y-105321059D01*
X163874416Y-105359154D01*
X164026797Y-105359154D01*
X164102988Y-105321059D01*
X164141083Y-105282964D01*
X164179178Y-105206773D01*
X164179178Y-105016297D01*
X164141083Y-104940107D01*
X164102988Y-104902011D01*
X164026797Y-104863916D01*
X163874416Y-104863916D01*
X163798226Y-104902011D01*
X163760130Y-104940107D01*
X163722035Y-105016297D01*
X163495416Y-95141059D02*
X163609702Y-95179154D01*
X163800178Y-95179154D01*
X163876369Y-95141059D01*
X163914464Y-95102964D01*
X163952559Y-95026773D01*
X163952559Y-94950583D01*
X163914464Y-94874392D01*
X163876369Y-94836297D01*
X163800178Y-94798202D01*
X163647797Y-94760107D01*
X163571607Y-94722011D01*
X163533511Y-94683916D01*
X163495416Y-94607726D01*
X163495416Y-94531535D01*
X163533511Y-94455345D01*
X163571607Y-94417250D01*
X163647797Y-94379154D01*
X163838273Y-94379154D01*
X163952559Y-94417250D01*
X164181130Y-94379154D02*
X164638273Y-94379154D01*
X164409702Y-95179154D02*
X164409702Y-94379154D01*
X162998226Y-91897250D02*
X162922035Y-91859154D01*
X162807750Y-91859154D01*
X162693464Y-91897250D01*
X162617273Y-91973440D01*
X162579178Y-92049630D01*
X162541083Y-92202011D01*
X162541083Y-92316297D01*
X162579178Y-92468678D01*
X162617273Y-92544869D01*
X162693464Y-92621059D01*
X162807750Y-92659154D01*
X162883940Y-92659154D01*
X162998226Y-92621059D01*
X163036321Y-92582964D01*
X163036321Y-92316297D01*
X162883940Y-92316297D01*
X163379178Y-92659154D02*
X163379178Y-91859154D01*
X163836321Y-92659154D01*
X163836321Y-91859154D01*
X164217273Y-92659154D02*
X164217273Y-91859154D01*
X164407750Y-91859154D01*
X164522035Y-91897250D01*
X164598226Y-91973440D01*
X164636321Y-92049630D01*
X164674416Y-92202011D01*
X164674416Y-92316297D01*
X164636321Y-92468678D01*
X164598226Y-92544869D01*
X164522035Y-92621059D01*
X164407750Y-92659154D01*
X164217273Y-92659154D01*
X163341083Y-99860107D02*
X163074416Y-99860107D01*
X163074416Y-100279154D02*
X163074416Y-99479154D01*
X163455369Y-99479154D01*
X164102988Y-99745821D02*
X164102988Y-100279154D01*
X163912511Y-99441059D02*
X163722035Y-100012488D01*
X164217273Y-100012488D01*
X163283940Y-115100107D02*
X163398226Y-115138202D01*
X163436321Y-115176297D01*
X163474416Y-115252488D01*
X163474416Y-115366773D01*
X163436321Y-115442964D01*
X163398226Y-115481059D01*
X163322035Y-115519154D01*
X163017273Y-115519154D01*
X163017273Y-114719154D01*
X163283940Y-114719154D01*
X163360130Y-114757250D01*
X163398226Y-114795345D01*
X163436321Y-114871535D01*
X163436321Y-114947726D01*
X163398226Y-115023916D01*
X163360130Y-115062011D01*
X163283940Y-115100107D01*
X163017273Y-115100107D01*
X163779178Y-114795345D02*
X163817273Y-114757250D01*
X163893464Y-114719154D01*
X164083940Y-114719154D01*
X164160130Y-114757250D01*
X164198226Y-114795345D01*
X164236321Y-114871535D01*
X164236321Y-114947726D01*
X164198226Y-115062011D01*
X163741083Y-115519154D01*
X164236321Y-115519154D01*
X163055369Y-90119154D02*
X162788702Y-89738202D01*
X162598226Y-90119154D02*
X162598226Y-89319154D01*
X162902988Y-89319154D01*
X162979178Y-89357250D01*
X163017273Y-89395345D01*
X163055369Y-89471535D01*
X163055369Y-89585821D01*
X163017273Y-89662011D01*
X162979178Y-89700107D01*
X162902988Y-89738202D01*
X162598226Y-89738202D01*
X163360130Y-89890583D02*
X163741083Y-89890583D01*
X163283940Y-90119154D02*
X163550607Y-89319154D01*
X163817273Y-90119154D01*
X164007750Y-89319154D02*
X164198226Y-90119154D01*
X164350607Y-89547726D01*
X164502988Y-90119154D01*
X164693464Y-89319154D01*
X174205940Y-115100107D02*
X174320226Y-115138202D01*
X174358321Y-115176297D01*
X174396416Y-115252488D01*
X174396416Y-115366773D01*
X174358321Y-115442964D01*
X174320226Y-115481059D01*
X174244035Y-115519154D01*
X173939273Y-115519154D01*
X173939273Y-114719154D01*
X174205940Y-114719154D01*
X174282130Y-114757250D01*
X174320226Y-114795345D01*
X174358321Y-114871535D01*
X174358321Y-114947726D01*
X174320226Y-115023916D01*
X174282130Y-115062011D01*
X174205940Y-115100107D01*
X173939273Y-115100107D01*
X175082130Y-114985821D02*
X175082130Y-115519154D01*
X174891654Y-114681059D02*
X174701178Y-115252488D01*
X175196416Y-115252488D01*
X163341083Y-107480107D02*
X163074416Y-107480107D01*
X163074416Y-107899154D02*
X163074416Y-107099154D01*
X163455369Y-107099154D01*
X163683940Y-107099154D02*
X164217273Y-107099154D01*
X163874416Y-107899154D01*
X173939273Y-105359154D02*
X173939273Y-104559154D01*
X174129750Y-104559154D01*
X174244035Y-104597250D01*
X174320226Y-104673440D01*
X174358321Y-104749630D01*
X174396416Y-104902011D01*
X174396416Y-105016297D01*
X174358321Y-105168678D01*
X174320226Y-105244869D01*
X174244035Y-105321059D01*
X174129750Y-105359154D01*
X173939273Y-105359154D01*
X175082130Y-104825821D02*
X175082130Y-105359154D01*
X174891654Y-104521059D02*
X174701178Y-105092488D01*
X175196416Y-105092488D01*
X163283940Y-112560107D02*
X163398226Y-112598202D01*
X163436321Y-112636297D01*
X163474416Y-112712488D01*
X163474416Y-112826773D01*
X163436321Y-112902964D01*
X163398226Y-112941059D01*
X163322035Y-112979154D01*
X163017273Y-112979154D01*
X163017273Y-112179154D01*
X163283940Y-112179154D01*
X163360130Y-112217250D01*
X163398226Y-112255345D01*
X163436321Y-112331535D01*
X163436321Y-112407726D01*
X163398226Y-112483916D01*
X163360130Y-112522011D01*
X163283940Y-112560107D01*
X163017273Y-112560107D01*
X163741083Y-112179154D02*
X164236321Y-112179154D01*
X163969654Y-112483916D01*
X164083940Y-112483916D01*
X164160130Y-112522011D01*
X164198226Y-112560107D01*
X164236321Y-112636297D01*
X164236321Y-112826773D01*
X164198226Y-112902964D01*
X164160130Y-112941059D01*
X164083940Y-112979154D01*
X163855369Y-112979154D01*
X163779178Y-112941059D01*
X163741083Y-112902964D01*
X174396416Y-107822964D02*
X174358321Y-107861059D01*
X174244035Y-107899154D01*
X174167845Y-107899154D01*
X174053559Y-107861059D01*
X173977369Y-107784869D01*
X173939273Y-107708678D01*
X173901178Y-107556297D01*
X173901178Y-107442011D01*
X173939273Y-107289630D01*
X173977369Y-107213440D01*
X174053559Y-107137250D01*
X174167845Y-107099154D01*
X174244035Y-107099154D01*
X174358321Y-107137250D01*
X174396416Y-107175345D01*
X175082130Y-107099154D02*
X174929750Y-107099154D01*
X174853559Y-107137250D01*
X174815464Y-107175345D01*
X174739273Y-107289630D01*
X174701178Y-107442011D01*
X174701178Y-107746773D01*
X174739273Y-107822964D01*
X174777369Y-107861059D01*
X174853559Y-107899154D01*
X175005940Y-107899154D01*
X175082130Y-107861059D01*
X175120226Y-107822964D01*
X175158321Y-107746773D01*
X175158321Y-107556297D01*
X175120226Y-107480107D01*
X175082130Y-107442011D01*
X175005940Y-107403916D01*
X174853559Y-107403916D01*
X174777369Y-107442011D01*
X174739273Y-107480107D01*
X174701178Y-107556297D01*
X174205940Y-117640107D02*
X174320226Y-117678202D01*
X174358321Y-117716297D01*
X174396416Y-117792488D01*
X174396416Y-117906773D01*
X174358321Y-117982964D01*
X174320226Y-118021059D01*
X174244035Y-118059154D01*
X173939273Y-118059154D01*
X173939273Y-117259154D01*
X174205940Y-117259154D01*
X174282130Y-117297250D01*
X174320226Y-117335345D01*
X174358321Y-117411535D01*
X174358321Y-117487726D01*
X174320226Y-117563916D01*
X174282130Y-117602011D01*
X174205940Y-117640107D01*
X173939273Y-117640107D01*
X175120226Y-117259154D02*
X174739273Y-117259154D01*
X174701178Y-117640107D01*
X174739273Y-117602011D01*
X174815464Y-117563916D01*
X175005940Y-117563916D01*
X175082130Y-117602011D01*
X175120226Y-117640107D01*
X175158321Y-117716297D01*
X175158321Y-117906773D01*
X175120226Y-117982964D01*
X175082130Y-118021059D01*
X175005940Y-118059154D01*
X174815464Y-118059154D01*
X174739273Y-118021059D01*
X174701178Y-117982964D01*
X163283940Y-117640107D02*
X163398226Y-117678202D01*
X163436321Y-117716297D01*
X163474416Y-117792488D01*
X163474416Y-117906773D01*
X163436321Y-117982964D01*
X163398226Y-118021059D01*
X163322035Y-118059154D01*
X163017273Y-118059154D01*
X163017273Y-117259154D01*
X163283940Y-117259154D01*
X163360130Y-117297250D01*
X163398226Y-117335345D01*
X163436321Y-117411535D01*
X163436321Y-117487726D01*
X163398226Y-117563916D01*
X163360130Y-117602011D01*
X163283940Y-117640107D01*
X163017273Y-117640107D01*
X164160130Y-117259154D02*
X164007750Y-117259154D01*
X163931559Y-117297250D01*
X163893464Y-117335345D01*
X163817273Y-117449630D01*
X163779178Y-117602011D01*
X163779178Y-117906773D01*
X163817273Y-117982964D01*
X163855369Y-118021059D01*
X163931559Y-118059154D01*
X164083940Y-118059154D01*
X164160130Y-118021059D01*
X164198226Y-117982964D01*
X164236321Y-117906773D01*
X164236321Y-117716297D01*
X164198226Y-117640107D01*
X164160130Y-117602011D01*
X164083940Y-117563916D01*
X163931559Y-117563916D01*
X163855369Y-117602011D01*
X163817273Y-117640107D01*
X163779178Y-117716297D01*
X173939273Y-102819154D02*
X173939273Y-102019154D01*
X174129750Y-102019154D01*
X174244035Y-102057250D01*
X174320226Y-102133440D01*
X174358321Y-102209630D01*
X174396416Y-102362011D01*
X174396416Y-102476297D01*
X174358321Y-102628678D01*
X174320226Y-102704869D01*
X174244035Y-102781059D01*
X174129750Y-102819154D01*
X173939273Y-102819154D01*
X174891654Y-102019154D02*
X174967845Y-102019154D01*
X175044035Y-102057250D01*
X175082130Y-102095345D01*
X175120226Y-102171535D01*
X175158321Y-102323916D01*
X175158321Y-102514392D01*
X175120226Y-102666773D01*
X175082130Y-102742964D01*
X175044035Y-102781059D01*
X174967845Y-102819154D01*
X174891654Y-102819154D01*
X174815464Y-102781059D01*
X174777369Y-102742964D01*
X174739273Y-102666773D01*
X174701178Y-102514392D01*
X174701178Y-102323916D01*
X174739273Y-102171535D01*
X174777369Y-102095345D01*
X174815464Y-102057250D01*
X174891654Y-102019154D01*
X173939273Y-100279154D02*
X173939273Y-99479154D01*
X174129750Y-99479154D01*
X174244035Y-99517250D01*
X174320226Y-99593440D01*
X174358321Y-99669630D01*
X174396416Y-99822011D01*
X174396416Y-99936297D01*
X174358321Y-100088678D01*
X174320226Y-100164869D01*
X174244035Y-100241059D01*
X174129750Y-100279154D01*
X173939273Y-100279154D01*
X175158321Y-100279154D02*
X174701178Y-100279154D01*
X174929750Y-100279154D02*
X174929750Y-99479154D01*
X174853559Y-99593440D01*
X174777369Y-99669630D01*
X174701178Y-99707726D01*
X173939273Y-110439154D02*
X173939273Y-109639154D01*
X174129750Y-109639154D01*
X174244035Y-109677250D01*
X174320226Y-109753440D01*
X174358321Y-109829630D01*
X174396416Y-109982011D01*
X174396416Y-110096297D01*
X174358321Y-110248678D01*
X174320226Y-110324869D01*
X174244035Y-110401059D01*
X174129750Y-110439154D01*
X173939273Y-110439154D01*
X174663083Y-109639154D02*
X175196416Y-109639154D01*
X174853559Y-110439154D01*
X173920226Y-94437250D02*
X173844035Y-94399154D01*
X173729750Y-94399154D01*
X173615464Y-94437250D01*
X173539273Y-94513440D01*
X173501178Y-94589630D01*
X173463083Y-94742011D01*
X173463083Y-94856297D01*
X173501178Y-95008678D01*
X173539273Y-95084869D01*
X173615464Y-95161059D01*
X173729750Y-95199154D01*
X173805940Y-95199154D01*
X173920226Y-95161059D01*
X173958321Y-95122964D01*
X173958321Y-94856297D01*
X173805940Y-94856297D01*
X174301178Y-95199154D02*
X174301178Y-94399154D01*
X174758321Y-95199154D01*
X174758321Y-94399154D01*
X175139273Y-95199154D02*
X175139273Y-94399154D01*
X175329750Y-94399154D01*
X175444035Y-94437250D01*
X175520226Y-94513440D01*
X175558321Y-94589630D01*
X175596416Y-94742011D01*
X175596416Y-94856297D01*
X175558321Y-95008678D01*
X175520226Y-95084869D01*
X175444035Y-95161059D01*
X175329750Y-95199154D01*
X175139273Y-95199154D01*
X170450145Y-89319154D02*
X170907288Y-89319154D01*
X170678717Y-90119154D02*
X170678717Y-89319154D01*
X171097764Y-89319154D02*
X171631098Y-90119154D01*
X171631098Y-89319154D02*
X171097764Y-90119154D01*
X172088241Y-89319154D02*
X172164431Y-89319154D01*
X172240622Y-89357250D01*
X172278717Y-89395345D01*
X172316812Y-89471535D01*
X172354907Y-89623916D01*
X172354907Y-89814392D01*
X172316812Y-89966773D01*
X172278717Y-90042964D01*
X172240622Y-90081059D01*
X172164431Y-90119154D01*
X172088241Y-90119154D01*
X172012050Y-90081059D01*
X171973955Y-90042964D01*
X171935860Y-89966773D01*
X171897764Y-89814392D01*
X171897764Y-89623916D01*
X171935860Y-89471535D01*
X171973955Y-89395345D01*
X172012050Y-89357250D01*
X172088241Y-89319154D01*
X173269193Y-89281059D02*
X172583479Y-90309630D01*
X173535860Y-90119154D02*
X173535860Y-89319154D01*
X173726336Y-89319154D01*
X173840622Y-89357250D01*
X173916812Y-89433440D01*
X173954907Y-89509630D01*
X173993002Y-89662011D01*
X173993002Y-89776297D01*
X173954907Y-89928678D01*
X173916812Y-90004869D01*
X173840622Y-90081059D01*
X173726336Y-90119154D01*
X173535860Y-90119154D01*
X174259669Y-89319154D02*
X174754907Y-89319154D01*
X174488241Y-89623916D01*
X174602526Y-89623916D01*
X174678717Y-89662011D01*
X174716812Y-89700107D01*
X174754907Y-89776297D01*
X174754907Y-89966773D01*
X174716812Y-90042964D01*
X174678717Y-90081059D01*
X174602526Y-90119154D01*
X174373955Y-90119154D01*
X174297764Y-90081059D01*
X174259669Y-90042964D01*
X173939273Y-92659154D02*
X173939273Y-91859154D01*
X174129750Y-91859154D01*
X174244035Y-91897250D01*
X174320226Y-91973440D01*
X174358321Y-92049630D01*
X174396416Y-92202011D01*
X174396416Y-92316297D01*
X174358321Y-92468678D01*
X174320226Y-92544869D01*
X174244035Y-92621059D01*
X174129750Y-92659154D01*
X173939273Y-92659154D01*
X174701178Y-91935345D02*
X174739273Y-91897250D01*
X174815464Y-91859154D01*
X175005940Y-91859154D01*
X175082130Y-91897250D01*
X175120226Y-91935345D01*
X175158321Y-92011535D01*
X175158321Y-92087726D01*
X175120226Y-92202011D01*
X174663083Y-92659154D01*
X175158321Y-92659154D01*
X163283940Y-110020107D02*
X163398226Y-110058202D01*
X163436321Y-110096297D01*
X163474416Y-110172488D01*
X163474416Y-110286773D01*
X163436321Y-110362964D01*
X163398226Y-110401059D01*
X163322035Y-110439154D01*
X163017273Y-110439154D01*
X163017273Y-109639154D01*
X163283940Y-109639154D01*
X163360130Y-109677250D01*
X163398226Y-109715345D01*
X163436321Y-109791535D01*
X163436321Y-109867726D01*
X163398226Y-109943916D01*
X163360130Y-109982011D01*
X163283940Y-110020107D01*
X163017273Y-110020107D01*
X164236321Y-110439154D02*
X163779178Y-110439154D01*
X164007750Y-110439154D02*
X164007750Y-109639154D01*
X163931559Y-109753440D01*
X163855369Y-109829630D01*
X163779178Y-109867726D01*
X162541083Y-96939154D02*
X162807750Y-97739154D01*
X163074416Y-96939154D01*
X163798226Y-97662964D02*
X163760130Y-97701059D01*
X163645845Y-97739154D01*
X163569654Y-97739154D01*
X163455369Y-97701059D01*
X163379178Y-97624869D01*
X163341083Y-97548678D01*
X163302988Y-97396297D01*
X163302988Y-97282011D01*
X163341083Y-97129630D01*
X163379178Y-97053440D01*
X163455369Y-96977250D01*
X163569654Y-96939154D01*
X163645845Y-96939154D01*
X163760130Y-96977250D01*
X163798226Y-97015345D01*
X164598226Y-97662964D02*
X164560130Y-97701059D01*
X164445845Y-97739154D01*
X164369654Y-97739154D01*
X164255369Y-97701059D01*
X164179178Y-97624869D01*
X164141083Y-97548678D01*
X164102988Y-97396297D01*
X164102988Y-97282011D01*
X164141083Y-97129630D01*
X164179178Y-97053440D01*
X164255369Y-96977250D01*
X164369654Y-96939154D01*
X164445845Y-96939154D01*
X164560130Y-96977250D01*
X164598226Y-97015345D01*
D11*
X125265750Y-100298250D02*
X125665750Y-100298250D01*
X125665750Y-100298250D02*
X125665750Y-99748250D01*
D12*
X123765750Y-101298250D02*
X127665750Y-101298250D01*
D11*
X126265750Y-100298250D02*
X126765750Y-100298250D01*
D12*
X123765750Y-99298250D02*
X123765750Y-101298250D01*
D11*
X125665750Y-100298250D02*
X126265750Y-99898250D01*
X126265750Y-100698250D02*
X125665750Y-100298250D01*
D12*
X123765750Y-99298250D02*
X127665750Y-99298250D01*
D11*
X125665750Y-100298250D02*
X125665750Y-100848250D01*
X126265750Y-99898250D02*
X126265750Y-100698250D01*
X228925106Y-176495472D02*
X229325106Y-176495472D01*
X229325106Y-176495472D02*
X229325106Y-175945472D01*
D12*
X227425106Y-175495472D02*
X227425106Y-177495472D01*
D11*
X229325106Y-176495472D02*
X229325106Y-177045472D01*
X229925106Y-176895472D02*
X229325106Y-176495472D01*
D12*
X227425106Y-175495472D02*
X231325106Y-175495472D01*
X227425106Y-177495472D02*
X231325106Y-177495472D01*
D11*
X229925106Y-176495472D02*
X230425106Y-176495472D01*
X229925106Y-176095472D02*
X229925106Y-176895472D01*
X229325106Y-176495472D02*
X229925106Y-176095472D01*
X291174106Y-138395472D02*
X291174106Y-137845472D01*
D12*
X289274106Y-137395472D02*
X289274106Y-139395472D01*
D11*
X290774106Y-138395472D02*
X291174106Y-138395472D01*
X291174106Y-138395472D02*
X291174106Y-138945472D01*
X291774106Y-137995472D02*
X291774106Y-138795472D01*
X291174106Y-138395472D02*
X291774106Y-137995472D01*
X291774106Y-138395472D02*
X292274106Y-138395472D01*
D12*
X289274106Y-137395472D02*
X293174106Y-137395472D01*
D11*
X291774106Y-138795472D02*
X291174106Y-138395472D01*
D12*
X289274106Y-139395472D02*
X293174106Y-139395472D01*
D11*
X107215750Y-100298250D02*
X107715750Y-100298250D01*
D12*
X104715750Y-99298250D02*
X104715750Y-101298250D01*
D11*
X106615750Y-100298250D02*
X106615750Y-100848250D01*
X106615750Y-100298250D02*
X107215750Y-99898250D01*
X106215750Y-100298250D02*
X106615750Y-100298250D01*
X107215750Y-99898250D02*
X107215750Y-100698250D01*
X107215750Y-100698250D02*
X106615750Y-100298250D01*
D12*
X104715750Y-101298250D02*
X108615750Y-101298250D01*
X104715750Y-99298250D02*
X108615750Y-99298250D01*
D11*
X106615750Y-100298250D02*
X106615750Y-99748250D01*
D12*
X341725106Y-99295472D02*
X345625106Y-99295472D01*
D11*
X343625106Y-100295472D02*
X344225106Y-99895472D01*
D12*
X341725106Y-99295472D02*
X341725106Y-101295472D01*
D11*
X343625106Y-100295472D02*
X343625106Y-99745472D01*
X343625106Y-100295472D02*
X343625106Y-100845472D01*
X344225106Y-100295472D02*
X344725106Y-100295472D01*
X344225106Y-100695472D02*
X343625106Y-100295472D01*
X344225106Y-99895472D02*
X344225106Y-100695472D01*
X343225106Y-100295472D02*
X343625106Y-100295472D01*
D12*
X341725106Y-101295472D02*
X345625106Y-101295472D01*
X157527750Y-159643250D02*
X157527750Y-163543250D01*
D11*
X158527750Y-161543250D02*
X159077750Y-161543250D01*
D12*
X159527750Y-159643250D02*
X157527750Y-159643250D01*
D11*
X158527750Y-162143250D02*
X158527750Y-162643250D01*
X158127750Y-162143250D02*
X158527750Y-161543250D01*
X158927750Y-162143250D02*
X158127750Y-162143250D01*
X158527750Y-161543250D02*
X158927750Y-162143250D01*
X158527750Y-161543250D02*
X157977750Y-161543250D01*
D12*
X159527750Y-159643250D02*
X159527750Y-163543250D01*
D11*
X158527750Y-161143250D02*
X158527750Y-161543250D01*
X118153750Y-176498250D02*
X118553750Y-176498250D01*
X119153750Y-176498250D02*
X119653750Y-176498250D01*
D12*
X116653750Y-175498250D02*
X120553750Y-175498250D01*
D11*
X118553750Y-176498250D02*
X119153750Y-176098250D01*
X119153750Y-176098250D02*
X119153750Y-176898250D01*
D12*
X116653750Y-175498250D02*
X116653750Y-177498250D01*
D11*
X118553750Y-176498250D02*
X118553750Y-177048250D01*
X119153750Y-176898250D02*
X118553750Y-176498250D01*
D12*
X116653750Y-177498250D02*
X120553750Y-177498250D01*
D11*
X118553750Y-176498250D02*
X118553750Y-175948250D01*
D12*
X152288750Y-135568250D02*
X152288750Y-131668250D01*
D11*
X151688750Y-133068250D02*
X151288750Y-133668250D01*
X151288750Y-133668250D02*
X150738750Y-133668250D01*
X151288750Y-133068250D02*
X151288750Y-132568250D01*
X151288750Y-134068250D02*
X151288750Y-133668250D01*
D12*
X150288750Y-135568250D02*
X152288750Y-135568250D01*
D11*
X151288750Y-133668250D02*
X151838750Y-133668250D01*
X150888750Y-133068250D02*
X151688750Y-133068250D01*
D12*
X150288750Y-135568250D02*
X150288750Y-131668250D01*
D11*
X151288750Y-133668250D02*
X150888750Y-133068250D01*
X387024106Y-137995472D02*
X387024106Y-138795472D01*
X386424106Y-138395472D02*
X386424106Y-138945472D01*
X386424106Y-138395472D02*
X386424106Y-137845472D01*
D12*
X384524106Y-137395472D02*
X384524106Y-139395472D01*
D11*
X387024106Y-138795472D02*
X386424106Y-138395472D01*
X386024106Y-138395472D02*
X386424106Y-138395472D01*
X387024106Y-138395472D02*
X387524106Y-138395472D01*
D12*
X384524106Y-137395472D02*
X388424106Y-137395472D01*
D11*
X386424106Y-138395472D02*
X387024106Y-137995472D01*
D12*
X384524106Y-139395472D02*
X388424106Y-139395472D01*
X294100106Y-118345472D02*
X294100106Y-120345472D01*
X294100106Y-120345472D02*
X298000106Y-120345472D01*
D11*
X295600106Y-119345472D02*
X296000106Y-119345472D01*
X296000106Y-119345472D02*
X296000106Y-119895472D01*
D12*
X294100106Y-118345472D02*
X298000106Y-118345472D01*
D11*
X296600106Y-118945472D02*
X296600106Y-119745472D01*
X296600106Y-119345472D02*
X297100106Y-119345472D01*
X296000106Y-119345472D02*
X296000106Y-118795472D01*
X296000106Y-119345472D02*
X296600106Y-118945472D01*
X296600106Y-119745472D02*
X296000106Y-119345472D01*
X274537106Y-157445472D02*
X275137106Y-157045472D01*
X275137106Y-157445472D02*
X275637106Y-157445472D01*
D12*
X272637106Y-156445472D02*
X272637106Y-158445472D01*
D11*
X274137106Y-157445472D02*
X274537106Y-157445472D01*
X275137106Y-157045472D02*
X275137106Y-157845472D01*
D12*
X272637106Y-156445472D02*
X276537106Y-156445472D01*
X272637106Y-158445472D02*
X276537106Y-158445472D01*
D11*
X274537106Y-157445472D02*
X274537106Y-156895472D01*
X275137106Y-157845472D02*
X274537106Y-157445472D01*
X274537106Y-157445472D02*
X274537106Y-157995472D01*
X87565750Y-100298250D02*
X87565750Y-99748250D01*
D12*
X85665750Y-99298250D02*
X89565750Y-99298250D01*
D11*
X88165750Y-99898250D02*
X88165750Y-100698250D01*
D12*
X85665750Y-99298250D02*
X85665750Y-101298250D01*
D11*
X88165750Y-100298250D02*
X88665750Y-100298250D01*
X87565750Y-100298250D02*
X87565750Y-100848250D01*
X87565750Y-100298250D02*
X88165750Y-99898250D01*
X88165750Y-100698250D02*
X87565750Y-100298250D01*
X87165750Y-100298250D02*
X87565750Y-100298250D01*
D12*
X85665750Y-101298250D02*
X89565750Y-101298250D01*
X217444354Y-151799222D02*
X217966858Y-151799222D01*
X217444354Y-153269222D02*
X217966858Y-153269222D01*
D11*
X101789750Y-157448250D02*
X102389750Y-157048250D01*
D12*
X99889750Y-156448250D02*
X103789750Y-156448250D01*
D11*
X102389750Y-157448250D02*
X102889750Y-157448250D01*
X102389750Y-157848250D02*
X101789750Y-157448250D01*
D12*
X99889750Y-158448250D02*
X103789750Y-158448250D01*
D11*
X101389750Y-157448250D02*
X101789750Y-157448250D01*
X101789750Y-157448250D02*
X101789750Y-157998250D01*
X102389750Y-157048250D02*
X102389750Y-157848250D01*
X101789750Y-157448250D02*
X101789750Y-156898250D01*
D12*
X99889750Y-156448250D02*
X99889750Y-158448250D01*
D11*
X253928106Y-104105472D02*
X254428106Y-104105472D01*
D12*
X251428106Y-103105472D02*
X251428106Y-105105472D01*
D11*
X253328106Y-104105472D02*
X253928106Y-103705472D01*
X253928106Y-104505472D02*
X253328106Y-104105472D01*
X253328106Y-104105472D02*
X253328106Y-103555472D01*
X252928106Y-104105472D02*
X253328106Y-104105472D01*
D12*
X251428106Y-105105472D02*
X255328106Y-105105472D01*
D11*
X253328106Y-104105472D02*
X253328106Y-104655472D01*
D12*
X251428106Y-103105472D02*
X255328106Y-103105472D01*
D11*
X253928106Y-103705472D02*
X253928106Y-104505472D01*
D12*
X52264750Y-139398250D02*
X56164750Y-139398250D01*
X52264750Y-137398250D02*
X56164750Y-137398250D01*
D11*
X54164750Y-138398250D02*
X54164750Y-138948250D01*
X54764750Y-137998250D02*
X54764750Y-138798250D01*
X54764750Y-138798250D02*
X54164750Y-138398250D01*
X53764750Y-138398250D02*
X54164750Y-138398250D01*
X54764750Y-138398250D02*
X55264750Y-138398250D01*
D12*
X52264750Y-137398250D02*
X52264750Y-139398250D01*
D11*
X54164750Y-138398250D02*
X54164750Y-137848250D01*
X54164750Y-138398250D02*
X54764750Y-137998250D01*
D12*
X23689750Y-158448250D02*
X27589750Y-158448250D01*
D11*
X25589750Y-157448250D02*
X25589750Y-156898250D01*
X25589750Y-157448250D02*
X25589750Y-157998250D01*
X26189750Y-157848250D02*
X25589750Y-157448250D01*
D12*
X23689750Y-156448250D02*
X23689750Y-158448250D01*
D11*
X26189750Y-157448250D02*
X26689750Y-157448250D01*
X25589750Y-157448250D02*
X26189750Y-157048250D01*
X26189750Y-157048250D02*
X26189750Y-157848250D01*
X25189750Y-157448250D02*
X25589750Y-157448250D01*
D12*
X23689750Y-156448250D02*
X27589750Y-156448250D01*
X61789750Y-156448250D02*
X61789750Y-158448250D01*
D11*
X63689750Y-157448250D02*
X63689750Y-156898250D01*
X64289750Y-157848250D02*
X63689750Y-157448250D01*
D12*
X61789750Y-158448250D02*
X65689750Y-158448250D01*
D11*
X64289750Y-157048250D02*
X64289750Y-157848250D01*
X64289750Y-157448250D02*
X64789750Y-157448250D01*
X63689750Y-157448250D02*
X64289750Y-157048250D01*
X63289750Y-157448250D02*
X63689750Y-157448250D01*
D12*
X61789750Y-156448250D02*
X65689750Y-156448250D01*
D11*
X63689750Y-157448250D02*
X63689750Y-157998250D01*
X247975106Y-157445472D02*
X248375106Y-157445472D01*
X248375106Y-157445472D02*
X248975106Y-157045472D01*
D12*
X246475106Y-156445472D02*
X250375106Y-156445472D01*
D11*
X248975106Y-157445472D02*
X249475106Y-157445472D01*
X248975106Y-157845472D02*
X248375106Y-157445472D01*
D12*
X246475106Y-158445472D02*
X250375106Y-158445472D01*
D11*
X248975106Y-157045472D02*
X248975106Y-157845472D01*
X248375106Y-157445472D02*
X248375106Y-156895472D01*
D12*
X246475106Y-156445472D02*
X246475106Y-158445472D01*
D11*
X248375106Y-157445472D02*
X248375106Y-157995472D01*
X264600106Y-114047222D02*
X264600106Y-113547222D01*
X264600106Y-114647222D02*
X264050106Y-114647222D01*
X264600106Y-114647222D02*
X264200106Y-114047222D01*
X264200106Y-114047222D02*
X265000106Y-114047222D01*
D12*
X263600106Y-116547222D02*
X263600106Y-112647222D01*
D11*
X265000106Y-114047222D02*
X264600106Y-114647222D01*
X264600106Y-115047222D02*
X264600106Y-114647222D01*
D12*
X265600106Y-116547222D02*
X265600106Y-112647222D01*
X263600106Y-116547222D02*
X265600106Y-116547222D01*
D11*
X264600106Y-114647222D02*
X265150106Y-114647222D01*
D12*
X213690042Y-153269222D02*
X214144170Y-153269222D01*
X213690042Y-151799222D02*
X214144170Y-151799222D01*
X47565750Y-99298250D02*
X47565750Y-101298250D01*
D11*
X49465750Y-100298250D02*
X50065750Y-99898250D01*
X50065750Y-100698250D02*
X49465750Y-100298250D01*
D12*
X47565750Y-99298250D02*
X51465750Y-99298250D01*
D11*
X49065750Y-100298250D02*
X49465750Y-100298250D01*
X49465750Y-100298250D02*
X49465750Y-99748250D01*
X50065750Y-99898250D02*
X50065750Y-100698250D01*
X49465750Y-100298250D02*
X49465750Y-100848250D01*
X50065750Y-100298250D02*
X50565750Y-100298250D01*
D12*
X47565750Y-101298250D02*
X51465750Y-101298250D01*
D11*
X229325106Y-157445472D02*
X229325106Y-157995472D01*
D12*
X227425106Y-158445472D02*
X231325106Y-158445472D01*
D11*
X229925106Y-157445472D02*
X230425106Y-157445472D01*
X229925106Y-157045472D02*
X229925106Y-157845472D01*
X229325106Y-157445472D02*
X229925106Y-157045472D01*
X228925106Y-157445472D02*
X229325106Y-157445472D01*
X229925106Y-157845472D02*
X229325106Y-157445472D01*
X229325106Y-157445472D02*
X229325106Y-156895472D01*
D12*
X227425106Y-156445472D02*
X231325106Y-156445472D01*
X227425106Y-156445472D02*
X227425106Y-158445472D01*
D11*
X338799106Y-157445472D02*
X338799106Y-156895472D01*
D12*
X336899106Y-158445472D02*
X340799106Y-158445472D01*
D11*
X338399106Y-157445472D02*
X338799106Y-157445472D01*
X338799106Y-157445472D02*
X338799106Y-157995472D01*
X339399106Y-157045472D02*
X339399106Y-157845472D01*
D12*
X336899106Y-156445472D02*
X340799106Y-156445472D01*
D11*
X338799106Y-157445472D02*
X339399106Y-157045472D01*
X339399106Y-157845472D02*
X338799106Y-157445472D01*
D12*
X336899106Y-156445472D02*
X336899106Y-158445472D01*
D11*
X339399106Y-157445472D02*
X339899106Y-157445472D01*
D12*
X42739750Y-158448250D02*
X46639750Y-158448250D01*
D11*
X44639750Y-157448250D02*
X44639750Y-157998250D01*
X45239750Y-157848250D02*
X44639750Y-157448250D01*
X45239750Y-157048250D02*
X45239750Y-157848250D01*
X44639750Y-157448250D02*
X45239750Y-157048250D01*
X45239750Y-157448250D02*
X45739750Y-157448250D01*
D12*
X42739750Y-156448250D02*
X46639750Y-156448250D01*
D11*
X44239750Y-157448250D02*
X44639750Y-157448250D01*
D12*
X42739750Y-156448250D02*
X42739750Y-158448250D01*
D11*
X44639750Y-157448250D02*
X44639750Y-156898250D01*
X353150106Y-119345472D02*
X353150106Y-119895472D01*
D12*
X351250106Y-118345472D02*
X355150106Y-118345472D01*
D11*
X353750106Y-119345472D02*
X354250106Y-119345472D01*
X352750106Y-119345472D02*
X353150106Y-119345472D01*
D12*
X351250106Y-120345472D02*
X355150106Y-120345472D01*
X351250106Y-118345472D02*
X351250106Y-120345472D01*
D11*
X353150106Y-119345472D02*
X353750106Y-118945472D01*
X353750106Y-119745472D02*
X353150106Y-119345472D01*
X353150106Y-119345472D02*
X353150106Y-118795472D01*
X353750106Y-118945472D02*
X353750106Y-119745472D01*
X115740750Y-119348250D02*
X116140750Y-119348250D01*
X116140750Y-119348250D02*
X116140750Y-118798250D01*
X116140750Y-119348250D02*
X116140750Y-119898250D01*
D12*
X114240750Y-120348250D02*
X118140750Y-120348250D01*
D11*
X116740750Y-118948250D02*
X116740750Y-119748250D01*
D12*
X114240750Y-118348250D02*
X118140750Y-118348250D01*
D11*
X116140750Y-119348250D02*
X116740750Y-118948250D01*
X116740750Y-119348250D02*
X117240750Y-119348250D01*
X116740750Y-119748250D02*
X116140750Y-119348250D01*
D12*
X114240750Y-118348250D02*
X114240750Y-120348250D01*
D11*
X78640750Y-119748250D02*
X78040750Y-119348250D01*
D12*
X76140750Y-118348250D02*
X76140750Y-120348250D01*
D11*
X78040750Y-119348250D02*
X78040750Y-118798250D01*
X78640750Y-119348250D02*
X79140750Y-119348250D01*
D12*
X76140750Y-120348250D02*
X80040750Y-120348250D01*
D11*
X78040750Y-119348250D02*
X78040750Y-119898250D01*
X78640750Y-118948250D02*
X78640750Y-119748250D01*
D12*
X76140750Y-118348250D02*
X80040750Y-118348250D01*
D11*
X77640750Y-119348250D02*
X78040750Y-119348250D01*
X78040750Y-119348250D02*
X78640750Y-118948250D01*
D12*
X211397106Y-114579472D02*
X219077106Y-114579472D01*
X219077106Y-114579472D02*
X219077106Y-111919472D01*
X211397106Y-114579472D02*
X211397106Y-111919472D01*
X210127106Y-114579472D02*
X208797106Y-114579472D01*
X208797106Y-114579472D02*
X208797106Y-113249472D01*
X211397106Y-111919472D02*
X219077106Y-111919472D01*
D11*
X301299106Y-157845472D02*
X300699106Y-157445472D01*
X300699106Y-157445472D02*
X300699106Y-157995472D01*
X300299106Y-157445472D02*
X300699106Y-157445472D01*
D12*
X298799106Y-158445472D02*
X302699106Y-158445472D01*
D11*
X300699106Y-157445472D02*
X300699106Y-156895472D01*
X301299106Y-157445472D02*
X301799106Y-157445472D01*
D12*
X298799106Y-156445472D02*
X298799106Y-158445472D01*
D11*
X300699106Y-157445472D02*
X301299106Y-157045472D01*
D12*
X298799106Y-156445472D02*
X302699106Y-156445472D01*
D11*
X301299106Y-157045472D02*
X301299106Y-157845472D01*
X68515750Y-100298250D02*
X69115750Y-99898250D01*
D12*
X66615750Y-101298250D02*
X70515750Y-101298250D01*
D11*
X68515750Y-100298250D02*
X68515750Y-100848250D01*
D12*
X66615750Y-99298250D02*
X66615750Y-101298250D01*
D11*
X69115750Y-99898250D02*
X69115750Y-100698250D01*
X69115750Y-100298250D02*
X69615750Y-100298250D01*
D12*
X66615750Y-99298250D02*
X70515750Y-99298250D01*
D11*
X68115750Y-100298250D02*
X68515750Y-100298250D01*
X68515750Y-100298250D02*
X68515750Y-99748250D01*
X69115750Y-100698250D02*
X68515750Y-100298250D01*
X346038106Y-176495472D02*
X346638106Y-176095472D01*
X346638106Y-176895472D02*
X346038106Y-176495472D01*
D12*
X344138106Y-175495472D02*
X348038106Y-175495472D01*
D11*
X346638106Y-176495472D02*
X347138106Y-176495472D01*
X346038106Y-176495472D02*
X346038106Y-177045472D01*
D12*
X344138106Y-175495472D02*
X344138106Y-177495472D01*
D11*
X346638106Y-176095472D02*
X346638106Y-176895472D01*
D12*
X344138106Y-177495472D02*
X348038106Y-177495472D01*
D11*
X345638106Y-176495472D02*
X346038106Y-176495472D01*
X346038106Y-176495472D02*
X346038106Y-175945472D01*
D12*
X109414750Y-139398250D02*
X113314750Y-139398250D01*
D11*
X111914750Y-138398250D02*
X112414750Y-138398250D01*
X111914750Y-138798250D02*
X111314750Y-138398250D01*
D12*
X109414750Y-137398250D02*
X113314750Y-137398250D01*
X109414750Y-137398250D02*
X109414750Y-139398250D01*
D11*
X111314750Y-138398250D02*
X111314750Y-137848250D01*
X110914750Y-138398250D02*
X111314750Y-138398250D01*
X111314750Y-138398250D02*
X111914750Y-137998250D01*
X111914750Y-137998250D02*
X111914750Y-138798250D01*
X111314750Y-138398250D02*
X111314750Y-138948250D01*
X95277750Y-176498250D02*
X95777750Y-176498250D01*
D12*
X92777750Y-177498250D02*
X96677750Y-177498250D01*
D11*
X95277750Y-176898250D02*
X94677750Y-176498250D01*
X94677750Y-176498250D02*
X94677750Y-175948250D01*
X95277750Y-176098250D02*
X95277750Y-176898250D01*
X94277750Y-176498250D02*
X94677750Y-176498250D01*
X94677750Y-176498250D02*
X94677750Y-177048250D01*
D12*
X92777750Y-175498250D02*
X92777750Y-177498250D01*
D11*
X94677750Y-176498250D02*
X95277750Y-176098250D01*
D12*
X92777750Y-175498250D02*
X96677750Y-175498250D01*
D11*
X142902750Y-176098250D02*
X142902750Y-176898250D01*
X142902750Y-176498250D02*
X143402750Y-176498250D01*
X142302750Y-176498250D02*
X142302750Y-175948250D01*
X142302750Y-176498250D02*
X142902750Y-176098250D01*
X142302750Y-176498250D02*
X142302750Y-177048250D01*
X142902750Y-176898250D02*
X142302750Y-176498250D01*
D12*
X140402750Y-175498250D02*
X140402750Y-177498250D01*
D11*
X141902750Y-176498250D02*
X142302750Y-176498250D01*
D12*
X140402750Y-175498250D02*
X144302750Y-175498250D01*
X140402750Y-177498250D02*
X144302750Y-177498250D01*
D11*
X82739750Y-157448250D02*
X83339750Y-157048250D01*
X83339750Y-157048250D02*
X83339750Y-157848250D01*
D12*
X80839750Y-156448250D02*
X80839750Y-158448250D01*
D11*
X83339750Y-157848250D02*
X82739750Y-157448250D01*
X83339750Y-157448250D02*
X83839750Y-157448250D01*
D12*
X80839750Y-156448250D02*
X84739750Y-156448250D01*
X80839750Y-158448250D02*
X84739750Y-158448250D01*
D11*
X82339750Y-157448250D02*
X82739750Y-157448250D01*
X82739750Y-157448250D02*
X82739750Y-157998250D01*
X82739750Y-157448250D02*
X82739750Y-156898250D01*
X73814750Y-137998250D02*
X73814750Y-138798250D01*
D12*
X71314750Y-137398250D02*
X75214750Y-137398250D01*
X71314750Y-139398250D02*
X75214750Y-139398250D01*
D11*
X73814750Y-138798250D02*
X73214750Y-138398250D01*
X73214750Y-138398250D02*
X73214750Y-138948250D01*
X72814750Y-138398250D02*
X73214750Y-138398250D01*
X73814750Y-138398250D02*
X74314750Y-138398250D01*
X73214750Y-138398250D02*
X73814750Y-137998250D01*
X73214750Y-138398250D02*
X73214750Y-137848250D01*
D12*
X71314750Y-137398250D02*
X71314750Y-139398250D01*
X389350106Y-118345472D02*
X393250106Y-118345472D01*
D11*
X391850106Y-118945472D02*
X391850106Y-119745472D01*
X391850106Y-119345472D02*
X392350106Y-119345472D01*
X391850106Y-119745472D02*
X391250106Y-119345472D01*
D12*
X389350106Y-120345472D02*
X393250106Y-120345472D01*
D11*
X391250106Y-119345472D02*
X391250106Y-118795472D01*
X391250106Y-119345472D02*
X391850106Y-118945472D01*
X391250106Y-119345472D02*
X391250106Y-119895472D01*
X390850106Y-119345472D02*
X391250106Y-119345472D01*
D12*
X389350106Y-118345472D02*
X389350106Y-120345472D01*
D11*
X256468106Y-142859472D02*
X255868106Y-142459472D01*
X255868106Y-142459472D02*
X256468106Y-142059472D01*
X255468106Y-142459472D02*
X255868106Y-142459472D01*
X255868106Y-142459472D02*
X255868106Y-143009472D01*
D12*
X253968106Y-143459472D02*
X257868106Y-143459472D01*
X253968106Y-141459472D02*
X257868106Y-141459472D01*
D11*
X256468106Y-142059472D02*
X256468106Y-142859472D01*
D12*
X253968106Y-141459472D02*
X253968106Y-143459472D01*
D11*
X256468106Y-142459472D02*
X256968106Y-142459472D01*
X255868106Y-142459472D02*
X255868106Y-141909472D01*
D12*
X327374106Y-137395472D02*
X331274106Y-137395472D01*
D11*
X328874106Y-138395472D02*
X329274106Y-138395472D01*
D12*
X327374106Y-137395472D02*
X327374106Y-139395472D01*
D11*
X329274106Y-138395472D02*
X329274106Y-137845472D01*
X329274106Y-138395472D02*
X329874106Y-137995472D01*
D12*
X327374106Y-139395472D02*
X331274106Y-139395472D01*
D11*
X329274106Y-138395472D02*
X329274106Y-138945472D01*
X329874106Y-138795472D02*
X329274106Y-138395472D01*
X329874106Y-138395472D02*
X330374106Y-138395472D01*
X329874106Y-137995472D02*
X329874106Y-138795472D01*
D12*
X95190750Y-120348250D02*
X99090750Y-120348250D01*
D11*
X97090750Y-119348250D02*
X97690750Y-118948250D01*
X97090750Y-119348250D02*
X97090750Y-119898250D01*
D12*
X95190750Y-118348250D02*
X99090750Y-118348250D01*
D11*
X97690750Y-118948250D02*
X97690750Y-119748250D01*
X97690750Y-119748250D02*
X97090750Y-119348250D01*
X97690750Y-119348250D02*
X98190750Y-119348250D01*
X96690750Y-119348250D02*
X97090750Y-119348250D01*
D12*
X95190750Y-118348250D02*
X95190750Y-120348250D01*
D11*
X97090750Y-119348250D02*
X97090750Y-118798250D01*
D12*
X320262106Y-175495472D02*
X324162106Y-175495472D01*
D11*
X322762106Y-176095472D02*
X322762106Y-176895472D01*
X322762106Y-176495472D02*
X323262106Y-176495472D01*
X322162106Y-176495472D02*
X322762106Y-176095472D01*
X321762106Y-176495472D02*
X322162106Y-176495472D01*
X322162106Y-176495472D02*
X322162106Y-175945472D01*
D12*
X320262106Y-177495472D02*
X324162106Y-177495472D01*
X320262106Y-175495472D02*
X320262106Y-177495472D01*
D11*
X322762106Y-176895472D02*
X322162106Y-176495472D01*
X322162106Y-176495472D02*
X322162106Y-177045472D01*
D12*
X303625106Y-101295472D02*
X307525106Y-101295472D01*
D11*
X305125106Y-100295472D02*
X305525106Y-100295472D01*
X306125106Y-100695472D02*
X305525106Y-100295472D01*
X306125106Y-100295472D02*
X306625106Y-100295472D01*
X305525106Y-100295472D02*
X305525106Y-100845472D01*
X305525106Y-100295472D02*
X306125106Y-99895472D01*
D12*
X303625106Y-99295472D02*
X303625106Y-101295472D01*
D11*
X306125106Y-99895472D02*
X306125106Y-100695472D01*
D12*
X303625106Y-99295472D02*
X307525106Y-99295472D01*
D11*
X305525106Y-100295472D02*
X305525106Y-99745472D01*
X334100106Y-119345472D02*
X334700106Y-118945472D01*
X334700106Y-118945472D02*
X334700106Y-119745472D01*
X334100106Y-119345472D02*
X334100106Y-118795472D01*
D12*
X332200106Y-118345472D02*
X332200106Y-120345472D01*
X332200106Y-120345472D02*
X336100106Y-120345472D01*
X332200106Y-118345472D02*
X336100106Y-118345472D01*
D11*
X334100106Y-119345472D02*
X334100106Y-119895472D01*
X333700106Y-119345472D02*
X334100106Y-119345472D01*
X334700106Y-119345472D02*
X335200106Y-119345472D01*
X334700106Y-119745472D02*
X334100106Y-119345472D01*
X92264750Y-138398250D02*
X92264750Y-137848250D01*
X92264750Y-138398250D02*
X92264750Y-138948250D01*
D12*
X90364750Y-137398250D02*
X90364750Y-139398250D01*
D11*
X91864750Y-138398250D02*
X92264750Y-138398250D01*
X92864750Y-138398250D02*
X93364750Y-138398250D01*
D12*
X90364750Y-139398250D02*
X94264750Y-139398250D01*
D11*
X92864750Y-137998250D02*
X92864750Y-138798250D01*
D12*
X90364750Y-137398250D02*
X94264750Y-137398250D01*
D11*
X92264750Y-138398250D02*
X92864750Y-137998250D01*
X92864750Y-138798250D02*
X92264750Y-138398250D01*
X35714750Y-138798250D02*
X35114750Y-138398250D01*
X35714750Y-138398250D02*
X36214750Y-138398250D01*
X35114750Y-138398250D02*
X35114750Y-137848250D01*
D12*
X33214750Y-137398250D02*
X37114750Y-137398250D01*
D11*
X35114750Y-138398250D02*
X35114750Y-138948250D01*
X34714750Y-138398250D02*
X35114750Y-138398250D01*
D12*
X33214750Y-137398250D02*
X33214750Y-139398250D01*
D11*
X35114750Y-138398250D02*
X35714750Y-137998250D01*
D12*
X33214750Y-139398250D02*
X37114750Y-139398250D01*
D11*
X35714750Y-137998250D02*
X35714750Y-138798250D01*
X286075106Y-100295472D02*
X286475106Y-100295472D01*
X287075106Y-99895472D02*
X287075106Y-100695472D01*
D12*
X284575106Y-101295472D02*
X288475106Y-101295472D01*
D11*
X286475106Y-100295472D02*
X286475106Y-100845472D01*
D12*
X284575106Y-99295472D02*
X288475106Y-99295472D01*
X284575106Y-99295472D02*
X284575106Y-101295472D01*
D11*
X286475106Y-100295472D02*
X287075106Y-99895472D01*
X287075106Y-100695472D02*
X286475106Y-100295472D01*
X287075106Y-100295472D02*
X287575106Y-100295472D01*
X286475106Y-100295472D02*
X286475106Y-99745472D01*
X310224106Y-138395472D02*
X310224106Y-137845472D01*
D12*
X308324106Y-137395472D02*
X312224106Y-137395472D01*
X308324106Y-137395472D02*
X308324106Y-139395472D01*
D11*
X310824106Y-138795472D02*
X310224106Y-138395472D01*
X310824106Y-138395472D02*
X311324106Y-138395472D01*
X309824106Y-138395472D02*
X310224106Y-138395472D01*
X310824106Y-137995472D02*
X310824106Y-138795472D01*
X310224106Y-138395472D02*
X310824106Y-137995472D01*
X310224106Y-138395472D02*
X310224106Y-138945472D01*
D12*
X308324106Y-139395472D02*
X312224106Y-139395472D01*
D11*
X57177750Y-176898250D02*
X56577750Y-176498250D01*
X57177750Y-176098250D02*
X57177750Y-176898250D01*
X57177750Y-176498250D02*
X57677750Y-176498250D01*
D12*
X54677750Y-175498250D02*
X54677750Y-177498250D01*
D11*
X56577750Y-176498250D02*
X56577750Y-177048250D01*
X56577750Y-176498250D02*
X57177750Y-176098250D01*
X56577750Y-176498250D02*
X56577750Y-175948250D01*
X56177750Y-176498250D02*
X56577750Y-176498250D01*
D12*
X54677750Y-175498250D02*
X58577750Y-175498250D01*
X54677750Y-177498250D02*
X58577750Y-177498250D01*
X38555625Y-97731106D02*
X38555625Y-97276978D01*
X40025625Y-97731106D02*
X40025625Y-97276978D01*
X28515750Y-99298250D02*
X28515750Y-101298250D01*
D11*
X30415750Y-100298250D02*
X30415750Y-100848250D01*
D12*
X28515750Y-101298250D02*
X32415750Y-101298250D01*
D11*
X31015750Y-100698250D02*
X30415750Y-100298250D01*
X30415750Y-100298250D02*
X31015750Y-99898250D01*
X30415750Y-100298250D02*
X30415750Y-99748250D01*
X31015750Y-99898250D02*
X31015750Y-100698250D01*
D12*
X28515750Y-99298250D02*
X32415750Y-99298250D01*
D11*
X31015750Y-100298250D02*
X31515750Y-100298250D01*
X30015750Y-100298250D02*
X30415750Y-100298250D01*
D12*
X227425106Y-118345472D02*
X231325106Y-118345472D01*
D11*
X228925106Y-119345472D02*
X229325106Y-119345472D01*
X229925106Y-118945472D02*
X229925106Y-119745472D01*
X229925106Y-119745472D02*
X229325106Y-119345472D01*
D12*
X227425106Y-120345472D02*
X231325106Y-120345472D01*
D11*
X229325106Y-119345472D02*
X229325106Y-119895472D01*
X229925106Y-119345472D02*
X230425106Y-119345472D01*
X229325106Y-119345472D02*
X229925106Y-118945472D01*
X229325106Y-119345472D02*
X229325106Y-118795472D01*
D12*
X227425106Y-118345472D02*
X227425106Y-120345472D01*
D11*
X363275106Y-100695472D02*
X362675106Y-100295472D01*
X362675106Y-100295472D02*
X362675106Y-99745472D01*
D12*
X360775106Y-99295472D02*
X364675106Y-99295472D01*
D11*
X362275106Y-100295472D02*
X362675106Y-100295472D01*
X363275106Y-99895472D02*
X363275106Y-100695472D01*
X362675106Y-100295472D02*
X362675106Y-100845472D01*
X362675106Y-100295472D02*
X363275106Y-99895472D01*
D12*
X360775106Y-99295472D02*
X360775106Y-101295472D01*
D11*
X363275106Y-100295472D02*
X363775106Y-100295472D01*
D12*
X360775106Y-101295472D02*
X364675106Y-101295472D01*
D11*
X228925106Y-100295472D02*
X229325106Y-100295472D01*
D12*
X227425106Y-101295472D02*
X231325106Y-101295472D01*
D11*
X229925106Y-99895472D02*
X229925106Y-100695472D01*
D12*
X227425106Y-99295472D02*
X227425106Y-101295472D01*
D11*
X229925106Y-100295472D02*
X230425106Y-100295472D01*
X229325106Y-100295472D02*
X229925106Y-99895472D01*
X229325106Y-100295472D02*
X229325106Y-99745472D01*
D12*
X227425106Y-99295472D02*
X231325106Y-99295472D01*
D11*
X229325106Y-100295472D02*
X229325106Y-100845472D01*
X229925106Y-100695472D02*
X229325106Y-100295472D01*
X228925106Y-138395472D02*
X229325106Y-138395472D01*
X229325106Y-138395472D02*
X229325106Y-138945472D01*
X229325106Y-138395472D02*
X229325106Y-137845472D01*
D12*
X227425106Y-137395472D02*
X227425106Y-139395472D01*
D11*
X229925106Y-138795472D02*
X229325106Y-138395472D01*
X229325106Y-138395472D02*
X229925106Y-137995472D01*
X229925106Y-138395472D02*
X230425106Y-138395472D01*
D12*
X227425106Y-137395472D02*
X231325106Y-137395472D01*
X227425106Y-139395472D02*
X231325106Y-139395472D01*
D11*
X229925106Y-137995472D02*
X229925106Y-138795472D01*
X248375106Y-176495472D02*
X248375106Y-175945472D01*
D12*
X246475106Y-175495472D02*
X246475106Y-177495472D01*
D11*
X248375106Y-176495472D02*
X248975106Y-176095472D01*
X248375106Y-176495472D02*
X248375106Y-177045472D01*
D12*
X246475106Y-175495472D02*
X250375106Y-175495472D01*
D11*
X248975106Y-176495472D02*
X249475106Y-176495472D01*
X248975106Y-176095472D02*
X248975106Y-176895472D01*
X247975106Y-176495472D02*
X248375106Y-176495472D01*
X248975106Y-176895472D02*
X248375106Y-176495472D01*
D12*
X246475106Y-177495472D02*
X250375106Y-177495472D01*
D11*
X144315750Y-100298250D02*
X144715750Y-100298250D01*
X145315750Y-100298250D02*
X145815750Y-100298250D01*
D12*
X142815750Y-101298250D02*
X146715750Y-101298250D01*
D11*
X144715750Y-100298250D02*
X144715750Y-99748250D01*
X145315750Y-100698250D02*
X144715750Y-100298250D01*
X144715750Y-100298250D02*
X144715750Y-100848250D01*
D12*
X142815750Y-99298250D02*
X142815750Y-101298250D01*
X142815750Y-99298250D02*
X146715750Y-99298250D01*
D11*
X144715750Y-100298250D02*
X145315750Y-99898250D01*
X145315750Y-99898250D02*
X145315750Y-100698250D01*
X276950106Y-119345472D02*
X276950106Y-118795472D01*
X276950106Y-119345472D02*
X276950106Y-119895472D01*
X277550106Y-118945472D02*
X277550106Y-119745472D01*
D12*
X275050106Y-118345472D02*
X275050106Y-120345472D01*
D11*
X277550106Y-119745472D02*
X276950106Y-119345472D01*
X276550106Y-119345472D02*
X276950106Y-119345472D01*
D12*
X275050106Y-120345472D02*
X278950106Y-120345472D01*
D11*
X277550106Y-119345472D02*
X278050106Y-119345472D01*
D12*
X275050106Y-118345472D02*
X278950106Y-118345472D01*
D11*
X276950106Y-119345472D02*
X277550106Y-118945472D01*
D12*
X170535613Y-96922250D02*
X171025613Y-96432250D01*
X167635613Y-96922250D02*
X170535613Y-96922250D01*
X167635613Y-96922250D02*
X167145613Y-96432250D01*
X167635613Y-91482250D02*
X170535613Y-91482250D01*
X167635613Y-91482250D02*
X167145613Y-91972250D01*
X170535613Y-91482250D02*
X171025613Y-91972250D01*
X166365613Y-95242250D02*
X166365613Y-93162250D01*
X171805613Y-95242250D02*
X171805613Y-93162250D01*
X210389858Y-151799222D02*
X209867354Y-151799222D01*
X210389858Y-153269222D02*
X209867354Y-153269222D01*
D11*
X58990750Y-119348250D02*
X58990750Y-119898250D01*
X58990750Y-119348250D02*
X58990750Y-118798250D01*
X59590750Y-118948250D02*
X59590750Y-119748250D01*
X59590750Y-119348250D02*
X60090750Y-119348250D01*
D12*
X57090750Y-118348250D02*
X57090750Y-120348250D01*
D11*
X58590750Y-119348250D02*
X58990750Y-119348250D01*
X59590750Y-119748250D02*
X58990750Y-119348250D01*
X58990750Y-119348250D02*
X59590750Y-118948250D01*
D12*
X57090750Y-118348250D02*
X60990750Y-118348250D01*
X57090750Y-120348250D02*
X60990750Y-120348250D01*
X137989750Y-118348250D02*
X141889750Y-118348250D01*
D11*
X140489750Y-119348250D02*
X140989750Y-119348250D01*
X139889750Y-119348250D02*
X140489750Y-118948250D01*
D12*
X137989750Y-120348250D02*
X141889750Y-120348250D01*
D11*
X140489750Y-119748250D02*
X139889750Y-119348250D01*
X139889750Y-119348250D02*
X139889750Y-118798250D01*
X139889750Y-119348250D02*
X139889750Y-119898250D01*
X139489750Y-119348250D02*
X139889750Y-119348250D01*
X140489750Y-118948250D02*
X140489750Y-119748250D01*
D12*
X137989750Y-118348250D02*
X137989750Y-120348250D01*
D11*
X39540750Y-119348250D02*
X39940750Y-119348250D01*
X39940750Y-119348250D02*
X39940750Y-119898250D01*
D12*
X38040750Y-120348250D02*
X41940750Y-120348250D01*
D11*
X40540750Y-119348250D02*
X41040750Y-119348250D01*
X39940750Y-119348250D02*
X40540750Y-118948250D01*
D12*
X38040750Y-118348250D02*
X41940750Y-118348250D01*
D11*
X40540750Y-119748250D02*
X39940750Y-119348250D01*
X39940750Y-119348250D02*
X39940750Y-118798250D01*
D12*
X38040750Y-118348250D02*
X38040750Y-120348250D01*
D11*
X40540750Y-118948250D02*
X40540750Y-119748250D01*
X113823750Y-148081250D02*
X114223750Y-148681250D01*
X113823750Y-148081250D02*
X114373750Y-148081250D01*
D12*
X112823750Y-146181250D02*
X112823750Y-150081250D01*
D11*
X114223750Y-148681250D02*
X113423750Y-148681250D01*
D12*
X114823750Y-146181250D02*
X112823750Y-146181250D01*
D11*
X113823750Y-148681250D02*
X113823750Y-149181250D01*
X113823750Y-148081250D02*
X113273750Y-148081250D01*
D12*
X114823750Y-146181250D02*
X114823750Y-150081250D01*
D11*
X113823750Y-147681250D02*
X113823750Y-148081250D01*
X113423750Y-148681250D02*
X113823750Y-148081250D01*
X267044106Y-142459472D02*
X267044106Y-141909472D01*
X267644106Y-142859472D02*
X267044106Y-142459472D01*
X267044106Y-142459472D02*
X267644106Y-142059472D01*
D12*
X265144106Y-141459472D02*
X265144106Y-143459472D01*
D11*
X266644106Y-142459472D02*
X267044106Y-142459472D01*
X267044106Y-142459472D02*
X267044106Y-143009472D01*
D12*
X265144106Y-141459472D02*
X269044106Y-141459472D01*
X265144106Y-143459472D02*
X269044106Y-143459472D01*
D11*
X267644106Y-142059472D02*
X267644106Y-142859472D01*
X267644106Y-142459472D02*
X268144106Y-142459472D01*
X371800106Y-119345472D02*
X372200106Y-119345472D01*
X372200106Y-119345472D02*
X372800106Y-118945472D01*
X372200106Y-119345472D02*
X372200106Y-119895472D01*
D12*
X370300106Y-120345472D02*
X374200106Y-120345472D01*
X370300106Y-118345472D02*
X370300106Y-120345472D01*
D11*
X372800106Y-119345472D02*
X373300106Y-119345472D01*
X372800106Y-118945472D02*
X372800106Y-119745472D01*
X372800106Y-119745472D02*
X372200106Y-119345472D01*
X372200106Y-119345472D02*
X372200106Y-118795472D01*
D12*
X370300106Y-118345472D02*
X374200106Y-118345472D01*
D11*
X367374106Y-138395472D02*
X367374106Y-138945472D01*
D12*
X365474106Y-137395472D02*
X365474106Y-139395472D01*
D11*
X367374106Y-138395472D02*
X367374106Y-137845472D01*
D12*
X365474106Y-139395472D02*
X369374106Y-139395472D01*
D11*
X366974106Y-138395472D02*
X367374106Y-138395472D01*
X367974106Y-138395472D02*
X368474106Y-138395472D01*
X367374106Y-138395472D02*
X367974106Y-137995472D01*
X367974106Y-138795472D02*
X367374106Y-138395472D01*
X367974106Y-137995472D02*
X367974106Y-138795472D01*
D12*
X365474106Y-137395472D02*
X369374106Y-137395472D01*
D11*
X357849106Y-157445472D02*
X358449106Y-157045472D01*
X357849106Y-157445472D02*
X357849106Y-157995472D01*
D12*
X355949106Y-158445472D02*
X359849106Y-158445472D01*
D11*
X357849106Y-157445472D02*
X357849106Y-156895472D01*
X357449106Y-157445472D02*
X357849106Y-157445472D01*
D12*
X355949106Y-156445472D02*
X359849106Y-156445472D01*
D11*
X358449106Y-157445472D02*
X358949106Y-157445472D01*
X358449106Y-157045472D02*
X358449106Y-157845472D01*
X358449106Y-157845472D02*
X357849106Y-157445472D01*
D12*
X355949106Y-156445472D02*
X355949106Y-158445472D01*
D11*
X348324106Y-138395472D02*
X348324106Y-137845472D01*
D12*
X346424106Y-139395472D02*
X350324106Y-139395472D01*
D11*
X348324106Y-138395472D02*
X348924106Y-137995472D01*
D12*
X346424106Y-137395472D02*
X350324106Y-137395472D01*
D11*
X348924106Y-137995472D02*
X348924106Y-138795472D01*
X348924106Y-138795472D02*
X348324106Y-138395472D01*
X347924106Y-138395472D02*
X348324106Y-138395472D01*
X348324106Y-138395472D02*
X348324106Y-138945472D01*
X348924106Y-138395472D02*
X349424106Y-138395472D01*
D12*
X346424106Y-137395472D02*
X346424106Y-139395472D01*
D11*
X262199106Y-104105472D02*
X262599106Y-104105472D01*
X263199106Y-104105472D02*
X263699106Y-104105472D01*
X263199106Y-104505472D02*
X262599106Y-104105472D01*
X262599106Y-104105472D02*
X262599106Y-103555472D01*
X262599106Y-104105472D02*
X262599106Y-104655472D01*
X263199106Y-103705472D02*
X263199106Y-104505472D01*
D12*
X260699106Y-103105472D02*
X260699106Y-105105472D01*
D11*
X262599106Y-104105472D02*
X263199106Y-103705472D01*
D12*
X260699106Y-105105472D02*
X264599106Y-105105472D01*
X260699106Y-103105472D02*
X264599106Y-103105472D01*
D11*
X267425106Y-176495472D02*
X267425106Y-175945472D01*
D12*
X265525106Y-177495472D02*
X269425106Y-177495472D01*
D11*
X267025106Y-176495472D02*
X267425106Y-176495472D01*
X268025106Y-176895472D02*
X267425106Y-176495472D01*
D12*
X265525106Y-175495472D02*
X269425106Y-175495472D01*
D11*
X267425106Y-176495472D02*
X267425106Y-177045472D01*
X268025106Y-176495472D02*
X268525106Y-176495472D01*
D12*
X265525106Y-175495472D02*
X265525106Y-177495472D01*
D11*
X268025106Y-176095472D02*
X268025106Y-176895472D01*
X267425106Y-176495472D02*
X268025106Y-176095472D01*
X298886106Y-176495472D02*
X299386106Y-176495472D01*
X298286106Y-176495472D02*
X298286106Y-175945472D01*
D12*
X296386106Y-177495472D02*
X300286106Y-177495472D01*
X296386106Y-175495472D02*
X296386106Y-177495472D01*
X296386106Y-175495472D02*
X300286106Y-175495472D01*
D11*
X298286106Y-176495472D02*
X298886106Y-176095472D01*
X298286106Y-176495472D02*
X298286106Y-177045472D01*
X298886106Y-176895472D02*
X298286106Y-176495472D01*
X298886106Y-176095472D02*
X298886106Y-176895472D01*
X297886106Y-176495472D02*
X298286106Y-176495472D01*
X381725106Y-100295472D02*
X382325106Y-99895472D01*
X381325106Y-100295472D02*
X381725106Y-100295472D01*
D12*
X379825106Y-101295472D02*
X383725106Y-101295472D01*
D11*
X382325106Y-99895472D02*
X382325106Y-100695472D01*
D12*
X379825106Y-99295472D02*
X379825106Y-101295472D01*
D11*
X381725106Y-100295472D02*
X381725106Y-99745472D01*
X382325106Y-100295472D02*
X382825106Y-100295472D01*
X381725106Y-100295472D02*
X381725106Y-100845472D01*
D12*
X379825106Y-99295472D02*
X383725106Y-99295472D01*
D11*
X382325106Y-100695472D02*
X381725106Y-100295472D01*
D12*
X40460625Y-97276978D02*
X40460625Y-97731106D01*
X41930625Y-97276978D02*
X41930625Y-97731106D01*
D11*
X315650106Y-119745472D02*
X315050106Y-119345472D01*
X315650106Y-118945472D02*
X315650106Y-119745472D01*
D12*
X313150106Y-118345472D02*
X317050106Y-118345472D01*
X313150106Y-120345472D02*
X317050106Y-120345472D01*
D11*
X315050106Y-119345472D02*
X315650106Y-118945472D01*
X315050106Y-119345472D02*
X315050106Y-119895472D01*
X315650106Y-119345472D02*
X316150106Y-119345472D01*
X315050106Y-119345472D02*
X315050106Y-118795472D01*
D12*
X313150106Y-118345472D02*
X313150106Y-120345472D01*
D11*
X314650106Y-119345472D02*
X315050106Y-119345472D01*
D12*
X377412106Y-177495472D02*
X381312106Y-177495472D01*
D11*
X379912106Y-176495472D02*
X380412106Y-176495472D01*
X379912106Y-176895472D02*
X379312106Y-176495472D01*
D12*
X377412106Y-175495472D02*
X381312106Y-175495472D01*
D11*
X379312106Y-176495472D02*
X379912106Y-176095472D01*
D12*
X377412106Y-175495472D02*
X377412106Y-177495472D01*
D11*
X379912106Y-176095472D02*
X379912106Y-176895472D01*
X379312106Y-176495472D02*
X379312106Y-177045472D01*
X378912106Y-176495472D02*
X379312106Y-176495472D01*
X379312106Y-176495472D02*
X379312106Y-175945472D01*
X376899106Y-157445472D02*
X377499106Y-157045472D01*
D12*
X374999106Y-156445472D02*
X378899106Y-156445472D01*
D11*
X376499106Y-157445472D02*
X376899106Y-157445472D01*
X377499106Y-157845472D02*
X376899106Y-157445472D01*
X377499106Y-157445472D02*
X377999106Y-157445472D01*
D12*
X374999106Y-156445472D02*
X374999106Y-158445472D01*
X374999106Y-158445472D02*
X378899106Y-158445472D01*
D11*
X376899106Y-157445472D02*
X376899106Y-157995472D01*
X376899106Y-157445472D02*
X376899106Y-156895472D01*
X377499106Y-157045472D02*
X377499106Y-157845472D01*
D12*
X322675106Y-101295472D02*
X326575106Y-101295472D01*
D11*
X324575106Y-100295472D02*
X324575106Y-100845472D01*
X325175106Y-100695472D02*
X324575106Y-100295472D01*
D12*
X322675106Y-99295472D02*
X326575106Y-99295472D01*
D11*
X324575106Y-100295472D02*
X324575106Y-99745472D01*
D12*
X322675106Y-99295472D02*
X322675106Y-101295472D01*
D11*
X325175106Y-99895472D02*
X325175106Y-100695472D01*
X324175106Y-100295472D02*
X324575106Y-100295472D01*
X325175106Y-100295472D02*
X325675106Y-100295472D01*
X324575106Y-100295472D02*
X325175106Y-99895472D01*
X320349106Y-157445472D02*
X320849106Y-157445472D01*
D12*
X317849106Y-156445472D02*
X321749106Y-156445472D01*
X317849106Y-158445472D02*
X321749106Y-158445472D01*
D11*
X319349106Y-157445472D02*
X319749106Y-157445472D01*
X319749106Y-157445472D02*
X319749106Y-157995472D01*
X320349106Y-157045472D02*
X320349106Y-157845472D01*
X320349106Y-157845472D02*
X319749106Y-157445472D01*
D12*
X317849106Y-156445472D02*
X317849106Y-158445472D01*
D11*
X319749106Y-157445472D02*
X320349106Y-157045472D01*
X319749106Y-157445472D02*
X319749106Y-156895472D01*
X132142750Y-161131250D02*
X132142750Y-160581250D01*
X132742750Y-160731250D02*
X132742750Y-161531250D01*
X132142750Y-161131250D02*
X132142750Y-161681250D01*
X132142750Y-161131250D02*
X132742750Y-160731250D01*
X131742750Y-161131250D02*
X132142750Y-161131250D01*
D12*
X130242750Y-160131250D02*
X134142750Y-160131250D01*
X130242750Y-160131250D02*
X130242750Y-162131250D01*
D11*
X132742750Y-161131250D02*
X133242750Y-161131250D01*
X132742750Y-161531250D02*
X132142750Y-161131250D01*
D12*
X130242750Y-162131250D02*
X134142750Y-162131250D01*
D13*
X177958750Y-118967250D02*
X160178750Y-118967250D01*
X175418750Y-91027250D02*
X177958750Y-91027250D01*
X160178750Y-85947250D02*
X177958750Y-85947250D01*
X175418750Y-88487250D02*
X177958750Y-88487250D01*
X160178750Y-118967250D02*
X160178750Y-85947250D01*
X177958750Y-85947250D02*
X177958750Y-118967250D01*
X175418750Y-88487250D02*
X175418750Y-91027250D01*
G36*
X163024115Y-94876280D02*
G01*
X162924115Y-94876280D01*
X162924115Y-94776280D01*
X163024115Y-94776280D01*
X163024115Y-94876280D01*
G37*
D10*
X163024115Y-94876280D02*
X162924115Y-94876280D01*
X162924115Y-94776280D01*
X163024115Y-94776280D01*
X163024115Y-94876280D01*
G36*
X163224115Y-94676280D02*
G01*
X163124115Y-94676280D01*
X163124115Y-94376280D01*
X163224115Y-94376280D01*
X163224115Y-94676280D01*
G37*
X163224115Y-94676280D02*
X163124115Y-94676280D01*
X163124115Y-94376280D01*
X163224115Y-94376280D01*
X163224115Y-94676280D01*
G36*
X163224115Y-95176280D02*
G01*
X163124115Y-95176280D01*
X163124115Y-94976280D01*
X163224115Y-94976280D01*
X163224115Y-95176280D01*
G37*
X163224115Y-95176280D02*
X163124115Y-95176280D01*
X163124115Y-94976280D01*
X163224115Y-94976280D01*
X163224115Y-95176280D01*
G36*
X163224115Y-94476280D02*
G01*
X162724115Y-94476280D01*
X162724115Y-94376280D01*
X163224115Y-94376280D01*
X163224115Y-94476280D01*
G37*
X163224115Y-94476280D02*
X162724115Y-94476280D01*
X162724115Y-94376280D01*
X163224115Y-94376280D01*
X163224115Y-94476280D01*
G36*
X162824115Y-95176280D02*
G01*
X162724115Y-95176280D01*
X162724115Y-94376280D01*
X162824115Y-94376280D01*
X162824115Y-95176280D01*
G37*
X162824115Y-95176280D02*
X162724115Y-95176280D01*
X162724115Y-94376280D01*
X162824115Y-94376280D01*
X162824115Y-95176280D01*
D14*
X176688750Y-89757250D03*
D15*
X176688750Y-92297250D03*
X176688750Y-94837250D03*
X176688750Y-97377250D03*
X176688750Y-99917250D03*
X176688750Y-102457250D03*
X176688750Y-104997250D03*
X176688750Y-107537250D03*
X176688750Y-110077250D03*
X176688750Y-112617250D03*
X176688750Y-115157250D03*
X176688750Y-117697250D03*
X161448750Y-117697250D03*
X161448750Y-115157250D03*
X161448750Y-112617250D03*
X161448750Y-110077250D03*
X161448750Y-107537250D03*
X161448750Y-104997250D03*
X161448750Y-102457250D03*
X161448750Y-99917250D03*
X161448750Y-97377250D03*
X161448750Y-94837250D03*
X161448750Y-92297250D03*
X161448750Y-89757250D03*
M02*
