M48
; DRILL file {KiCad (6.0.5)} date Tue Oct  4 19:34:47 2022
; FORMAT={-:-/ absolute / inch / decimal}
; #@! TF.CreationDate,2022-10-04T19:34:47-05:00
; #@! TF.GenerationSoftware,Kicad,Pcbnew,(6.0.5)
; #@! TF.FileFunction,Plated,1,2,PTH
FMAT,2
INCH
; #@! TA.AperFunction,Plated,PTH,ViaDrill
T1C0.0157
; #@! TA.AperFunction,Plated,PTH,ComponentDrill
T2C0.0315
; #@! TA.AperFunction,Plated,PTH,ComponentDrill
T3C0.0354
; #@! TA.AperFunction,Plated,PTH,ComponentDrill
T4C0.0394
; #@! TA.AperFunction,Plated,PTH,ComponentDrill
T5C0.0430
; #@! TA.AperFunction,Plated,PTH,ComponentDrill
T6C0.0591
%
G90
G05
T1
X0.695Y-5.695
X0.78Y-5.9
X0.97Y-3.63
X1.01Y-3.895
X1.16Y-5.14
X1.26Y-4.145
X1.265Y-4.64
X1.345Y-4.2
X1.385Y-3.985
X1.4263Y-5.7988
X1.5469Y-3.9437
X1.645Y-3.94
X1.7212Y-3.6787
X1.8113Y-5.0488
X1.9962Y-4.2988
X2.0012Y-6.4387
X2.1862Y-5.7988
X2.3662Y-3.5488
X2.5513Y-5.0488
X2.7462Y-4.3037
X2.9263Y-5.8037
X3.1212Y-3.5488
X3.205Y-7.075
X3.3062Y-5.0488
X3.4962Y-4.2988
X3.5012Y-6.4188
X3.6062Y-6.9487
X3.6763Y-7.0637
X3.6862Y-5.8037
X3.8762Y-3.5488
X4.0613Y-5.0488
X4.2462Y-4.2988
X4.335Y-6.23
X4.3462Y-6.5488
X4.44Y-5.98
X4.6262Y-3.5488
X4.67Y-3.895
X4.9048Y-5.7988
X5.0112Y-6.0987
X5.025Y-5.13
X5.0998Y-5.0488
X5.1612Y-4.2988
X5.22Y-6.19
X5.2713Y-6.5488
X5.2812Y-4.1837
X5.3762Y-3.5488
X5.505Y-5.995
X5.605Y-5.37
X5.8563Y-5.3637
X5.8563Y-6.3338
X5.89Y-4.23
X5.95Y-4.89
X5.9863Y-4.9688
X5.995Y-6.525
X6.01Y-5.35
X6.0263Y-4.9238
X6.035Y-6.365
X6.0613Y-4.8838
X6.0899Y-4.8505
X6.1131Y-4.8187
X6.27Y-4.57
X6.2797Y-4.0053
X6.285Y-4.085
X6.285Y-4.205
X6.285Y-4.325
X6.6Y-3.54
X6.6Y-6.16
X6.81Y-3.965
X8.2673Y-4.3486
X8.325Y-5.055
X8.34Y-4.81
X8.355Y-5.245
X8.36Y-5.105
X8.36Y-5.1705
X8.37Y-4.95
X8.375Y-4.645
X8.405Y-4.54
X8.425Y-4.385
X8.43Y-5.67
X8.44Y-4.89
X8.44Y-4.995
X8.445Y-5.17
X8.4473Y-5.3986
X8.6373Y-5.2486
X8.6423Y-5.1486
X8.6423Y-5.3436
X8.655Y-5.075
X8.655Y-5.2
X8.66Y-5.295
X8.6773Y-5.3936
X8.725Y-4.93
X8.76Y-5.605
X8.7673Y-5.1486
X8.7673Y-5.1986
X8.775Y-5.295
X8.7923Y-4.4086
X8.795Y-3.625
X8.8023Y-4.1736
X8.8023Y-5.8936
X8.8023Y-6.4536
X8.8296Y-5.69
X8.835Y-3.825
X8.845Y-4.93
X8.905Y-5.605
X8.915Y-4.475
X9.165Y-4.505
X9.165Y-5.255
X9.26Y-3.825
X9.2622Y-4.6935
X9.295Y-6.055
X9.315Y-3.52
X9.3273Y-4.0636
X9.3273Y-4.1136
X9.3423Y-4.9936
X9.3473Y-4.863
X9.355Y-5.495
X9.3773Y-4.6136
X9.3838Y-5.0036
X9.3973Y-6.1936
X9.4Y-5.76
X9.4Y-6.945
X9.4573Y-5.7986
X9.4573Y-6.5486
X9.4585Y-4.8286
X9.4623Y-4.6136
X9.475Y-4.505
X9.48Y-4.015
X9.4823Y-4.9686
X9.4923Y-6.2972
X9.505Y-4.115
X9.505Y-4.28
X9.51Y-3.52
X9.52Y-3.73
X9.52Y-5.885
X9.52Y-6.005
X9.525Y-5.465
X9.54Y-4.6
X9.5773Y-5.2122
X9.79Y-5.785
X9.81Y-5.075
X9.8223Y-3.6436
X9.835Y-5.885
X9.8523Y-4.0986
X9.8823Y-4.7436
X9.885Y-3.835
X9.89Y-5.0
X9.9375Y-3.6875
X9.96Y-4.23
X9.975Y-4.625
X9.9773Y-3.6686
X9.9923Y-4.3886
X10.0423Y-3.8586
X10.05Y-4.3
X10.0523Y-4.2436
X10.065Y-3.68
X10.085Y-3.86
X10.0923Y-4.5186
X10.105Y-4.88
X10.135Y-4.085
X10.135Y-4.31
X10.2023Y-6.5486
X10.28Y-3.765
X10.355Y-5.635
X10.405Y-4.315
X10.43Y-3.74
X10.4573Y-4.8786
X10.4723Y-5.7986
X10.515Y-5.735
X10.515Y-6.1
X10.535Y-3.415
X10.5773Y-4.2986
X10.59Y-3.86
X10.725Y-3.415
X10.875Y-5.87
X10.8773Y-3.9486
X10.9523Y-3.5486
X11.0473Y-5.0136
X11.05Y-5.83
X11.1373Y-5.0486
X11.3273Y-4.2986
X11.37Y-4.685
X11.4123Y-6.5536
X11.5123Y-5.7986
X11.7023Y-3.5486
X11.8923Y-5.0486
X12.0773Y-4.2936
X12.2673Y-5.7986
X12.3473Y-6.5486
X12.4523Y-3.5486
X12.6473Y-5.0486
X12.8273Y-4.2986
X13.0173Y-5.7986
X13.2023Y-3.5436
X13.2673Y-6.5486
X13.33Y-3.17
X13.3923Y-5.0486
X13.43Y-3.34
X13.5823Y-4.2986
X13.7673Y-5.7986
X13.9473Y-3.5486
X14.1373Y-5.0536
X14.3273Y-4.2986
X14.5173Y-5.7986
X14.6073Y-6.5486
X14.7073Y-3.5486
X14.8873Y-5.0486
X15.0773Y-4.2986
T2
X8.2719Y-4.599
X8.2719Y-4.699
X8.2719Y-4.799
X8.2719Y-4.899
X8.2719Y-4.999
X8.2719Y-5.099
X8.2719Y-5.199
X8.2719Y-5.299
X8.2719Y-5.399
X8.2719Y-5.499
X8.2719Y-5.599
X8.2719Y-5.699
X8.2719Y-5.799
X8.2719Y-5.899
X8.5719Y-4.599
X8.5719Y-4.699
X8.5719Y-4.799
X8.5719Y-4.899
X8.5719Y-4.999
X8.5719Y-5.099
X8.5719Y-5.199
X8.5719Y-5.299
X8.5719Y-5.399
X8.5719Y-5.499
X8.5719Y-5.599
X8.5719Y-5.699
X8.5719Y-5.799
X8.5719Y-5.899
T4
X6.5059Y-4.8125
X6.5578Y-6.0783
X6.5578Y-6.6492
X6.6059Y-4.8125
X6.6562Y-6.0783
X6.7059Y-4.8125
X6.7547Y-6.0783
X6.7547Y-6.6492
X6.8059Y-4.8125
X8.2727Y-4.4586
X8.3727Y-4.4586
X8.4727Y-4.4586
X8.5727Y-4.4586
T5
X6.3563Y-3.5337
X6.3563Y-3.6338
X6.3563Y-3.7338
X6.3563Y-3.8337
X6.3563Y-3.9337
X6.3563Y-4.0337
X6.3563Y-4.1338
X6.3563Y-4.2337
X6.3563Y-4.3338
X6.3563Y-4.4337
X6.3563Y-4.5337
X6.3563Y-4.6338
X6.9562Y-3.5337
X6.9562Y-3.6338
X6.9562Y-3.7338
X6.9562Y-3.8337
X6.9562Y-3.9337
X6.9562Y-4.0337
X6.9562Y-4.1338
X6.9562Y-4.2337
X6.9562Y-4.3338
X6.9562Y-4.4337
X6.9562Y-4.5337
X6.9562Y-4.6338
T3
G00X2.7345Y-3.3443
M15
G01X2.7187Y-3.3443
M16
G05
G00X2.8526Y-3.3443
M15
G01X2.8368Y-3.3443
M16
G05
G00X3.01Y-3.3443
M15
G01X2.9943Y-3.3443
M16
G05
G00X3.0534Y-3.1632
M15
G01X3.0376Y-3.1632
M16
G05
G00X13.1977Y-3.3442
M15
G01X13.2135Y-3.3442
M16
G05
G00X13.241Y-3.1631
M15
G01X13.2568Y-3.1631
M16
G05
G00X13.3985Y-3.1631
M15
G01X13.4143Y-3.1631
M16
G05
G00X13.5166Y-3.1631
M15
G01X13.5324Y-3.1631
M16
G05
T6
G00X6.4358Y-6.348
M15
G01X6.4358Y-6.3992
M16
G05
G00X6.8767Y-6.348
M15
G01X6.8767Y-6.3992
M16
G05
T0
M30
